<svg xmlns="http://www.w3.org/2000/svg" width="302.977" height="81.42" viewBox="0 0 302.977 81.42">
  <g id="layer1" transform="translate(385.845 -355.241)">
    <g id="g2518" transform="translate(579.097 -533.167)">
      <path id="path6644" d="M-786.6,903.033h-9.606l-2.836,9.168-3.056-9.168h-9.606l7.858-5.674-3.056-8.951,7.86,5.674,7.638-5.674-2.836,8.951,7.64,5.674" fill="#d10a0a"/>
      <path id="path6646" d="M-940.493,920.276h-7.2l-3.494,22.92c-.435,2.621-.655,5.239-.873,7.858h0c0-1.528-.655-6.985-.873-8.293l-3.056-22.485h-8.951l7.64,37.11h9.606l2.618-15.5c.438-3.056.655-5.892.873-8.948h.22a64.782,64.782,0,0,0,1.09,9.386l2.839,15.063h9.386l7.423-37.11h-8.515l-2.836,22.485a81.124,81.124,0,0,0-.873,8.293h0c-.22-2.836-.438-5.457-.873-8.075l-4.149-22.7" fill="#fff"/>
      <path id="path6648" d="M-902.513,941.886c-.218,3.494.655,9.823-4.364,9.823-3.056,0-3.929-1.963-3.929-4.8a6.141,6.141,0,0,1,1.308-4.366c2.4-1.746,4.8-3.274,6.985-4.8Zm9.168,15.5a21.616,21.616,0,0,1-.655-5.239v-21.83c.22-5.019-.653-11.131-12.222-11.131-10.7,0-13.1,5.022-12.879,12.007h8.075c0-3.276.655-5.459,4.584-5.459,2.183,0,3.494.438,3.929,1.966.655,3.056-.653,4.8-4.146,6.33-6.767,2.621-12.659,4.8-12.659,13.1,0,7.64,2.836,11.134,9.821,11.134,2.839,0,5.457-1.748,7.423-4.8h.218a8.13,8.13,0,0,0,.438,3.931h8.075" fill="#fff" fill-rule="evenodd"/>
      <path id="path6650" d="M-885.922,961.533c.435,6.112,5.239,8.3,10.914,8.3,11.569,0,13.752-6.112,13.752-13.535V920.276h-8.513v3.711h-.218c-1.093-3.274-3.494-4.8-7.422-4.8-5.457.218-8.731,3.056-8.951,13.315v13.317c.22,5.892,1.748,12.442,8.951,12.442,3.711-.22,6.112-1.31,7.858-4.8l.218.22v4.146c0,2.838-.653,5.895-4.364,5.895a4.67,4.67,0,0,1-2.621-.655,1.642,1.642,0,0,1-1.09-1.528Zm16.153-27.5v11.134c0,4.364-1.528,6.547-4.149,6.547s-3.709-2.836-3.709-6.33V932.938c.218-3.711-.22-7.205,3.709-7.205,4.149,0,4.149,5.459,4.149,8.3" fill="#fff" fill-rule="evenodd"/>
      <path id="path6652" d="M-837.463,941.886c0,3.494.873,9.823-4.149,9.823-3.274,0-4.146-1.963-4.146-4.8,0-1.528.218-3.274,1.528-4.366,2.183-1.746,4.8-3.274,6.767-4.8Zm9.386,15.5a21.5,21.5,0,0,1-.655-5.239v-21.83c0-5.019-.655-11.131-12.224-11.131-10.914,0-13.1,5.022-13.1,12.007h8.3c-.218-3.276.438-5.459,4.367-5.459,2.4,0,3.709.438,3.929,1.966.873,3.056-.438,4.8-4.149,6.33-6.765,2.621-12.659,4.8-12.659,13.1,0,7.64,3.056,11.134,10.041,11.134,2.838,0,5.457-1.748,7.423-4.8h0a8.338,8.338,0,0,0,.653,3.931h8.078" fill="#fff" fill-rule="evenodd"/>
      <path id="path6654" d="M-811.489,920.276H-820v37.11h8.513V932.938c0-4.149.22-6.985,4.149-7.205,3.929,0,4.146,2.839,4.146,6.112v25.541h8.733V932.938c0-4.367.653-6.985,4.146-7.205,3.929,0,4.146,3.276,4.146,6.55v25.1h8.513V927.044c0-3.929-2.618-7.858-8.948-7.858-4.367,0-6.985,1.746-8.733,4.8-.435-3.491-4.8-4.8-7.858-4.8-2.839.218-6.33.873-8.3,4.8h0v-3.711" fill="#fff"/>
      <path id="path6656" d="M-754.3,941.886c-.22,3.494.653,9.823-4.367,9.823-3.056,0-3.929-1.963-3.929-4.8,0-1.528.218-3.274,1.31-4.366,2.4-1.746,4.8-3.274,6.985-4.8Zm9.166,15.5a21.618,21.618,0,0,1-.653-5.239v-21.83c.218-5.019-.655-11.131-12.224-11.131-10.7,0-13.1,5.022-12.879,12.007h8.078c0-3.276.653-5.459,4.582-5.459,2.183,0,3.494.438,3.931,1.966.653,3.056-.655,4.8-4.149,6.33-6.767,2.621-12.877,4.8-12.877,13.1,0,7.64,3.054,11.134,10.041,11.134,2.836,0,5.457-1.748,7.42-4.8h.218a8.129,8.129,0,0,0,.438,3.931h8.075" fill="#fff" fill-rule="evenodd"/>
      <path id="path6658" d="M-728.541,920.276h-8.731v37.11h8.731V932.938c0-4.149.218-6.985,4.146-7.205,3.929,0,4.149,2.839,4.149,6.112v25.541h8.513V932.938c0-4.367.655-6.985,4.364-7.205,3.711,0,4.149,3.276,4.149,6.55v25.1h8.513V927.044c0-3.929-2.839-7.858-8.951-7.858-4.364,0-6.985,1.746-8.73,4.8-.655-3.491-4.8-4.8-7.858-4.8-2.839.218-6.33.873-8.3,4.8h0v-3.711" fill="#fff"/>
      <path id="path6660" d="M-671.133,942.107c-.218,3.491.655,9.821-4.364,9.821-3.274,0-3.929-1.963-3.929-4.8,0-1.528,0-3.274,1.308-4.364,2.183-1.966,4.8-3.276,6.985-4.8Zm9.168,15.5a21.6,21.6,0,0,1-.655-5.239V930.537c.22-5.022-.653-11.134-12.222-11.134-10.7,0-13.1,5.022-12.879,12.007h8.075c0-3.274.655-5.457,4.367-5.457,2.4,0,3.711.435,4.146,1.963.655,3.056-.653,4.8-4.364,6.112-6.55,2.839-12.662,4.8-12.662,13.317,0,7.638,3.056,11.131,10.041,11.131,2.838,0,5.457-1.746,7.423-4.8h.218a6.168,6.168,0,0,0,.438,3.929h8.075" fill="#fff" fill-rule="evenodd"/>
    </g>
  </g>
</svg>
