<svg xmlns="http://www.w3.org/2000/svg" viewBox="0 0 676.58 214.47"><defs><style>.cls-1{fill:#ffffff;}</style></defs><g id="Layer_2" data-name="Layer 2"><g id="Layer_1-2" data-name="Layer 1"><path class="cls-1" d="M365.32,140.72c0-12.66-9.37-21.16-23.31-21.16H323.43v42.32H342C356,161.88,365.32,153.37,365.32,140.72Zm-29.18,10.11V130.61H342a10,10,0,0,1,10.29,10.11c0,5.73-4.33,10-10.29,10.11h-5.87Z"/><path class="cls-1" d="M526,149.07a15.52,15.52,0,0,0,7.21-13.28c0-9.4-7.53-16.23-17.9-16.23H492.23v42.32h12.83V152h8.3l.11.19,5.74,9.66H534l-8.31-12.59Zm-10.69-8.15H505.06V130.67h10.23a5.13,5.13,0,1,1,0,10.25Z"/><path class="cls-1" d="M448.76,119.56l-11.18,42.32h12.86l1.79-6.84h17l1.78,6.84H484l-11.19-42.32Zm6.35,24.25,3.4-13.14h4.41l3.4,13.14Z"/><polygon class="cls-1" points="635.12 119.56 635.12 130.67 649.46 130.67 649.46 161.88 662.23 161.88 662.23 130.67 676.58 130.67 676.58 119.56 635.12 119.56"/><polygon class="cls-1" points="569.69 119.56 562.55 134.82 555.89 134.82 555.89 119.56 543.05 119.56 543.05 161.88 555.89 161.88 555.89 145.87 562.18 145.87 562.28 146.1 569.69 161.88 583.49 161.88 573.45 140.72 583.49 119.56 569.69 119.56"/><polygon class="cls-1" points="592.47 161.88 626.78 161.88 626.78 150.89 605.24 150.89 605.24 146 622.6 146 622.6 135.56 605.24 135.56 605.24 130.49 626.78 130.49 626.78 119.56 592.47 119.56 592.47 161.88"/><polygon class="cls-1" points="0 130.67 14.34 130.67 14.34 161.88 27.11 161.88 27.11 130.67 41.45 130.67 41.45 119.56 0 119.56 0 130.67"/><path class="cls-1" d="M236,118.82h-.18c-13.69,0-23.25,9-23.25,21.9s9.56,21.9,23.25,21.9H236c13.69,0,23.25-9,23.25-21.9S249.67,118.82,236,118.82Zm0,32h-.18c-6,0-10.24-4.14-10.24-10.05s4.21-10.05,10.24-10.05H236c6,0,10.23,4.13,10.23,10.05S242,150.77,236,150.77Z"/><polygon class="cls-1" points="104.49 161.88 138.8 161.88 138.8 150.89 117.26 150.89 117.26 146 134.62 146 134.62 135.56 117.26 135.56 117.26 130.49 138.8 130.49 138.8 119.56 104.49 119.56 104.49 161.88"/><polygon class="cls-1" points="81.11 134.64 64.83 134.64 64.83 119.56 52.06 119.56 52.06 161.88 64.83 161.88 64.83 145.87 81.11 145.87 81.11 161.88 93.88 161.88 93.88 119.56 81.11 119.56 81.11 134.64"/><path class="cls-1" d="M314.06,140.72c0-12.89-9.56-21.9-23.25-21.9h-.18c-13.69,0-23.25,9-23.25,21.9s9.56,21.9,23.25,21.9h.18C304.5,162.62,314.06,153.61,314.06,140.72Zm-23.25,10.05h-.18c-6,0-10.24-4.14-10.24-10.05s4.21-10.05,10.24-10.05h.18c6,0,10.23,4.13,10.23,10.05S296.83,150.77,290.81,150.77Z"/><polygon class="cls-1" points="202.4 137.16 186.44 137.16 186.44 130.49 205.88 130.49 205.88 119.56 159.48 119.56 159.48 130.67 173.66 130.67 173.66 161.88 186.44 161.88 186.44 148.09 202.4 148.09 202.4 137.16"/><polygon class="cls-1" points="429.8 119.56 374.69 119.56 374.81 161.88 387.64 161.88 387.56 130.61 396.44 130.61 396.44 154.67 408.09 154.67 408.09 130.61 417 130.61 417.08 161.88 429.92 161.88 429.8 119.56"/><path class="cls-1" d="M198.1,187.75l-9.73,26.38h7.84l1.65-5.16h7.45l1.69,5.16h7.8l-9.69-26.38Zm.9,16.39,2.6-8.18,2.49,8.18Z"/><polygon class="cls-1" points="237.85 200.16 231.82 187.75 223.43 187.75 223.43 214.13 231.11 214.13 231.11 200.23 235.8 210.01 239.9 210.01 244.59 200.23 244.59 214.13 252.27 214.13 252.27 187.75 243.91 187.75 237.85 200.16"/><path class="cls-1" d="M282,200.7a10.52,10.52,0,0,0-2.66-1.58,29.2,29.2,0,0,0-3.48-1.23q-1.23-.37-2.19-.63a12.61,12.61,0,0,1-1.64-.54,3.43,3.43,0,0,1-1-.61,1.11,1.11,0,0,1-.35-.86,1,1,0,0,1,.61-1,3.71,3.71,0,0,1,1.63-.3,9.08,9.08,0,0,1,2.58.39,22.71,22.71,0,0,1,2.39.84,22,22,0,0,1,2.44,1.19l3.31-6c-.63-.29-1.34-.61-2.13-.94a25.9,25.9,0,0,0-2.54-.93,25.27,25.27,0,0,0-2.82-.71,16.38,16.38,0,0,0-3-.28,13.22,13.22,0,0,0-4,.58,10.46,10.46,0,0,0-3.33,1.69,8,8,0,0,0-2.31,2.79,8.47,8.47,0,0,0-.84,3.86,7.53,7.53,0,0,0,.41,2.57,5.66,5.66,0,0,0,1.28,2,8.66,8.66,0,0,0,2.21,1.56,21.11,21.11,0,0,0,3.19,1.28c.84.27,1.63.51,2.38.71s1.41.39,2,.59a4.64,4.64,0,0,1,1.36.69,1.15,1.15,0,0,1,.49.94,1,1,0,0,1-.49.84,3.46,3.46,0,0,1-1.75.32,11.91,11.91,0,0,1-3.25-.45,21.53,21.53,0,0,1-2.86-1A23.36,23.36,0,0,1,264.8,205l-3.31,6.35a20.2,20.2,0,0,0,2.73,1.27,29.11,29.11,0,0,0,3.08,1,27.2,27.2,0,0,0,3.21.64,24.43,24.43,0,0,0,3.15.22,17.19,17.19,0,0,0,3.84-.43,10.66,10.66,0,0,0,3.43-1.39,7.4,7.4,0,0,0,2.44-2.59,7.88,7.88,0,0,0,.93-4,7.68,7.68,0,0,0-.59-3.16A6.13,6.13,0,0,0,282,200.7Z"/><polygon class="cls-1" points="291.98 194.06 300.06 194.06 300.06 214.13 307.74 214.13 307.74 194.06 315.77 194.06 315.77 187.75 291.98 187.75 291.98 194.06"/><polygon class="cls-1" points="332.56 203.65 342.72 203.65 342.72 197.78 332.56 197.78 332.56 194.06 344.46 194.06 344.46 187.75 324.88 187.75 324.88 214.13 344.81 214.13 344.81 207.82 332.56 207.82 332.56 203.65"/><path class="cls-1" d="M375.89,201.18a8.92,8.92,0,0,0,1.07-4.29,8.42,8.42,0,0,0-.71-3.33,9.5,9.5,0,0,0-1.95-2.93,9.94,9.94,0,0,0-3-2.09,9,9,0,0,0-3.79-.79H354.7v26.38h7.68V206h2.88l4.92,8.1h8.67l-5.91-9.7A8.77,8.77,0,0,0,375.89,201.18ZM368.55,199a1.71,1.71,0,0,1-1.32.74h-4.85v-5.65H367a2.05,2.05,0,0,1,1.42.73,2.88,2.88,0,0,1,.71,2.1A3.24,3.24,0,0,1,368.55,199Z"/><path class="cls-1" d="M408.87,191.61a12.57,12.57,0,0,0-4.41-2.82,16.47,16.47,0,0,0-6.11-1H387.6v26.38h10.75a16.83,16.83,0,0,0,5.79-.94,13.11,13.11,0,0,0,4.46-2.68,11.78,11.78,0,0,0,2.85-4.16,14.19,14.19,0,0,0,1-5.45,14.42,14.42,0,0,0-.91-5.11A11.85,11.85,0,0,0,408.87,191.61Zm-4.63,12a6.13,6.13,0,0,1-1.22,2.2,5.6,5.6,0,0,1-2,1.45,6.71,6.71,0,0,1-2.68.52h-3.07V194.06h3.07a6.61,6.61,0,0,1,2.64.51,5.46,5.46,0,0,1,2,1.39,6.07,6.07,0,0,1,1.24,2.15,9.35,9.35,0,0,1,0,5.54Z"/><path class="cls-1" d="M428.21,187.75l-9.73,26.38h7.84L428,209h7.44l1.7,5.16h7.8l-9.69-26.38Zm.91,16.39,2.6-8.18,2.48,8.18Z"/><polygon class="cls-1" points="467.96 200.16 461.94 187.75 453.55 187.75 453.55 214.13 461.23 214.13 461.23 200.23 465.92 210.01 470.01 210.01 474.7 200.23 474.7 214.13 482.38 214.13 482.38 187.75 474.03 187.75 467.96 200.16"/><path class="cls-1" d="M452.81,19c-10.83,0-16.1-4.91-16.1-15V0H239.86V4c0,10.1-5.26,15-16.09,15H211.44v8h12.9V92.29h227.9V27h12.89V19Zm-8.57,8V51.19H378.51V27ZM298.07,59.19v25.1H269.21V59.19Zm8,0h25.42v25.1H306.07ZM370.51,27V51.19H306.07V27ZM311,19a23.75,23.75,0,0,0,4.41-11h45.71a23.65,23.65,0,0,0,4.42,11ZM339.49,75.6H355v-8h-15.5V59.19h31v25.1h-31Zm39-16.41h12.12v25.1H378.51Zm20.12,0h8.72V77h8V59.19h8.73v25.1H398.63ZM433.23,19h-57.1C372,14.86,370,11.75,369.24,8H429A21.93,21.93,0,0,0,433.23,19ZM247.62,8h59.72c-.74,3.75-2.75,6.86-6.9,11H243.35A21.92,21.92,0,0,0,247.62,8Zm50.45,19V51.19H232.34V27ZM232.34,59.19h28.87v25.1H232.34Zm199.74,25.1V59.19h12.16v25.1Z"/></g></g></svg>