<?xml version="1.0" encoding="utf-8"?>
<!-- Generator: Adobe Illustrator 25.3.1, SVG Export Plug-In . SVG Version: 6.00 Build 0)  -->
<svg version="1.1" id="Layer_1" xmlns="http://www.w3.org/2000/svg" xmlns:xlink="http://www.w3.org/1999/xlink" x="0px" y="0px"
	 viewBox="0 0 240.9 155.9" style="enable-background:new 0 0 240.9 155.9;" xml:space="preserve">
<style type="text/css">
	.st0{fill:#FFFFFF;}
</style>
<g>
	<path class="st0" d="M159.8,72.5c-1.2,1.4-2.6,2.6-4,3.7s-3.1,2-4.7,2.7s-3.4,1.3-5.2,1.7c-1.8,0.4-3.6,0.6-5.4,0.6
		c-5,0-9.4-0.9-13.2-2.7c-3.8-1.8-6.9-4.2-9.4-7.3c-2.5-3.1-4.4-6.7-5.7-10.9s-1.9-8.8-1.9-13.6c0-4.4,0.7-8.4,2-11.8
		s3.2-6.4,5.6-8.8s5.3-4.2,8.6-5.5c3.3-1.3,7-1.9,11-1.9c4.2,0,8,0.7,11.5,2c3.5,1.4,6.5,3.2,8.9,5.5l0.4-0.2l-3.2-8.8
		c-5.2-1.9-10.9-2.8-17.1-2.8c-3.9,0-7.6,0.4-11,1.4c-3.4,0.9-6.5,2.2-9.3,3.8c-2.8,1.6-5.3,3.5-7.5,5.7c-0.9,0.9-1.8,1.9-2.6,2.9
		c0-1.4,0-2.7,0.1-3.9c0.1-2,0.2-3.8,0.3-5.2c0.1-1.5,0.3-2.7,0.4-3.7c0.2-1,0.4-1.8,0.6-2.5v-0.2H97.4v0.2c0.2,0.7,0.4,1.5,0.6,2.5
		c0.2,1,0.3,2.2,0.4,3.7c0.1,1.5,0.2,3.2,0.3,5.2c0.1,2,0.1,4.4,0.1,7.1v39.8c0,3.4-0.1,6.5-0.3,9.3c-0.2,2.8-0.6,5.5-1.3,8
		s-1.7,4.8-3,6.9s-3,4.2-5.2,6.2l0.9,1.2c2.5-1.8,4.9-3.7,7-5.6c2.2-1.9,4-4.1,5.6-6.5s2.8-5.2,3.7-8.4c0.8-3,1.3-6.5,1.3-10.6
		c1.1,1.4,2.3,2.6,3.7,3.8c3.5,3.1,7.7,5.5,12.6,7.2c4.9,1.7,10.3,2.6,16.1,2.6c2.9,0,5.8-0.2,8.7-0.7c2.9-0.5,5.5-1.2,7.9-2.1
		l3.8-9.7L159.8,72.5z"/>
	<g>
		<path class="st0" d="M57.2,126.6c0.3,0,0.6,0,0.8,0c0.8,0,1.3-0.3,1.3-1.4v-11.5h2.4V125c0,3-1.6,3.8-3.4,3.8c-0.4,0-0.8,0-1.1,0
			V126.6z"/>
		<path class="st0" d="M75.3,128.7h-2.4l-0.4-2.7h-2.9l-0.4,2.7H67l2.4-15h3.5L75.3,128.7z M69.9,123.9h2.3l-1.1-7.6L69.9,123.9z"/>
		<path class="st0" d="M87.6,123.1v2c0,2.4-1.2,3.8-3.5,3.8s-3.5-1.4-3.5-3.8v-7.8c0-2.4,1.2-3.8,3.5-3.8s3.5,1.4,3.5,3.8v1.5h-2.2
			v-1.6c0-1.1-0.5-1.5-1.2-1.5s-1.2,0.4-1.2,1.5v8.1c0,1.1,0.5,1.5,1.2,1.5s1.2-0.4,1.2-1.5v-2.2C85.3,123.1,87.6,123.1,87.6,123.1z
			"/>
		<path class="st0" d="M96.4,122.7l-0.7,1.4v4.6h-2.4v-15h2.4v6.6l3.1-6.6h2.4l-3.3,6.7l3.3,8.3h-2.4L96.4,122.7z"/>
		<path class="st0" d="M106.5,113.7h2.4v15h-2.4V113.7z"/>
		<path class="st0" d="M117.2,120h3.2v2.2h-3.2v4.4h4.1v2.2h-6.4v-15h6.4v2.2h-4.1V120z"/>
		<path class="st0" d="M133.9,123.1v2c0,2.4-1.2,3.8-3.5,3.8s-3.5-1.4-3.5-3.8v-7.8c0-2.4,1.2-3.8,3.5-3.8c2.3,0,3.5,1.4,3.5,3.8
			v1.5h-2.2v-1.6c0-1.1-0.5-1.5-1.2-1.5s-1.2,0.4-1.2,1.5v8.1c0,1.1,0.5,1.5,1.2,1.5s1.2-0.4,1.2-1.5v-2.2
			C131.7,123.1,133.9,123.1,133.9,123.1z"/>
		<path class="st0" d="M142,128.7h-2.4v-15h2.4v6.4h2.7v-6.4h2.4v15h-2.4v-6.4H142V128.7z"/>
		<path class="st0" d="M160.8,128.7h-2.4L158,126h-2.9l-0.4,2.7h-2.2l2.4-15h3.5L160.8,128.7z M155.4,123.9h2.3l-1.1-7.6
			L155.4,123.9z"/>
		<path class="st0" d="M168.2,117.8v10.9h-2.1v-15h3l2.4,9v-9h2.1v15h-2.4L168.2,117.8z"/>
		<path class="st0" d="M183.2,120.3h3.3v4.8c0,2.4-1.2,3.8-3.5,3.8s-3.5-1.4-3.5-3.8v-7.8c0-2.4,1.2-3.8,3.5-3.8s3.5,1.4,3.5,3.8
			v1.5h-2.2v-1.6c0-1.1-0.5-1.5-1.2-1.5s-1.2,0.4-1.2,1.5v8.1c0,1.1,0.5,1.5,1.2,1.5s1.2-0.4,1.2-1.5v-2.8h-1.1L183.2,120.3
			L183.2,120.3z"/>
	</g>
	<g>
		<path class="st0" d="M83.6,135.8h0.4v3.3h4.6v-3.3h0.4v7.2h-0.4v-3.5h-4.6v3.5h-0.4V135.8z"/>
		<path class="st0" d="M94.5,135.8H95l2.8,7.2h-0.5l-0.9-2.3H93l-0.9,2.3h-0.5L94.5,135.8z M96.3,140.3l-1.5-4.1h0l-1.6,4.1H96.3z"
			/>
		<path class="st0" d="M100.3,135.8h0.4v7.2h-0.4V135.8z"/>
		<path class="st0" d="M104.1,135.8h3c0.3,0,0.6,0,0.9,0.1s0.5,0.2,0.7,0.3c0.2,0.1,0.4,0.3,0.5,0.6c0.1,0.2,0.2,0.5,0.2,0.9
			c0,0.5-0.1,0.9-0.4,1.2c-0.3,0.3-0.7,0.5-1.1,0.6v0c0.3,0,0.6,0.1,0.8,0.3c0.2,0.1,0.3,0.3,0.4,0.5c0.1,0.2,0.2,0.4,0.2,0.6
			c0,0.2,0,0.5,0,0.7c0,0.1,0,0.3,0,0.4s0,0.3,0,0.4c0,0.1,0,0.2,0.1,0.3s0.1,0.2,0.1,0.2h-0.5c-0.1-0.2-0.2-0.4-0.2-0.6
			c0-0.2,0-0.5,0-0.7c0-0.2,0-0.5,0-0.7s-0.1-0.4-0.2-0.6s-0.3-0.3-0.5-0.4s-0.6-0.2-1-0.2h-2.6v3.3h-0.4L104.1,135.8L104.1,135.8z
			 M107.1,139.4c0.3,0,0.5,0,0.7-0.1c0.2-0.1,0.4-0.2,0.6-0.3c0.2-0.1,0.3-0.3,0.4-0.5s0.1-0.4,0.1-0.7c0-0.3-0.1-0.5-0.2-0.7
			s-0.2-0.4-0.4-0.5s-0.4-0.2-0.6-0.3c-0.2-0.1-0.4-0.1-0.7-0.1h-2.6v3.1L107.1,139.4L107.1,139.4z"/>
		<path class="st0" d="M112.4,135.8h4.5v0.4h-4.1v2.9h3.7v0.4h-3.7v3.5h-0.4V135.8z"/>
		<path class="st0" d="M121.2,135.8h0.5l2.8,7.2H124l-0.9-2.3h-3.4l-0.9,2.3h-0.5L121.2,135.8z M123,140.3l-1.5-4.1h0l-1.6,4.1H123z
			"/>
		<path class="st0" d="M131.7,137.9c0-0.3-0.1-0.6-0.2-0.8c-0.1-0.2-0.3-0.4-0.5-0.6c-0.2-0.1-0.4-0.3-0.7-0.4s-0.6-0.1-0.9-0.1
			c-0.2,0-0.4,0-0.6,0.1s-0.4,0.1-0.6,0.2c-0.2,0.1-0.4,0.3-0.5,0.5c-0.1,0.2-0.2,0.4-0.2,0.7c0,0.3,0.1,0.5,0.2,0.7
			s0.3,0.3,0.6,0.4c0.2,0.1,0.5,0.2,0.8,0.3s0.6,0.1,0.9,0.2c0.3,0.1,0.6,0.1,0.9,0.2c0.3,0.1,0.6,0.2,0.8,0.3
			c0.2,0.1,0.4,0.3,0.6,0.6s0.2,0.5,0.2,0.9c0,0.4-0.1,0.7-0.2,0.9s-0.4,0.5-0.6,0.6c-0.2,0.2-0.5,0.3-0.8,0.4
			c-0.3,0.1-0.6,0.1-0.9,0.1c-0.4,0-0.8,0-1.2-0.1s-0.7-0.2-1-0.4c-0.3-0.2-0.5-0.5-0.7-0.8c-0.2-0.3-0.2-0.7-0.2-1.2h0.4
			c0,0.4,0,0.7,0.2,1s0.3,0.5,0.6,0.7c0.2,0.2,0.5,0.3,0.8,0.4c0.3,0.1,0.7,0.1,1,0.1c0.2,0,0.4,0,0.7-0.1c0.2-0.1,0.5-0.1,0.7-0.3
			s0.4-0.3,0.5-0.5c0.1-0.2,0.2-0.5,0.2-0.8c0-0.3-0.1-0.6-0.2-0.7s-0.3-0.4-0.6-0.5c-0.2-0.1-0.5-0.2-0.8-0.3
			c-0.3-0.1-0.6-0.1-0.9-0.2c-0.3-0.1-0.6-0.1-0.9-0.2s-0.6-0.2-0.8-0.3c-0.2-0.1-0.4-0.3-0.6-0.5c-0.1-0.2-0.2-0.5-0.2-0.8
			s0.1-0.6,0.2-0.9c0.1-0.2,0.3-0.4,0.6-0.6c0.2-0.1,0.5-0.3,0.8-0.3c0.3-0.1,0.6-0.1,0.9-0.1c0.4,0,0.7,0,1.1,0.1
			c0.3,0.1,0.6,0.2,0.9,0.4c0.2,0.2,0.4,0.4,0.6,0.7s0.2,0.6,0.2,1H131.7z"/>
		<path class="st0" d="M135.3,135.8h0.4v3.3h4.6v-3.3h0.4v7.2h-0.4v-3.5h-4.6v3.5h-0.4V135.8z"/>
		<path class="st0" d="M144.1,135.8h0.4v7.2h-0.4V135.8z"/>
		<path class="st0" d="M154.3,139.4c0,0.5-0.1,1-0.2,1.5s-0.4,0.9-0.7,1.2s-0.6,0.6-1.1,0.8c-0.4,0.2-0.9,0.3-1.4,0.3
			s-1-0.1-1.4-0.3s-0.8-0.5-1.1-0.8c-0.3-0.3-0.5-0.7-0.7-1.2c-0.1-0.5-0.2-0.9-0.2-1.5s0.1-1,0.2-1.5s0.4-0.9,0.7-1.2
			s0.6-0.6,1.1-0.8c0.4-0.2,0.9-0.3,1.4-0.3s1,0.1,1.4,0.3c0.4,0.2,0.8,0.5,1.1,0.8c0.3,0.3,0.5,0.7,0.7,1.2
			S154.3,138.9,154.3,139.4z M147.9,139.4c0,0.5,0.1,0.9,0.2,1.3c0.1,0.4,0.3,0.8,0.6,1.1s0.6,0.6,0.9,0.7s0.8,0.3,1.3,0.3
			s0.9-0.1,1.2-0.3c0.4-0.2,0.7-0.4,0.9-0.7c0.2-0.3,0.4-0.7,0.6-1.1s0.2-0.8,0.2-1.3c0-0.5-0.1-0.9-0.2-1.3
			c-0.1-0.4-0.3-0.8-0.6-1.1s-0.6-0.6-0.9-0.7s-0.8-0.3-1.2-0.3s-0.9,0.1-1.3,0.3c-0.4,0.2-0.7,0.4-0.9,0.7
			c-0.2,0.3-0.4,0.7-0.6,1.1C148,138.5,147.9,138.9,147.9,139.4z"/>
		<path class="st0" d="M157.3,135.8h0.6l4.5,6.6h0v-6.6h0.4v7.2h-0.5l-4.6-6.6h0v6.6h-0.4V135.8z"/>
	</g>
</g>
</svg>
