<svg xmlns="http://www.w3.org/2000/svg" viewBox="0 0 1080 1080"><defs><style>.cls-1{fill:#17252a;}.cls-2{fill:#fff;}.cls-3{fill:#3aafa9;}</style></defs><g id="dark_Logo_ABC_full" data-name="dark Logo/ABC/full"><rect class="cls-1" width="1080" height="1080"/><path class="cls-2" d="M289.06,591.61l102,189.9h-35a45,45,0,0,1-2.35-4.43c-1.39-2.76-3.24-6.33-5.58-10.72s-4.66-8.76-7-13.14-4.43-8.24-6.28-11.58-3-5.38-3.36-6.14H211.19c-.39.76-1.5,2.81-3.36,6.14s-3.91,7.2-6.15,11.58-4.52,8.76-6.85,13.14l-5.72,10.72a50.73,50.73,0,0,1-2.5,4.43H151.74l102.17-189.9h35.15Zm-25.43,39.44q-3.44,6.42-7.79,14.64t-9.36,17.58q-5,9.36-9.5,17.57l-7.86,14.36q-3.36,6.15-4.5,8.15h87.73q-1.14-2-4.5-8.15t-7.93-14.36q-4.57-8.21-9.5-17.57t-9.5-17.58q-4.57-8.21-7.93-14.64t-4.51-8.72Q267.05,624.63,263.63,631.05Z"/><path class="cls-2" d="M586.38,591.61a57.52,57.52,0,0,1,21.36,3.93,55.56,55.56,0,0,1,17.44,10.86A52.23,52.23,0,0,1,637,622.54a45.5,45.5,0,0,1,4.35,19.65v9.15a44.43,44.43,0,0,1-4.21,18.93,56.13,56.13,0,0,1-11.79,16.5,51,51,0,0,1,11.79,16.08,45.06,45.06,0,0,1,4.21,19.22v9.14A44.87,44.87,0,0,1,637,750.86a51.83,51.83,0,0,1-11.86,15.93,56.3,56.3,0,0,1-17.44,10.79,57.52,57.52,0,0,1-21.36,3.93H428.92V591.61H586.38ZM457.93,622v50.87H584.67c1,0,2,.05,3.07.15a27.11,27.11,0,0,1,3.07.42A24.88,24.88,0,0,0,604,665.91,19.15,19.15,0,0,0,609,652.77v-9.15a19.82,19.82,0,0,0-7-15.29A24.94,24.94,0,0,0,584.67,622Zm0,81v51.16H584.67A24.94,24.94,0,0,0,602,747.93a19.82,19.82,0,0,0,7-15.29V723.5A19.18,19.18,0,0,0,604,710.35a26.62,26.62,0,0,0-13.22-7.86,27,27,0,0,1-3.07.43c-1.1.1-2.12.14-3.07.14Z"/><path class="cls-2" d="M847.55,589.9a49.84,49.84,0,0,1,18.29,3.35,53.23,53.23,0,0,1,15.51,9.36,52.23,52.23,0,0,1,11.43,14,46.55,46.55,0,0,1,5.64,17.43l.57,4.43H867.13l-.57-3a20.08,20.08,0,0,0-7.29-10.08,19.18,19.18,0,0,0-11.72-3.93H731.1A19,19,0,0,0,717,627.33a19.36,19.36,0,0,0-5.71,14v89.31A19.51,19.51,0,0,0,731.1,750.5H847.55a19.18,19.18,0,0,0,11.72-3.93,20.05,20.05,0,0,0,7.29-10.07l.57-2.72H899l-.57,4.15a47.89,47.89,0,0,1-5.64,17.57,49.59,49.59,0,0,1-11.43,14,55,55,0,0,1-15.51,9.21,49.64,49.64,0,0,1-18.29,3.36H731.1a51.7,51.7,0,0,1-20.22-3.93,50.56,50.56,0,0,1-16.36-10.93,53.49,53.49,0,0,1-11.14-16.36,49.27,49.27,0,0,1-4.15-20.22V641.33a48.59,48.59,0,0,1,4.15-19.93A53.49,53.49,0,0,1,694.52,605,52.6,52.6,0,0,1,710.88,594a50,50,0,0,1,20.22-4.07Z"/><path class="cls-3" d="M194.45,869.32H179.81L177,877.67h-8.88l15.08-40.52H191l15.17,40.52h-8.88Zm-12.39-6.76h10.13l-5.09-15.17Z"/><path class="cls-3" d="M242.34,867a4.28,4.28,0,0,0-1.67-3.63,21.93,21.93,0,0,0-6-2.67,43,43,0,0,1-6.87-2.77q-6.9-3.74-6.9-10.05a9.75,9.75,0,0,1,1.85-5.86,12.11,12.11,0,0,1,5.31-4,20.12,20.12,0,0,1,7.78-1.45,18.17,18.17,0,0,1,7.74,1.58,12.2,12.2,0,0,1,5.27,4.44,11.55,11.55,0,0,1,1.88,6.51h-8.35a5.46,5.46,0,0,0-1.75-4.33,7.21,7.21,0,0,0-4.93-1.54,7.74,7.74,0,0,0-4.76,1.29,4.08,4.08,0,0,0-1.69,3.41,3.9,3.9,0,0,0,2,3.31,22.41,22.41,0,0,0,5.86,2.51q7.13,2.15,10.38,5.31a10.6,10.6,0,0,1,3.25,7.91,9.75,9.75,0,0,1-4,8.25q-4,3-10.71,3a20.71,20.71,0,0,1-8.52-1.71,13.54,13.54,0,0,1-5.86-4.69,12.06,12.06,0,0,1-2-6.9H228q0,6.71,8,6.7a7.81,7.81,0,0,0,4.65-1.21A3.93,3.93,0,0,0,242.34,867Z"/><path class="cls-3" d="M276.64,877.67h-8.35V837.15h8.35Z"/><path class="cls-3" d="M319.16,869.32H304.52l-2.78,8.35h-8.88l15.08-40.52h7.74l15.17,40.52H322Zm-12.39-6.76H316.9l-5.09-15.17Z"/><path class="cls-3" d="M379,877.67h-8.35L354.38,851v26.66H346V837.15h8.35l16.28,26.72V837.15H379Z"/><path class="cls-3" d="M423.27,877.67V837.15h14.2q7.36,0,11.19,2.83t3.81,8.28a9.15,9.15,0,0,1-1.53,5.24,8.89,8.89,0,0,1-4.26,3.33,8.58,8.58,0,0,1,4.91,3.14,9.29,9.29,0,0,1,1.8,5.79q0,5.85-3.73,8.85T439,877.67Zm8.35-23.54h6.18c4.21-.08,6.32-1.75,6.32-5a4.68,4.68,0,0,0-1.6-4,8.47,8.47,0,0,0-5-1.21h-5.85Zm0,5.9V871h7.15a6.89,6.89,0,0,0,4.61-1.41,4.84,4.84,0,0,0,1.66-3.88c0-3.71-1.92-5.6-5.76-5.65Z"/><path class="cls-3" d="M504.34,858.33a24.43,24.43,0,0,1-2.12,10.49,15.92,15.92,0,0,1-6.05,7,17.89,17.89,0,0,1-18,0,16.05,16.05,0,0,1-6.13-6.92,23.86,23.86,0,0,1-2.2-10.34v-2A24.35,24.35,0,0,1,472,846a16,16,0,0,1,6.1-7,17.82,17.82,0,0,1,18,0,16,16,0,0,1,6.1,7,24.27,24.27,0,0,1,2.16,10.51Zm-8.46-1.84c0-4.24-.77-7.47-2.29-9.68a8.07,8.07,0,0,0-13,0q-2.28,3.27-2.3,9.58v2q0,6.21,2.28,9.63a8,8,0,0,0,13,.13q2.27-3.3,2.29-9.62Z"/><path class="cls-3" d="M536.8,862.84h-6.65v14.83H521.8V837.15h15.06q7.18,0,11.08,3.2t3.89,9a12.41,12.41,0,0,1-1.79,6.91,12.2,12.2,0,0,1-5.44,4.41l8.77,16.56v.39h-9Zm-6.65-6.76h6.74a6.92,6.92,0,0,0,4.87-1.6,5.73,5.73,0,0,0,1.72-4.42,6.11,6.11,0,0,0-1.62-4.5,6.76,6.76,0,0,0-5-1.65h-6.71Z"/><path class="cls-3" d="M584.58,862.84h-6.65v14.83h-8.35V837.15h15.06c4.78,0,8.48,1.07,11.07,3.2s3.9,5.15,3.9,9a12.5,12.5,0,0,1-1.79,6.91,12.23,12.23,0,0,1-5.45,4.41l8.77,16.56v.39h-9Zm-6.65-6.76h6.74a7,7,0,0,0,4.87-1.6,5.73,5.73,0,0,0,1.72-4.42,6.08,6.08,0,0,0-1.63-4.5,6.73,6.73,0,0,0-5-1.65h-6.71Z"/><path class="cls-3" d="M641.74,860.11h-16V871h18.81v6.7H617.36V837.15h27.1v6.76H625.71v9.66h16Z"/><path class="cls-3" d="M669.17,871H686.9v6.7H660.82V837.15h8.35Z"/><path class="cls-3" d="M760.49,864.18a14.31,14.31,0,0,1-4.83,10.29q-4.35,3.76-11.48,3.76-7.78,0-12.26-5.25t-4.47-14.4V856.1a24.33,24.33,0,0,1,2.06-10.29A15.52,15.52,0,0,1,735.4,839a16.55,16.55,0,0,1,8.89-2.38q7,0,11.3,3.76t5,10.55H752.2c-.21-2.62-.94-4.51-2.19-5.69s-3.16-1.77-5.72-1.77a7.12,7.12,0,0,0-6.25,3q-2.07,3-2.12,9.28v3.07q0,6.57,2,9.6t6.27,3q3.87,0,5.78-1.77a7.93,7.93,0,0,0,2.18-5.46Z"/><path class="cls-3" d="M785.72,871h17.73v6.7H777.37V837.15h8.35Z"/><path class="cls-3" d="M849.64,837.15v26.69q0,6.66-4.16,10.52t-11.37,3.87q-7.1,0-11.27-3.76t-4.26-10.32v-27h8.35V863.9c0,2.65.64,4.59,1.91,5.8a7.29,7.29,0,0,0,5.27,1.82q7,0,7.16-7.4v-27Z"/><path class="cls-3" d="M867.89,877.67V837.15h14.19q7.38,0,11.19,2.83t3.82,8.28a9.08,9.08,0,0,1-1.54,5.24,8.91,8.91,0,0,1-4.25,3.33,8.62,8.62,0,0,1,4.91,3.14,9.29,9.29,0,0,1,1.79,5.79q0,5.85-3.73,8.85t-10.63,3.06Zm8.35-23.54h6.18c4.21-.08,6.32-1.75,6.32-5a4.68,4.68,0,0,0-1.6-4,8.51,8.51,0,0,0-5.06-1.21h-5.84Zm0,5.9V871h7.15a6.9,6.9,0,0,0,4.61-1.41,4.83,4.83,0,0,0,1.65-3.88c0-3.71-1.92-5.6-5.76-5.65Z"/><rect class="cls-3" x="523" y="165.71" width="63.57" height="122.43" rx="6.99"/><path class="cls-3" d="M579.56,429.58H530c-.15,0-.3,0-.44,0a7,7,0,0,0-7.91-3.86l-30.22,7a7,7,0,0,0-5.26,8.42l0,.12a.15.15,0,0,1-.27.13c-24.39-31.18-47.51-59.06-47.59-59.15h0C401.76,369,356.91,394.58,355,395.66c0,0,0,0,0,0,49.36,4.95,67.67-3.4,69.64-4.4,0,0,0,0,0,.05-37.87,33.29-38.09,55.18-38.08,56,0,0,0,0,0,0,30.31-10.38,44.07-52.59,44.53-54a0,0,0,0,1,0,0c32.7,39.55,63.6,85.41,63.6,85.41h0l11,47.63a10.2,10.2,0,0,0,9.9,7.89h63.82a7,7,0,0,0,7-7V436.6A7,7,0,0,0,579.56,429.58Z"/><path class="cls-3" d="M451.19,289.68a7,7,0,0,0,8.38,5.24l30.25-7a7,7,0,0,0,5.24-8.38l-24.4-105.67a7,7,0,0,0-8.39-5.24l-30.24,7a7,7,0,0,0-5.24,8.39Z"/><path class="cls-3" d="M732.84,190.64s-48.67,18.85-60,44.44S647.24,289,640.65,297.65c0,0,3.16-31.19-28.75-74.44,0,0-3.17,57.76,24.53,82a221.89,221.89,0,0,1-29.55,39.3,249.9,249.9,0,0,0-20.31,26.82V304.64a7,7,0,0,0-7-7H530a7,7,0,0,0-7,7v96l-22.66-98.17a7,7,0,0,0-8.38-5.24l-30.25,7a7,7,0,0,0-5.24,8.38l24.4,105.67a7,7,0,0,0,8.38,5.24l30.25-7a6.9,6.9,0,0,0,3.62-2.15,7,7,0,0,0,6.87,5.74h49.59a7,7,0,0,0,7-7V394.77s14.55-25.94,40.94-55.83c55,22.93,78.22,6.58,78.22,6.58-28.18-16.57-65.65-11.76-75.36-10.13,5.32-8.2,35.82-56.15,46.28-92.93C701.84,231.78,718.2,216.88,732.84,190.64Z"/></g></svg>