<svg xmlns="http://www.w3.org/2000/svg" viewBox="0 0 1080 540"><defs><style>.cls-1{fill:#fff;}.cls-2{fill:#2c7b79;}.cls-3{fill:#17252a;}</style></defs><g id="H_Logo_full" data-name="H/Logo/full"><rect class="cls-1" width="1080" height="540"/><rect class="cls-2" x="216.49" y="123.84" width="50.41" height="97.1" rx="5.54"/><path class="cls-2" d="M261.34,333.12H222l-.35,0a5.54,5.54,0,0,0-6.27-3.06l-24,5.53a5.57,5.57,0,0,0-4.17,6.68l0,.09a.12.12,0,0,1-.21.1c-19.34-24.72-37.68-46.84-37.74-46.91h0c-29-10.52-64.57,9.79-66,10.64,0,0,0,0,0,0,39.14,3.92,53.66-2.7,55.22-3.49,0,0,0,0,0,0-30,26.4-30.21,43.76-30.2,44.42h0c24-8.24,34.95-41.71,35.32-42.84,0,0,0,0,0,0,25.93,31.37,50.44,67.74,50.44,67.74h0l8.72,37.78a8.08,8.08,0,0,0,7.85,6.26h50.61a5.56,5.56,0,0,0,5.56-5.56V338.68A5.56,5.56,0,0,0,261.34,333.12Z"/><path class="cls-2" d="M159.54,222.16a5.54,5.54,0,0,0,6.64,4.15l24-5.54a5.54,5.54,0,0,0,4.16-6.65L175,130.31a5.55,5.55,0,0,0-6.65-4.15l-24,5.54a5.54,5.54,0,0,0-4.15,6.65Z"/><path class="cls-2" d="M382.89,143.6s-38.59,15-47.59,35.25S315,221.63,309.79,228.48c0,0,2.51-24.74-22.81-59,0,0-2.51,45.81,19.46,65.05A176,176,0,0,1,283,265.66a197.28,197.28,0,0,0-16.11,21.27V234a5.54,5.54,0,0,0-5.54-5.54H222a5.54,5.54,0,0,0-5.54,5.54v76.11l-18-77.86a5.55,5.55,0,0,0-6.65-4.15l-24,5.54a5.54,5.54,0,0,0-4.15,6.64l19.35,83.82a5.53,5.53,0,0,0,6.64,4.15l24-5.54a5.49,5.49,0,0,0,2.88-1.7,5.53,5.53,0,0,0,5.44,4.55h39.33A5.54,5.54,0,0,0,266.9,320V305.51s11.54-20.58,32.46-44.28c43.66,18.18,62,5.21,62,5.21-22.35-13.14-52.06-9.32-59.77-8,4.22-6.5,28.41-44.53,36.71-73.7C358.31,176.24,371.28,164.42,382.89,143.6Z"/><path class="cls-3" d="M516,176.51l76.22,141.86H566.08a29.13,29.13,0,0,1-1.77-3.3q-1.54-3.1-4.16-8l-5.23-9.82q-2.61-4.9-4.7-8.65c-1.38-2.49-2.22-4-2.5-4.59H457.84c-.29.57-1.12,2.1-2.51,4.59s-2.92,5.38-4.59,8.65-3.38,6.55-5.12,9.82-3.17,5.94-4.27,8-1.73,3.16-1.87,3.3H413.43l76.32-141.86H516ZM497,206l-5.81,10.95q-3.27,6.14-7,13.12t-7.09,13.13l-5.88,10.73q-2.5,4.59-3.36,6.09h65.54q-.85-1.5-3.36-6.09t-5.92-10.73Q520.71,237,517,230t-7.1-13.12Q506.51,210.79,504,206t-3.37-6.51Q499.58,201.17,497,206Z"/><path class="cls-3" d="M738.12,176.51a43,43,0,0,1,16,2.94,41.53,41.53,0,0,1,13,8.11A38.84,38.84,0,0,1,776,199.62a33.94,33.94,0,0,1,3.26,14.68v6.83a33.22,33.22,0,0,1-3.15,14.15,41.87,41.87,0,0,1-8.81,12.32,38.18,38.18,0,0,1,8.81,12A33.69,33.69,0,0,1,779.22,274v6.83A33.47,33.47,0,0,1,776,295.48a38.65,38.65,0,0,1-8.86,11.9,42,42,0,0,1-13,8.06,43,43,0,0,1-16,2.93H620.49V176.51H738.12Zm-96,22.74v38h94.68c.71,0,1.48,0,2.3.11a21.43,21.43,0,0,1,2.29.32A18.62,18.62,0,0,0,751.3,232,14.32,14.32,0,0,0,755,222.2v-6.83A14.8,14.8,0,0,0,749.76,204a18.65,18.65,0,0,0-12.92-4.7Zm0,60.52V298h94.68a18.65,18.65,0,0,0,12.92-4.7A14.81,14.81,0,0,0,755,281.87V275a14.32,14.32,0,0,0-3.69-9.82,19.78,19.78,0,0,0-9.87-5.87,21.43,21.43,0,0,1-2.29.32c-.82.07-1.59.1-2.3.1Z"/><path class="cls-3" d="M933.22,175.23a37.21,37.21,0,0,1,13.67,2.51A39.59,39.59,0,0,1,967,195.19a34.92,34.92,0,0,1,4.21,13l.43,3.31h-23.8l-.43-2.25a15,15,0,0,0-5.44-7.52,14.34,14.34,0,0,0-8.76-2.94h-87a14.18,14.18,0,0,0-10.57,4.38,14.48,14.48,0,0,0-4.27,10.46v66.71a14.59,14.59,0,0,0,14.84,14.84h87a14.39,14.39,0,0,0,8.76-2.93,15,15,0,0,0,5.44-7.53l.43-2h23.8l-.43,3.1A35.88,35.88,0,0,1,967,299a37.1,37.1,0,0,1-8.54,10.46,40.77,40.77,0,0,1-11.58,6.88,37,37,0,0,1-13.67,2.51h-87a38.71,38.71,0,0,1-15.1-2.93,37.77,37.77,0,0,1-12.23-8.17,40.1,40.1,0,0,1-8.32-12.22,36.8,36.8,0,0,1-3.1-15.11V213.66a36.25,36.25,0,0,1,3.1-14.89,40.1,40.1,0,0,1,8.32-12.22,39,39,0,0,1,12.23-8.27,37.39,37.39,0,0,1,15.1-3.05Z"/><path class="cls-2" d="M445.33,384H434.4l-2.08,6.23h-6.63L437,359.94h5.78l11.33,30.27h-6.63Zm-9.25-5.06h7.57l-3.8-11.33Z"/><path class="cls-2" d="M481.11,382.27a3.2,3.2,0,0,0-1.25-2.71,16.36,16.36,0,0,0-4.49-2,32.25,32.25,0,0,1-5.14-2.07c-3.43-1.85-5.15-4.36-5.15-7.5a7.32,7.32,0,0,1,1.38-4.38,9,9,0,0,1,4-3,15,15,0,0,1,5.81-1.08A13.62,13.62,0,0,1,482,360.7,9.15,9.15,0,0,1,486,364a8.63,8.63,0,0,1,1.41,4.86h-6.24a4.1,4.1,0,0,0-1.31-3.23,5.37,5.37,0,0,0-3.68-1.15,5.8,5.8,0,0,0-3.56,1,3.07,3.07,0,0,0-1.26,2.55,2.91,2.91,0,0,0,1.48,2.47,16.53,16.53,0,0,0,4.38,1.87q5.32,1.61,7.75,4a7.87,7.87,0,0,1,2.44,5.9,7.26,7.26,0,0,1-3,6.16,13,13,0,0,1-8,2.24,15.47,15.47,0,0,1-6.36-1.28,10.06,10.06,0,0,1-4.38-3.5,9,9,0,0,1-1.51-5.16h6.26q0,5,6,5a5.84,5.84,0,0,0,3.47-.9A3,3,0,0,0,481.11,382.27Z"/><path class="cls-2" d="M506.74,390.21H500.5V359.94h6.24Z"/><path class="cls-2" d="M538.5,384H527.56l-2.08,6.23h-6.63l11.27-30.27h5.78l11.33,30.27H540.6Zm-9.26-5.06h7.57L533,367.59Z"/><path class="cls-2" d="M583.19,390.21H577L564.81,370.3v19.91h-6.24V359.94h6.24l12.16,20v-20h6.22Z"/><path class="cls-2" d="M616.27,390.21V359.94h10.61c3.67,0,6.45.71,8.35,2.11a7.22,7.22,0,0,1,2.85,6.19,6.87,6.87,0,0,1-1.14,3.92,6.59,6.59,0,0,1-3.18,2.48,6.42,6.42,0,0,1,3.67,2.35,7,7,0,0,1,1.34,4.33,8,8,0,0,1-2.79,6.61c-1.85,1.49-4.5,2.26-7.94,2.28Zm6.24-17.59h4.62c3.14-.05,4.71-1.31,4.71-3.76a3.46,3.46,0,0,0-1.19-3,6.25,6.25,0,0,0-3.77-.91h-4.37Zm0,4.41v8.17h5.34a5.14,5.14,0,0,0,3.44-1.05,3.58,3.58,0,0,0,1.24-2.9q0-4.15-4.3-4.22Z"/><path class="cls-2" d="M676.83,375.76a18.32,18.32,0,0,1-1.58,7.84,11.86,11.86,0,0,1-4.52,5.2,13.35,13.35,0,0,1-13.46,0,12,12,0,0,1-4.58-5.17,17.67,17.67,0,0,1-1.64-7.72v-1.5a18.25,18.25,0,0,1,1.61-7.87,12.05,12.05,0,0,1,4.55-5.22,13.42,13.42,0,0,1,13.46,0,12.12,12.12,0,0,1,4.55,5.22,18.23,18.23,0,0,1,1.61,7.85Zm-6.32-1.37q0-4.75-1.71-7.23a6,6,0,0,0-9.71,0c-1.13,1.62-1.71,4-1.72,7.16v1.47a13,13,0,0,0,1.7,7.2,5.56,5.56,0,0,0,4.91,2.55,5.49,5.49,0,0,0,4.82-2.46c1.13-1.64,1.7-4,1.71-7.18Z"/><path class="cls-2" d="M701.09,379.13h-5v11.08h-6.24V359.94h11.25q5.36,0,8.27,2.39a8.27,8.27,0,0,1,2.91,6.76,9.27,9.27,0,0,1-1.34,5.17,9.14,9.14,0,0,1-4.06,3.29l6.55,12.37v.29h-6.7Zm-5-5.05h5a5.15,5.15,0,0,0,3.64-1.2,4.25,4.25,0,0,0,1.29-3.29,4.58,4.58,0,0,0-1.22-3.37,5.05,5.05,0,0,0-3.73-1.23h-5Z"/><path class="cls-2" d="M736.78,379.13h-5v11.08h-6.24V359.94h11.25q5.35,0,8.27,2.39a8.27,8.27,0,0,1,2.91,6.76,9.27,9.27,0,0,1-1.34,5.17,9.14,9.14,0,0,1-4.06,3.29l6.55,12.37v.29h-6.7Zm-5-5.05h5a5.14,5.14,0,0,0,3.64-1.2,4.25,4.25,0,0,0,1.29-3.29,4.58,4.58,0,0,0-1.22-3.37,5,5,0,0,0-3.73-1.23h-5Z"/><path class="cls-2" d="M779.47,377.09h-12v8.11h14v5H761.26V359.94h20.25V365h-14v7.22h12Z"/><path class="cls-2" d="M800,385.2h13.24v5H793.73V359.94H800Z"/><path class="cls-2" d="M868.19,380.13a10.71,10.71,0,0,1-3.61,7.69,12.68,12.68,0,0,1-8.58,2.81,11.41,11.41,0,0,1-9.16-3.92q-3.33-3.91-3.33-10.76V374.1a18.08,18.08,0,0,1,1.54-7.69,11.55,11.55,0,0,1,4.39-5.11,13.79,13.79,0,0,1,15.09,1,11.52,11.52,0,0,1,3.7,7.88H862a6.34,6.34,0,0,0-1.63-4.25,6,6,0,0,0-4.27-1.32,5.3,5.3,0,0,0-4.67,2.24q-1.54,2.24-1.59,6.93v2.29c0,3.27.49,5.66,1.49,7.17a5.19,5.19,0,0,0,4.68,2.27,6.17,6.17,0,0,0,4.32-1.32,6,6,0,0,0,1.63-4.09Z"/><path class="cls-2" d="M887,385.2h13.24v5H880.8V359.94H887Z"/><path class="cls-2" d="M934.79,359.94v19.94a10.23,10.23,0,0,1-3.11,7.86q-3.1,2.89-8.49,2.89a12.14,12.14,0,0,1-8.43-2.81,10.09,10.09,0,0,1-3.18-7.71V359.94h6.24v20a5.79,5.79,0,0,0,1.43,4.34,5.44,5.44,0,0,0,3.94,1.36q5.25,0,5.34-5.53V359.94Z"/><path class="cls-2" d="M948.42,390.21V359.94H959c3.67,0,6.46.71,8.36,2.11a7.22,7.22,0,0,1,2.85,6.19,6.8,6.8,0,0,1-1.15,3.92,6.59,6.59,0,0,1-3.18,2.48,6.36,6.36,0,0,1,3.67,2.35,6.92,6.92,0,0,1,1.34,4.33,8,8,0,0,1-2.78,6.61c-1.86,1.49-4.51,2.26-7.94,2.28Zm6.24-17.59h4.61c3.15-.05,4.72-1.31,4.72-3.76a3.46,3.46,0,0,0-1.2-3A6.21,6.21,0,0,0,959,365h-4.36Zm0,4.41v8.17H960a5.16,5.16,0,0,0,3.44-1.05,3.61,3.61,0,0,0,1.24-2.9q0-4.15-4.31-4.22Z"/></g></svg>