<?xml version="1.0" encoding="utf-8"?>
<!-- Generator: Adobe Illustrator 25.3.1, SVG Export Plug-In . SVG Version: 6.00 Build 0)  -->
<svg version="1.1" id="Layer_1" xmlns="http://www.w3.org/2000/svg" xmlns:xlink="http://www.w3.org/1999/xlink" x="0px" y="0px"
	 viewBox="0 0 1015.9 864" style="enable-background:new 0 0 1015.9 864;" xml:space="preserve">
<style type="text/css">
	.st0{clip-path:url(#SVGID_4_);}
	.st1{fill:#17252A;}
	.st2{fill:#3BAFA9;}
	.st3{fill:#FFFFFF;}
	.st4{font-family:'Roboto-Regular';}
	.st5{font-size:18.6868px;}
	.st6{font-size:14.5341px;}
	.st7{fill:#FBF7F9;}
	.st8{font-size:12.4578px;}
	.st9{font-family:'MyriadPro-Regular';}
	.st10{clip-path:url(#SVGID_10_);}
	.st11{fill:#436E9C;}
	.st12{fill:#A6C1D6;}
	.st13{fill:none;stroke:#000000;stroke-width:0.25;stroke-linecap:round;stroke-linejoin:round;stroke-miterlimit:10;}
	.st14{fill:#3BAFA9;stroke:#17252A;stroke-width:0.25;stroke-miterlimit:10;}
	.st15{fill:none;stroke:#17252A;stroke-width:0.25;stroke-miterlimit:10;}
	.st16{fill:#231F20;}
	.st17{fill:none;stroke:#282425;stroke-width:0.5;stroke-linecap:round;stroke-linejoin:round;}
	.st18{fill:#7AC14A;stroke:#7AC149;stroke-width:0.25;stroke-miterlimit:10;}
	.st19{enable-background:new    ;}
	.st20{font-family:'Roboto-Bold';}
	.st21{letter-spacing:2;}
</style>
<g>
	
		<image style="overflow:visible;opacity:0.3;" width="744" height="557" xlink:href="EE009D3A.png"  transform="matrix(1 0 0 1 161 361)">
	</image>
	<g>
		<g>
			<defs>
				<path id="SVGID_1_" d="M750.4,772.7H265.5c-4.9,0-8.9-4-8.9-8.9V464.9c0-4.9,4-8.9,8.9-8.9h484.8c4.9,0,8.9,4,8.9,8.9v298.8
					C759.3,768.7,755.3,772.7,750.4,772.7z"/>
			</defs>
			<clipPath id="SVGID_2_">
				<use xlink:href="#SVGID_1_"  style="overflow:visible;"/>
			</clipPath>
		</g>
		<g>
			<defs>
				<path id="SVGID_3_" d="M750.4,772.7H265.5c-4.9,0-8.9-4-8.9-8.9V464.9c0-4.9,4-8.9,8.9-8.9h484.8c4.9,0,8.9,4,8.9,8.9v298.8
					C759.3,768.7,755.3,772.7,750.4,772.7z"/>
			</defs>
			<clipPath id="SVGID_4_">
				<use xlink:href="#SVGID_3_"  style="overflow:visible;"/>
			</clipPath>
			<g class="st0">
				<rect x="239" y="438.4" class="st1" width="537.9" height="352"/>
				<g id="dark_Logo_ABC_10_">
					<g>
						<path class="st2" d="M748.5,381.2h50c3.9,0,7,3.2,7,7v109.4c0,3.9-3.2,7-7,7h-50c-3.9,0-7-3.2-7-7V388.3
							C741.5,384.4,744.6,381.2,748.5,381.2z"/>
						<path class="st2" d="M798.5,647.3h-50H748c-1.4-3-4.7-4.6-8-3.9l-30.5,7c-3.8,0.9-6.2,4.7-5.3,8.5v0.1c0,0.1,0,0.2-0.1,0.2
							c-0.1,0-0.1,0-0.1-0.1c-24.6-31.4-47.9-59.6-48-59.6l0,0c-36.9-13.4-82.1,12.4-83.9,13.5l0,0c49.8,5,68.2-3.4,70.2-4.4l0,0
							c-38.1,33.6-38.4,55.6-38.4,56.5l0,0c30.5-10.5,44.4-53,44.9-54.5l0,0c33,39.9,64.1,86.1,64.1,86.1l0,0l11.1,48
							c1.1,4.6,5.2,7.9,10,8h64.4c3.9,0,7.1-3.2,7.1-7.1v-91.3C805.4,650.6,802.3,647.4,798.5,647.3z"/>
						<path class="st2" d="M669.1,506.2c0.9,3.8,4.7,6.1,8.4,5.3l30.5-7c3.8-0.9,6.2-4.7,5.3-8.5l-24.6-106.6
							c-0.9-3.8-4.7-6.1-8.5-5.3l-30.5,7c-3.8,0.9-6.2,4.7-5.3,8.4c0,0,0,0,0,0L669.1,506.2z"/>
						<path class="st2" d="M953.1,406.3c0,0-49.1,19.1-60.5,44.8s-25.8,54.4-32.5,63.1c0,0,3.2-31.5-29-75c0,0-3.2,58.3,24.7,82.7
							c-8.4,14.3-18.4,27.5-29.8,39.6c-7.4,8.5-14.3,17.6-20.5,27v-67.3c0-3.9-3.2-7-7-7l0,0h-50c-3.9,0-7,3.2-7,7v96.8l-22.9-99
							c-0.9-3.8-4.7-6.1-8.5-5.3l-30.5,7c-3.8,0.9-6.1,4.7-5.3,8.4l24.6,106.6c0.9,3.8,4.6,6.1,8.4,5.3c0,0,0,0,0,0l30.5-7
							c1.4-0.3,2.7-1.1,3.7-2.2c0.6,3.3,3.5,5.8,6.9,5.8h50c3.9,0,7.1-3.1,7.1-7c0,0,0-0.1,0-0.1v-18.4c0,0,14.7-26.2,41.3-56.3
							c55.5,23.1,78.8,6.6,78.8,6.6c-28.4-16.7-66.2-11.9-76-10.2c5.4-8.3,36.1-56.6,46.7-93.7C921.8,447.8,938.3,432.8,953.1,406.3
							z"/>
					</g>
				</g>
				<text transform="matrix(1 0 0 1 337.2561 601.95)" class="st3 st4 st5">Name:</text>
				<text transform="matrix(1 0 0 1 372.0676 502.9236)"><tspan x="0" y="0" class="st3 st4 st6">This is the official membership card for </tspan><tspan x="19.4" y="14.5" class="st3 st4 st6">members of the Asian Borrel Club.</tspan><tspan x="17.8" y="43.6" class="st3 st4 st6">This card offers various discounts </tspan><tspan x="74" y="58.1" class="st3 st4 st6">with our partners. </tspan></text>
				<text transform="matrix(1 0 0 1 367.5432 681.6033)"><tspan x="0" y="0" class="st3 st4 st6">Only valid if the name of the user is filled </tspan><tspan x="43.2" y="14.5" class="st3 st4 st6">in the space provided above.</tspan></text>
				<g>
					<text transform="matrix(1 0 0 1 309.2092 757.6736)" class="st7 st4 st8">Based in Amsterdam</text>
					<text transform="matrix(1 0 0 1 473.174 757.6746)" class="st3 st9 st8">2021-2022</text>
					<text transform="matrix(1 0 0 1 576.0471 757.6746)" class="st3 st4 st8">www.asianborrelclub.nl</text>
				</g>
				<rect x="337.3" y="607.3" class="st3" width="341.4" height="41"/>
			</g>
		</g>
		<g>
			<defs>
				<path id="SVGID_5_" d="M750.4,772.7H265.5c-4.9,0-8.9-4-8.9-8.9V464.9c0-4.9,4-8.9,8.9-8.9h484.8c4.9,0,8.9,4,8.9,8.9v298.8
					C759.3,768.7,755.3,772.7,750.4,772.7z"/>
			</defs>
			<clipPath id="SVGID_6_">
				<use xlink:href="#SVGID_5_"  style="overflow:visible;"/>
			</clipPath>
		</g>
	</g>
</g>
<g>
	
		<image style="overflow:visible;opacity:0.3;" width="744" height="558" xlink:href="EE009D3D.png"  transform="matrix(1 0 0 1 161 -18)">
	</image>
	<g>
		<g>
			<defs>
				<path id="SVGID_7_" d="M750.4,394.4H265.5c-4.9,0-8.9-4-8.9-8.9V86.7c0-4.9,4-8.9,8.9-8.9h484.8c4.9,0,8.9,4,8.9,8.9v298.8
					C759.3,390.5,755.3,394.4,750.4,394.4z"/>
			</defs>
			<clipPath id="SVGID_8_">
				<use xlink:href="#SVGID_7_"  style="overflow:visible;"/>
			</clipPath>
		</g>
		<g>
			<defs>
				<path id="SVGID_9_" d="M750.4,394.4H265.5c-4.9,0-8.9-4-8.9-8.9V86.7c0-4.9,4-8.9,8.9-8.9h484.8c4.9,0,8.9,4,8.9,8.9v298.8
					C759.3,390.5,755.3,394.4,750.4,394.4z"/>
			</defs>
			<clipPath id="SVGID_10_">
				<use xlink:href="#SVGID_9_"  style="overflow:visible;"/>
			</clipPath>
			<g class="st10">
				<rect x="239" y="60.1" class="st1" width="537.9" height="352"/>
				<g id="XMLID_2_">
					
						<image style="overflow:visible;opacity:0.3;" width="331" height="331" xlink:href="EE009D3F.png"  transform="matrix(1 0 0 1 514.4803 171.4803)">
					</image>
					<g>
						<path class="st11" d="M595,433.5c-48.5-46.9-49.8-124.3-2.8-172.8c46.9-48.5,124.3-49.7,172.8-2.8s49.8,124.3,2.8,172.8
							C720.9,479.1,643.5,480.4,595,433.5z"/>
					</g>
				</g>
				<g>
					<g>
						<path class="st11" d="M300.6,377.8c3.1,2.6,7.7,3.4,11.8,2.6c4.1-0.8,10.7-2.5,14.1-4.9v0c3.2,0.8,6.9,0.5,10.1-0.5
							c5.6-1.7,10.2-5.2,15.3-7.9c5-2.6,9.4-5.1,14.8-3.5l0.1-0.1c-2.7-2.6-7-3.3-10.9-2.9c-3.9,0.4-7.6,1.8-11.3,2.8
							c-0.9,0.2-1.7,0.4-2.6,0.6l0-0.1c0.2-3.1-2.5-5.2-4.7-7.5c-0.3-0.3-0.5-0.5-0.8-0.8l0,0c6.2-0.5,13.4-2.8,18.2-6.4
							c4.8-3.5,9-7.8,14.3-10.7c5.3-2.9,12.2-4.1,17.5-1.3c1.7,0.9,3.2,2.2,3.8,3.9s0.1,3.8-1.4,4.9c-1.6,1.1-4.1,0.7-5-0.9
							c1.4,2.8,6.5,4.9,9.6,3.7c3.1-1.2,5.7-2.9,4.6-5.8c2.6,4.9,1.2,11.3-3.2,14.9c9.1-1,17-7.9,18.7-16.1c0.1-0.3,0.1-0.6,0.2-0.8
							c2.5-4.8,7-8.8,12.2-11c5.2-2.2,11.4-2.7,16.9-1.3c1.8,0.5,3.9,1.6,3.8,3.3c-0.2,1.8-1.7,1.7-3.6,1.9
							c4.8,1.4,10.6-0.9,12.7-5.1c2.2-4.2,0.4-9.8-3.8-12.3c-3.2-1.9-7.4-2.1-11.2-1.8c-1,0.1-1.9,0.2-2.9,0.3l-0.1-0.6
							c0.8-3.6,2.8-8.7,5.3-11.6c7.6-2.8,16.1-3.8,24-1.8c1.8,0.4,3.6,1,5.1,2.1c1.4,1.1,2.5,2.8,2.3,4.5c-0.2,1.8-1.6,3.4-3.3,4.2
							c-1.7,0.8-3,1.7-3,1.7c3.5,1.5,7.9,0,10-2.9c0.9-1.2,1.4-2.6,1.5-4.1l1.6,0c1.5,0.7,3.4,0.7,5,0.3c1.7-0.4,3.1-1.3,4.5-2.3
							c1.7-1.3,3.3-2.8,3.8-4.8c0.4-1.3,0-2.8-0.8-3.9l0,0c2.7-0.2,6.7,0.1,9.1,1.2c2.4,1.1,4.4,3.4,4.1,5.9c-0.3,3-3.6,5.1-4.3,8
							c-0.6,2.6,0.9,5.3,3.3,6.8c2.3,1.5,5.3,2,8.1,2v-0.1c-1.6-0.7-4.5-2.9-4.7-4.5c-0.2-1.6,0.2-3.3,1-4.8
							c1.5-2.9,4.3-5.3,7.5-6.5c3.3-1.2,7.7-0.8,11.1,0.3c-1.8,0.9-2.4,3.2-1.6,5c0.8,1.7,2.8,2.9,4.8,3.2c2,0.3,4.1-0.2,6-0.9
							c1.2-0.4,2.3-1,3.3-1.7c-1.7,2.6-1.5,7.8-0.3,10.6c0.9,2.1,2.6,4,4.7,5.1c-1.8,1.9-0.7,5.3,1.7,6.6c2.5,1.4,5.6,1.1,8.4,0.4
							c2.8-0.7,5.5-1.8,8.4-1.9c2.9-0.1,6.1,1,7.2,3.5c0.9,2.1,0,4.6-1.5,6.3c3.1-2.5,9.6-4.7,13.7-4.4l0,0c1.4,1.2,3.1,2,5,2.5
							c5.4,1.3,11.5-1,14.4-5.4h0c-0.6,2.8,0.1,5.9,1.8,8.3c0.6,0.9,1.4,1.8,2.2,2.5c1.9,1.7,4.3,2.8,6.8,3.4
							c-4.8,0.2-8.1,3.3-11.4,6.5c-2.4,2.4-4.6,5.1-5.5,8.2c-1,3-0.8,6.2,0,9.2c1.4,5.6,4.9,10.7,9.5,14.6c2.6,2.2,5.7,4.1,8.9,5.5
							c8.9,3.8,19.4,4.1,28.8,1.8c3.4,4.2,7.5,8.1,11.8,10.3c7.2-7.2,2.7-12.9-1.4-14.4c2.8-1.3,5-3.7,6-6.4c1-2.7,0.9-7.3-0.3-9.9
							l0-0.4c3.5,0.3,6.9,0.2,10.1-0.3l0.1,0c-1.4,2.8-1.3,6.2,0.4,8.9c2.4,3.7,7.9,5.5,12.3,4c1.2-0.4,2.4-1,3.7-0.8
							c1,0.2,1.8,0.9,2.7,1.4c1.9,1,4.5-0.5,6.3-1.6c1.4,1.9,3.6,3.3,6.1,3.9c3.1,0.8,7.7-1.1,10.3-2.9c-2.7,0.9-5.8-0.6-7.7-2.6
							c-1.9-2-3-4.6-4.6-6.8s-4.6-5.3-7.5-5.4c3.2-0.4,6.3,1.1,9.2,2.3c2.9,1.2,7.3,1.4,10.2,0.2c2.5,2.2,5,4.4,8.1,5.7
							c3,1.4,8.4,0.4,12.1-1.5c1.3-0.4,2.4-1.2,3.1-2.2c-0.7,0.8-1.8,1.6-3.1,2.2c-2.2,0.8-4.9,0.6-7.1-0.4
							c-3.4-1.6-5.6-4.6-7.5-7.6c-1.9-3-3.6-6.2-6.4-8.6c-0.2-0.2-0.5-0.4-0.8-0.6l0,0c3.1,0.7,6.4,0.7,9.5,0.2
							c4.6,2.5,11.6,5.6,16.8,4.9c2.7-0.4,5.4-1.4,7.5-3.1c1.8,2.1,5.5,4.8,8.4,4.6c2.9-0.2,5.7-1.3,7.2-3.5v0
							c-1.9,0.1-4.3,0-5.1-1.6c-0.6-1.2,0.2-2.6,1.2-3.6c1-0.9,2.3-1.6,3.1-2.7c1.9-2.3-1.3-6.1-4-7.6c1-0.7,1.8-1.5,2.4-2.5
							c1.2-2,1.1-3.8,0.2-5.9c-1.4,2.7-4.6,3.6-7.8,3.5c-3.2-0.1-6.3-1.4-9.1-2.8c-1-0.5-2.1-1-3.1-1.5l0,0c-2.1-3.7-2.4-7.8-1-11.7
							v-0.1c2.3-0.1,4.5-0.5,6.3-1.8h0c-0.1,1.9,0.3,3.8,1.3,5.4c1.7,2.8,5.1,4.7,8.6,4.9c-1.4-3.4,0.7-7.4,4.1-9.4
							c3.4-1.9,8.2-2.3,12.1-1.7l0,0c0.1,0.2,0.3,0.4,0.4,0.5c1.8,2.1,4.4,3.6,7.2,4.2v41.7v11.8v11.1c0.1,0,0.1,0.1,0.1,0.1l0,19.2
							H468.5h-44.6H308c-12.4-10.9-20.6-20-21.8-23.3c-1.1-3.3-0.7-7.2,1.5-10c2.2-2.8,8.5-2.7,12.1-1.8
							C300.1,377.3,300.3,377.5,300.6,377.8z"/>
						<path class="st3" d="M766.8,294.9c-0.7,0.1-1.6,0.2-2.3-0.1c-0.7-0.3-1.3-1-1.1-1.7c0.1-0.5,0.7-0.9,1.2-1.2
							c1-0.5,3.6-0.8,3.6-0.8c0.7,0,1.3,0.6,1.4,1.2c0.1,0.7-0.3,1.3-0.9,1.7C768.2,294.6,767.5,294.8,766.8,294.9z"/>
						<path class="st3" d="M750.2,292.7L750.2,292.7c-1.4,1.1-3,1.8-4.8,2.2c-2.5-0.5-5.2-0.4-7.7,0.2l0-0.1
							C740.3,290.9,745.8,290.6,750.2,292.7z"/>
						<path class="st11" d="M736.6,326.2c-1.4,3.9-1.1,8.1,1,11.7l0,0c-0.9-0.4-1.9-0.8-2.9-1.1l0-0.1c-2-3.3-2.6-7.2-2.1-10.9v0
							c0.6,0.1,1.2,0.2,1.9,0.2C735.2,326.1,735.9,326.2,736.6,326.2L736.6,326.2z"/>
						<path class="st11" d="M732.1,376.8c1.3-0.7,2.4-1.4,3.1-2.2C734.4,375.6,733.3,376.4,732.1,376.8z"/>
						<path class="st11" d="M730.6,336c-2.3-2.7-2.9-7.4-2.5-10.8l0-0.2c1.5,0.3,3,0.6,4.5,0.8v0c-0.5,3.7,0.1,7.6,2.1,10.9l0,0.1
							c-1-0.3-2-0.6-3-0.7C731.4,336.1,731,336.1,730.6,336z"/>
						<path class="st12" d="M725.6,347.1c-1.4-2.9-5.6-4.3-8.6-2.7l0,0c1.9-1.1,2.6-1.2,4.2-2.6c0.8-0.8,0.8-1.9,0.2-3l0.1,0
							c1.8-2.1,6-3,9.1-2.8c0.4,0,0.8,0.1,1.1,0.1c1,0.2,2,0.4,3,0.7c1,0.3,1.9,0.7,2.9,1.1c1.1,0.5,2.1,1,3.1,1.5
							c2.9,1.4,5.9,2.7,9.1,2.8c3.2,0.1,6.4-0.8,7.8-3.5c0.9,2.1,1,3.9-0.2,5.9c-0.6,1-1.4,1.8-2.4,2.5c2.7,1.4,5.8,5.3,4,7.6
							c-0.9,1.1-2.1,1.8-3.1,2.7c-1,0.9-1.7,2.4-1.2,3.6c0.8,1.6,3.2,1.7,5.1,1.6v0c-1.5,2.3-4.4,3.4-7.2,3.5
							c-2.9,0.2-6.6-2.5-8.4-4.6c-2.1,1.6-4.8,2.7-7.5,3.1c-5.2,0.7-12.2-2.4-16.8-4.9c4.2-0.8,8.2-2.6,11.3-5.2l0,0
							c-2.8,2.2-4,2.1-7.7,1.5c-0.6-0.1-1.2-0.2-1.8-0.4l0-0.1C725,354.5,727,350,725.6,347.1z"/>
						<path class="st11" d="M719.6,327.4c-1.6,2.4-4.4,3.8-7.4,4.4l0-0.1c-0.1-2.7,2-5.5,4.8-6.6c2.7-1.1,5.9-1,8.8-0.5
							c0.8,0.1,1.6,0.3,2.5,0.4l0,0.2c-0.5,3.4,0.2,8.1,2.5,10.8c-3.2-0.2-7.3,0.7-9.1,2.8l-0.1,0c-0.4-0.9-1.2-1.7-2-2.2
							c-1.8-1-4.5-0.8-6.1,0.4C716.5,334.7,718.9,331.1,719.6,327.4L719.6,327.4z"/>
						<path class="st12" d="M637.3,381.8c-2.3-5.9-2.5-12.8,0.5-18.4c1.8-3.4,5-6.3,8.7-8l0,0c1.7-4.8,15.4-9.2,23.4-5.6l0,0.1
							c4.2-2.5,9.4-3.7,14.4-3c2.2,0.3,4.3,0.9,6,2.1c1.7,1.2,3.6,2.9,3.8,5l0,0c0.9-3.3,4.9-5.3,8.7-5.3s7.2,1.6,10.5,3.2
							c2.7,1.4,5.4,2.9,8.4,3.7c0.6,0.2,1.2,0.3,1.8,0.4c3.7,0.6,4.9,0.7,7.7-1.5l0,0c-3.1,2.6-7.1,4.4-11.3,5.2
							c-3.2,0.6-6.4,0.5-9.5-0.2l0,0c0.3,0.2,0.5,0.4,0.8,0.6c2.8,2.3,4.5,5.5,6.4,8.6c1.9,3,4.1,6.1,7.5,7.6c2.2,1,4.9,1.2,7.1,0.4
							c-3.7,1.9-9.1,2.8-12.1,1.5c-3.1-1.4-5.6-3.6-8.1-5.7c-2.9,1.2-7.2,1-10.2-0.2c-2.9-1.2-6-2.6-9.2-2.3
							c2.9,0.1,5.9,3.2,7.5,5.4s2.7,4.8,4.6,6.8c1.9,2,5,3.5,7.7,2.6c-2.6,1.8-7.2,3.6-10.3,2.9c-2.4-0.6-4.6-2-6.1-3.9
							c-1.8,1.2-4.4,2.7-6.3,1.6c-0.9-0.5-1.7-1.2-2.7-1.4c-1.3-0.2-2.5,0.4-3.7,0.8c-4.4,1.5-9.9-0.3-12.3-4
							c-1.7-2.7-1.8-6.1-0.4-8.9l-0.1,0c-3.2,0.5-6.7,0.6-10.1,0.3l0,0.4c1.3,2.6,1.4,7.2,0.3,9.9c-1,2.7-3.2,5.1-6,6.4
							c4.1,1.5,8.6,7.2,1.4,14.4c-4.3-2.2-8.4-6.1-11.8-10.3C640.9,388.9,638.4,384.7,637.3,381.8z"/>
						<path class="st12" d="M764.5,294.8c0.7,0.3,1.5,0.2,2.3,0.1c0.7-0.1,1.4-0.3,2-0.7c0.6-0.4,1-1.1,0.9-1.7
							c-0.1-0.7-0.7-1.3-1.4-1.2c0,0-2.5,0.3-3.6,0.8c-0.5,0.3-1.1,0.6-1.2,1.2C763.3,293.8,763.8,294.5,764.5,294.8z M737.8,295.1
							c2.5-0.6,5.2-0.7,7.7-0.2c1.8-0.3,3.4-1.1,4.8-2.1l-0.1-0.1C745.8,290.6,740.3,290.9,737.8,295.1L737.8,295.1z M684.5,333.5
							c-2.4-0.3-4.8-0.4-7.2-0.3v-0.1c2.9-10.2,10.6-20.3,20.6-25.3c6-3,12.8-4.7,18.4-8.4c4.7-3.1,8.4-7.5,13.4-10.1
							c7.8-4.1,18.9-3.5,26.6-2.1l0.1,0c2.7-2.7,5.5-5.3,9.1-6.2c3.7-0.9,7.5-0.3,11.3-0.5l0,28.4c0,0,0,0-0.1,0v19.4
							c-2.8-0.6-5.4-2.1-7.2-4.2c-0.1-0.2-0.3-0.4-0.4-0.5l0,0c-3.9-0.6-8.7-0.2-12.1,1.7c-3.4,1.9-5.5,5.9-4.1,9.4
							c-3.5-0.1-6.9-2-8.6-4.9c-1-1.6-1.4-3.5-1.3-5.4h0c-1.8,1.3-4,1.8-6.3,1.8c-0.7,0-1.4,0-2.1-0.1c-0.6,0-1.2-0.1-1.9-0.2
							c-1.5-0.2-3-0.5-4.5-0.8c-0.8-0.2-1.6-0.3-2.5-0.4c-2.9-0.5-6.1-0.6-8.8,0.5c-2.8,1.1-4.9,3.8-4.8,6.6l0,0.1
							c-1.9,0.4-3.9,0.5-5.9,0.4c-5-0.3-10-1.5-15-0.7C689,331.8,686.8,332.6,684.5,333.5L684.5,333.5z"/>
						<path class="st12" d="M606.4,385.7c7.7-3.9,13.2-11.1,17.7-18.1c4.5-7,8.7-14.6,15.1-20.1l0,0c0.4,0.1,0.9,0.1,1.3,0.1
							c4.7,0.4,9.4-0.5,13.8-1.9l0,0c-2.7-0.4-5.2-2.1-6.4-4.4c8.4-4.9,19.1-7.8,29.3-8.1c2.5-0.1,4.9,0,7.2,0.3l0.1,0.1
							c2.2-1,4.5-1.8,6.8-2.2c4.9-0.8,10,0.5,15,0.7c1.9,0.1,3.9,0,5.9-0.4c3.1-0.6,5.8-2,7.4-4.4l0,0c-0.7,3.7-3.2,7.4-6.4,9.7
							c1.6-1.2,4.4-1.4,6.1-0.4c0.8,0.5,1.6,1.3,2,2.2c0.5,1.1,0.6,2.2-0.2,3c-1.6,1.4-2.3,1.5-4.2,2.6l0,0c3-1.6,7.2-0.3,8.6,2.7
							c1.4,2.9-0.6,7.3-3.9,8.4l0,0.1c-2.9-0.8-5.7-2.3-8.4-3.7c-3.3-1.7-6.7-3.2-10.5-3.2s-7.7,1.9-8.7,5.3l0,0
							c-0.2-2-2.1-3.7-3.8-5c-1.7-1.2-3.9-1.8-6-2.1c-5-0.6-10.2,0.5-14.4,3l0-0.1c-7.9-3.6-21.7,0.8-23.4,5.6l0,0
							c-3.7,1.7-6.8,4.6-8.7,8c-3,5.7-2.9,12.5-0.5,18.4c1.1,2.9,3.6,7.1,6.9,11.1c-9.5,2.4-19.9,2-28.8-1.8
							C612.1,389.8,609,388,606.4,385.7z"/>
						<path class="st12" d="M545.8,325.4c-2.1-1.2-3.8-3-4.7-5.1c-1.2-2.9-1.4-8,0.3-10.6c1.4-0.9,2.6-2,3.5-3.4
							c1.5-2.3,2.1-5.4,0.6-7.8c-1.5-2.4-4.5-3.9-7.3-4c3.1-0.6,6.4,0.3,8.7,2.3c2.3,2,3.5,5.2,3,8.1c-0.6,3.6-3.5,6.8-2.8,10.4
							c0.7,3.1,4.2,5.2,7.6,5.5c3.4,0.4,6.9-0.6,10.2-1.5c3.3-0.9,6.8-1.7,10.2-1c3.2,0.6,6.3,2.5,9.5,2.2c2.4-0.2,4.5-1.7,5.5-3.7
							c1-2,1-5.1-0.4-6.8l-0.1,0.1c-3,2.8-8,3.7-11.9,2.1c-4-1.6-6.7-5.4-6.6-9.4c0-1.1,0.2-2.1,0.5-3.2l1.5,0.2
							c5.5-1.7,11.7-1.2,16.9,1.1c4.2-0.8,9.2-2.9,13.4-2c4.2,0.9,9.3,3.5,9.8,7.5c7.1-1.4,15,1.3,19.2,6.7c0.4,0.4,0.7,0.9,1,1.4
							c2.6,0.8,6.2,0.6,9,0.7c2.8,0.1,5.7-0.6,7.6-2.5c1.8-1.7,2.6-4.5,1.4-6.6c2.2,3.1,3.1,6.9,3,10.6c-0.1,3.7-2,7.5-5.3,9.5
							c-2.2,1.4-5.2,1.9-7.8,1.3l0,0c2.7,0.7,4.1,3.8,4.7,6.3c0.5,2.5,0.5,5.1,1.8,7.4c1.2,2.3,3.7,3.9,6.4,4.4l0,0
							c-4.4,1.4-9.2,2.3-13.8,1.9c-0.4,0-0.9-0.1-1.3-0.1c-4.2-0.6-8.3-2.2-11.2-5.1c-0.2-0.2-0.4-0.4-0.6-0.6
							c-0.1,1.7-1.7,3.9-3.2,4.8c-1.5,0.9-3.4,1.2-5.2,1.2c-1.7,0-3.5-0.1-5.2-0.6c-2.5-0.6-4.9-1.8-6.8-3.4
							c-0.8-0.7-1.6-1.6-2.2-2.5c-1.7-2.5-2.4-5.5-1.8-8.3h0c-2.8,4.4-9,6.7-14.4,5.4c-1.9-0.5-3.5-1.3-5-2.5l0,0
							c-4.1-0.3-10.6,1.8-13.7,4.4c1.5-1.8,2.5-4.2,1.5-6.3c-1.1-2.5-4.3-3.6-7.2-3.5c-2.9,0.1-5.6,1.2-8.4,1.9
							c-2.8,0.7-5.9,1-8.4-0.4C545.1,330.7,543.9,327.3,545.8,325.4z"/>
						<path class="st12" d="M456.9,262.1c3.5-0.4,6.7-2.6,8.1-5.5c0.2-0.3,0.3-0.6,0.4-0.9c4.5-0.5,10-1.6,13.9-3.8
							c-0.6,2.5-1.7,4.9-3.3,7c2.9-1.7,7-2.8,10.4-3.4c3.4-0.6,7.4,0.1,10.4,1.7l0,0.1c6.4-2.9,13.4-4.7,20.5-5.1
							c3-0.2,6.4,0,8.6,1.9c1.2,1,1.9,2.5,2,4h0.1c7.7-2.9,18.4-1.8,24.9,3c2.5,1.9,4.7,4.3,5.6,7.2c0.4,1.4,0.6,2.8,0.4,4.2
							c4.3-1.7,10.8-1.2,13.9,2c3.1,3.2,4.2,7.8,3.9,12.1c-0.3,4.3-1.6,9.4-3.4,13.3l-1.5-0.2c-0.3,1.1-0.5,2.1-0.5,3.2
							c-0.1,4,2.6,7.8,6.6,9.4c4,1.6,8.9,0.7,11.9-2.1l0.1-0.1c1.4,1.7,1.3,4.8,0.4,6.8c-0.9,2-3.1,3.4-5.5,3.7
							c-3.3,0.3-6.3-1.6-9.5-2.2c-3.4-0.6-6.9,0.2-10.2,1c-3.3,0.9-6.7,1.8-10.2,1.5c-3.4-0.4-6.9-2.4-7.6-5.5
							c-0.8-3.5,2.1-6.8,2.8-10.4c0.5-2.9-0.6-6.1-3-8.1c-2.3-2-5.7-2.9-8.7-2.3c2.7,0,5.8,1.6,7.3,4c1.5,2.4,0.9,5.5-0.6,7.8
							c-0.9,1.3-2.1,2.5-3.5,3.4c-1,0.7-2.2,1.2-3.3,1.7c-1.9,0.7-4,1.2-6,0.9c-2-0.3-4-1.4-4.8-3.2c-0.8-1.7-0.2-4.1,1.6-5
							c-3.3-1.1-7.8-1.6-11.1-0.3c-3.3,1.2-6,3.6-7.5,6.5c-0.8,1.5-1.3,3.2-1,4.8c0.2,1.6,3.1,3.8,4.7,4.5v0.1c-2.8,0-5.8-0.5-8.1-2
							c-2.3-1.5-3.9-4.2-3.3-6.8c0.7-2.9,3.9-5,4.3-8c0.3-2.5-1.6-4.8-4.1-5.9c-2.4-1.1-6.5-1.4-9.1-1.2l0,0
							c0.9,1.1,1.2,2.6,0.8,3.9c-0.5,2-2.1,3.5-3.8,4.8c-1.4,1-2.8,1.8-4.5,2.3c-1.7,0.4-3.5,0.4-5-0.3l-1.6,0
							c0.2-2-0.2-4.1-1.2-5.9c-1.7-3.1-4.8-5.5-8.3-6.9c-3.5-1.4-7.3-2-11.1-2.3c-7.1-0.6-14.5-0.3-21.3,1.5l0-0.1
							c0.8-5.2,0.2-12.5-3.4-16.7l0,0c0,0,0-0.1,0.1-0.1c2.9-4.6,1.6-10.7,0.2-15.9l0,0c5.5-5,14-7.1,21.5-5.4
							c1,0.2,2.1,0.6,2.7,1.4C459.5,256.9,458.1,261.4,456.9,262.1L456.9,262.1z M554.4,288.3c0.6-0.2,0.8-1,0.8-1.6
							c0-3.2-2.4-7.2-5.7-7.4c0,0-1.9-0.1-2.5,0.3c-0.6,0.4-0.8,1.2-0.6,1.8c0.3,1.1,1.6,1.6,2.6,2.3c1.6,1.2,2.4,3.2,4.1,4.3
							C553.4,288.3,553.9,288.5,554.4,288.3z M496.8,285.7c0-0.5-0.3-1-0.6-1.5c-1-1.5-2.6-2.7-4.3-3.4c0,0-2.2-1.1-3.1-0.7
							c-0.6,0.2-1,0.7-1.1,1.3c-0.2,0.5-0.1,1.1,0,1.7c0.4,1.7,1.8,3.1,3.5,3.7c0,0,2.5,0.8,3.5,0.7
							C495.7,287.3,496.8,286.6,496.8,285.7z"/>
						<path class="st3" d="M555.2,286.7c0,0.6-0.2,1.4-0.8,1.6c-0.5,0.1-1-0.1-1.3-0.3c-1.7-1.1-2.5-3.1-4.1-4.3
							c-1-0.7-2.3-1.2-2.6-2.3c-0.2-0.6,0.1-1.4,0.6-1.8c0.6-0.4,2.5-0.3,2.5-0.3C552.7,279.5,555.1,283.5,555.2,286.7z"/>
						<path class="st3" d="M496.2,284.2c0.3,0.4,0.6,0.9,0.6,1.5c0,1-1.1,1.7-2.1,1.8c-1,0.1-3.5-0.7-3.5-0.7
							c-1.7-0.6-3.1-2-3.5-3.7c-0.1-0.5-0.2-1.1,0-1.7c0.2-0.5,0.6-1,1.1-1.3c0.9-0.4,3.1,0.7,3.1,0.7
							C493.7,281.5,495.2,282.7,496.2,284.2z"/>
						<path class="st11" d="M434.2,276c3.6,4.2,4.2,11.5,3.4,16.7l0,0.1c-2.5,0.6-5,1.5-7.3,2.5l0-0.1c-0.6-0.9-1.3-1.6-2-2.3
							c4-3.1,4.8-10.4,3.3-13.5l0,0C432.5,278.3,433.4,277.2,434.2,276L434.2,276z"/>
						<path class="st11" d="M412.3,287.5c2.8-1,5.8-1.2,8.6-2c4.1-1.1,7.8-3.3,10.5-6.2l0,0c1.5,3.1,0.7,10.4-3.3,13.5
							c-4.1-3.7-11.1-5.5-17.4-4.8C411.3,287.9,411.8,287.7,412.3,287.5z"/>
						<path class="st11" d="M395.9,308.2c0-0.1,0-0.3,0-0.4C395.9,308,395.9,308.1,395.9,308.2z"/>
						<path class="st3" d="M387.9,309c0.4,0.8,0.5,1.8-0.1,2.4c-0.5,0.4-1.3,0.5-2,0.2c-0.7-0.2-1.2-0.7-1.8-1
							c-2.3-1.6-5.2-2.7-8.1-2.9c-0.8-0.1-1.7-0.2-2-0.9c-0.2-0.4,0-0.9,0.4-1.2c0.3-0.3,1.6-0.8,1.6-0.8c2.2-1,4.8-1.1,7-0.3
							S387,307,387.9,309z"/>
						<path class="st12" d="M395.9,307.8c0,0.1,0,0.3,0,0.4C395.9,308.1,395.9,308,395.9,307.8z M239.2,352.3v-23v-6.9V313v-48.4
							c10.8-9.3,25.9-13.7,40.6-13.6c15.3,0.2,30.3,5.1,43.4,12.4c8.7,4.8,16.6,10.7,25.3,15.5c0.4,0.2,0.8,0.4,1.2,0.7
							c0,0,0.1,0,0.1,0c0,0,0,0,0,0c0.6,0.3,1.2,0.6,1.8,0.8c-0.5-0.2-1-0.4-1.4-0.7c0.4,0.2,0.9,0.3,1.3,0.4h0
							c3.6,0.9,7.6-0.5,10.9-2.4c3.9-2.2,6.8-5.6,9.7-8.8c2.9-3.3,7.5-8.1,11.4-10.2l0,0c-0.2-0.2-0.4-0.4-0.6-0.7
							c-0.1-0.2-0.2-0.4-0.3-0.5c-0.7-1.2-0.9-2.6-0.9-3.9c-0.1-4.1,2-8.2,5.5-10.8c3.5-2.6,10.1-3.5,14.5-2.7
							c-4,0.6-7.5,3.1-9.2,6.5c-1.7,3.4-0.6,7.4,1.5,10.5c3.2-2,6.4-4,9.8-5.5c3.5-1.5,7.3-2.5,11.1-2.4c1,0,2.1,0.2,3.1,0.4
							c-0.3-1.7-0.3-5.3,0.9-6.7c1.2-1.4,2.8-2.4,4.5-3.2c1.7-0.9,3.5-1.8,5.5-2.1c2-0.4,4.7,0.2,6.4,1.2c-1.8,0.4-3.6,0.8-5.2,1.6
							c-1.6,0.8-3,2.2-3.3,3.8c-0.3,1.7,0.5,5.4,2.2,5.9c5.5-4.3,11.8-7.3,19.2-8c6-0.6,12.8,0.5,16.1,5.1c1.7,2.4,2.2,5.6,1.2,8.4
							c-0.1,0.3-0.2,0.6-0.4,0.9c-1.5,2.9-4.6,5.1-8.1,5.5l0,0c1.1-0.7,2.6-5.2,1.7-6.2c-0.6-0.8-1.7-1.1-2.7-1.4
							c-7.5-1.7-16,0.4-21.5,5.4l0,0c1.5,5.1,2.7,11.3-0.2,15.9c0,0,0,0.1-0.1,0.1c-0.8,1.2-1.6,2.3-2.7,3.4
							c-2.8,2.9-6.5,5.1-10.5,6.2c-2.8,0.8-5.8,1-8.6,2c-0.5,0.2-1,0.4-1.5,0.6c6.3-0.8,13.3,1.1,17.4,4.8c0.8,0.7,1.5,1.5,2,2.3
							l0,0.1c2.3-1,4.8-1.9,7.3-2.5c6.9-1.7,14.2-2.1,21.3-1.5c3.8,0.3,7.6,0.9,11.1,2.3c3.5,1.4,6.6,3.8,8.3,6.9
							c1,1.8,1.4,3.9,1.2,5.9c-0.2,1.5-0.7,2.9-1.5,4.1c-2.1,2.9-6.5,4.4-10,2.9c0,0,1.3-0.8,3-1.7c1.7-0.8,3.2-2.4,3.3-4.2
							c0.1-1.7-0.9-3.4-2.3-4.5c-1.4-1.1-3.2-1.7-5.1-2.1c-7.9-1.9-16.4-1-24,1.8c-2.5,2.8-4.5,8-5.3,11.6l0.1,0.6
							c1-0.1,1.9-0.3,2.9-0.3c3.9-0.3,8-0.2,11.2,1.8c4.2,2.5,5.9,8.1,3.8,12.3c-2.2,4.2-7.9,6.5-12.7,5.1c1.9-0.3,3.4-0.2,3.6-1.9
							c0.2-1.7-1.9-2.9-3.8-3.3c-5.6-1.4-11.7-0.9-16.9,1.3c-5.2,2.2-9.7,6.2-12.2,11c0,0.3-0.1,0.6-0.2,0.8
							c-1.7,8.2-9.6,15.1-18.7,16.1c4.4-3.6,5.8-10,3.2-14.9c1.2,2.9-1.5,4.7-4.6,5.8c-3.1,1.2-8.2-1-9.6-3.7c0.9,1.6,3.5,1.9,5,0.9
							c1.6-1.1,2-3.1,1.4-4.9s-2.1-3-3.8-3.9c-5.3-2.8-12.2-1.6-17.5,1.3c-5.3,2.9-9.5,7.1-14.3,10.7c-4.8,3.5-12,5.9-18.2,6.4l0,0
							c0.2,0.3,0.5,0.6,0.8,0.8c2.3,2.3,5,4.4,4.7,7.5l0,0.1c0.9-0.2,1.8-0.4,2.6-0.6c3.8-1,7.4-2.4,11.3-2.8
							c3.9-0.4,8.2,0.3,10.9,2.9l-0.1,0.1c-5.3-1.6-9.8,0.9-14.8,3.5c-5.1,2.6-9.8,6.1-15.3,7.9c-3.2,1-6.9,1.3-10.1,0.5v0
							c-3.3,2.4-9.9,4.2-14.1,4.9c-4.1,0.8-8.8,0-11.8-2.6c-0.3-0.2-0.5-0.5-0.8-0.7c-3.7-1-9.9-1.1-12.1,1.8
							c-2.2,2.8-2.6,6.7-1.5,10c1.1,3.3,9.4,12.4,21.8,23.3h-68.7V352.3z M387.8,311.5c0.7-0.6,0.5-1.6,0.1-2.4
							c-0.9-2-2.8-3.7-5.1-4.5s-4.9-0.6-7,0.3c0,0-1.2,0.4-1.6,0.8c-0.3,0.3-0.5,0.8-0.4,1.2c0.3,0.7,1.2,0.8,2,0.9
							c2.9,0.3,5.8,1.3,8.1,2.9c0.6,0.4,1.1,0.8,1.8,1C386.5,311.9,387.3,311.9,387.8,311.5z M357.5,304.8c0.2-1.1-0.3-2.3-1.4-2.8
							l0,0c-1-0.4-2.1-0.7-3.2-0.7c-1.1,0.1-2.2,0.6-2.6,1.6c-0.3,0.7-0.1,1.5,0.4,2.1c0.4,0.6,1.1,1,1.8,1.4
							c0.8,0.4,1.6,0.6,2.5,0.6C356.2,306.7,357.2,305.9,357.5,304.8z M304.6,286.5c1-0.7,1-2.2,0.4-3.2c-0.6-0.9-1.6-1.5-2.6-2
							c-1.6-1-3.5-1.6-5.5-1.5c-1.2,0-2.6,0.5-3,1.6c-0.2,0.7,0,1.5,0.5,2.1c0.5,0.6,1.2,1,1.9,1.3c1.5,0.7,3.1,1.4,4.8,1.9
							C302.4,286.9,303.7,287.1,304.6,286.5z M292.3,270.6c0.1-0.8-0.4-1.7-1.2-1.9l-0.1,0c-2.4-0.4-5-0.2-7.3,0.5
							c-1,0.3-2,0.9-2,1.8c0,0.5,0.4,1,0.8,1.3c0.5,0.3,1,0.5,1.6,0.6c1.4,0.3,2.9,0.3,4.3,0.2c0.9-0.1,1.7-0.2,2.5-0.7
							C291.5,272.1,292.1,271.4,292.3,270.6z"/>
						<path class="st3" d="M356.1,302c1,0.5,1.6,1.7,1.4,2.8c-0.2,1.1-1.3,2-2.5,2.1c-0.8,0.1-1.7-0.2-2.5-0.6
							c-0.7-0.3-1.4-0.8-1.8-1.4c-0.4-0.6-0.6-1.4-0.4-2.1c0.4-1,1.5-1.5,2.6-1.6C354,301.2,355.1,301.6,356.1,302L356.1,302z"/>
						<path class="st12" d="M351.4,280.3c-0.4-0.1-0.9-0.3-1.3-0.4c-0.1,0-0.2-0.1-0.3-0.2C350.4,279.9,350.9,280.1,351.4,280.3z"/>
						<path class="st12" d="M349.8,279.7c0.1,0.1,0.2,0.1,0.3,0.2c0.5,0.2,1,0.4,1.4,0.7C351,280.2,350.4,280,349.8,279.7
							C349.8,279.7,349.8,279.7,349.8,279.7z"/>
						<path class="st12" d="M349.7,279.6c0,0,0.1,0,0.1,0.1C349.8,279.7,349.8,279.7,349.7,279.6
							C349.7,279.6,349.7,279.6,349.7,279.6z"/>
						<path class="st11" d="M279.8,251.1c-14.8-0.2-29.8,4.3-40.6,13.6v-9.8V240h0.6c0.9-1.5,9.2-14.9,21.1-15.2
							c4.5-0.1,10.3,1.7,11.2,2c5.2,1.7,7.7,3.5,10.4,4.8c4.2,1.9,11.1,3.4,22.4,0.6c-7.5,1.2-15.6-1.6-20.3-7.1
							c5.5,2.3,16.8,3.8,21.2,3.1s9.2-1,13.2,0.9c3.9,2,6.3,6.9,3.8,10.3l0.1,0.1c2.2-0.9,4.7-7.5,4.7-9.7c0.1-3.7-1.5-6.9-4.6-8.8
							c4.1,1.3,7.7-0.3,11.5-2.1l0.1,0.1c-2.2,6.7-2,14.3,0.5,20.9c2.5,6.5,7.7,12.3,14.4,15.5c10,4.7,22,3.5,33.1,2.2l0,0
							c0.1,0.2,0.2,0.4,0.3,0.5c0.2,0.2,0.4,0.5,0.6,0.7l0,0c-4,2.1-8.6,6.9-11.4,10.2c-2.9,3.3-5.8,6.6-9.7,8.8
							c-3.3,1.9-7.3,3.3-10.9,2.4h0c-0.5-0.2-1.1-0.4-1.6-0.6c0,0,0,0,0,0c0,0-0.1,0-0.1-0.1c0,0,0.1,0,0.1,0c0,0-0.1,0-0.1,0
							c-0.4-0.2-0.8-0.4-1.2-0.7c-8.7-4.8-16.6-10.6-25.3-15.5C310.1,256.2,295.1,251.3,279.8,251.1z"/>
						<path class="st3" d="M302.5,281.3c1,0.5,2,1.1,2.6,2c0.7,1,0.6,2.5-0.4,3.2c-0.9,0.7-2.3,0.4-3.4,0.1
							c-1.6-0.5-3.2-1.1-4.8-1.9c-0.7-0.4-1.4-0.7-1.9-1.3c-0.5-0.6-0.8-1.4-0.5-2.1c0.4-1.1,1.8-1.5,3-1.6
							C298.9,279.7,300.9,280.2,302.5,281.3z"/>
						<path class="st12" d="M251,194.6c0.6-3.7,2.9-7.2,6.3-9.2c2.5-1.5,5.4-2.2,8.4-2.1v0c5.5-1.9,11-3.3,16.6-3.4
							c2.7-4.3,10.9-6.7,16.3-5l0-0.1c3.2-3.5,10.4-7.1,14.7-4.8c-4.6,0.8-9,5.1-9.6,9.4c4.2-1,9.2-1.7,13.9-1.7
							c5.2-4.1,13.3-8.2,19.9-6.5c5.2-4.3,13-6,19.8-4c-2.9,2.3-5.7,4.4-8.7,6.2c6.3-1,10.9,4.3,12.6,6.8
							c-7.8-2.5-16.1-2.6-24.5,1.1c2.5,0.8,4.6,2.4,5.9,4.4c-0.7-0.2-1.4-0.5-2.2-0.7c-4.1-0.8-9.5,1.9-11.1,5.6
							c0.5-0.1,1-0.1,1.5-0.1c2.6,0.1,5.4,1.4,6.5,3.5l0,0c5.1-4.2,11.9-6.7,18.8-6.8c6.7-0.1,13.5,1.9,18.8,5.8
							c-8.3-2.8-16.4-1.3-24.2,2.2c-1.3,3.4-3.4,7-6.5,9.1c-3.2,2.2-6.8,3.8-10.3,5.3l0.1,0.2c9.5-2.5,20.1-0.7,29.4,2.7
							c2.3,0.8,4.7,1.8,6.3,3.6c1.6,1.7,2.3,4.4,1,6.4c-1.4,1.9-6.9,1.8-8.1-0.2l0-0.1c0.7,0.2,1.5,0.2,2.1-0.1
							c0.8-0.3,1.4-0.9,1.6-1.7c0.3-1.3-1-2.5-2.2-3.1c-5.2-2.9-7.4-2.6-13.4-0.9l0,0c-1.2-1.4-3.7-2.2-5.6-1.7
							c-2,0.5-3.8,1.3-5.7,2c-1.7,0.6-3.3,1.4-4.9,2.2c-3.7,1.8-7.4,3.4-11.5,2.1c-0.8-0.5-1.6-0.9-2.5-1.2c0.9,0.5,1.7,0.9,2.5,1.2
							c3.1,1.9,4.8,5.1,4.6,8.8c-0.1,2.3-2.5,8.8-4.7,9.7l-0.1-0.1c2.4-3.4,0.1-8.4-3.8-10.3c-3.9-2-8.7-1.7-13.2-0.9
							s-15.7-0.7-21.2-3.1c4.7,5.5,12.8,8.3,20.3,7.1c-11.3,2.8-18.2,1.4-22.4-0.6c-2.7-1.3-5.2-3.1-10.4-4.8
							c-0.9-0.3-6.7-2.1-11.2-2c-11.9,0.2-20.2,13.6-21.1,15.2h-0.6v-6v-37.6V196c2.9-3.1,7.5-2.7,11.7-1.4L251,194.6z"/>
						<path class="st3" d="M291,268.7c0.8,0.2,1.3,1.1,1.2,1.9c-0.1,0.8-0.7,1.5-1.5,1.9c-0.7,0.4-1.6,0.6-2.5,0.7
							c-1.4,0.1-2.9,0.1-4.3-0.2c-0.6-0.1-1.1-0.3-1.6-0.6c-0.5-0.3-0.8-0.8-0.8-1.3c0-0.9,1.1-1.5,2-1.8
							C285.9,268.4,288.5,268.3,291,268.7L291,268.7z"/>
					</g>
					<g>
						<path class="st13" d="M250.9,197c0-0.8,0-1.6,0.1-2.4c0.6-3.7,2.9-7.2,6.3-9.2c2.5-1.5,5.4-2.2,8.4-2.1c2,0.1,4,0.5,5.8,1.3"
							/>
						<path class="st13" d="M265.7,183.3c5.5-1.9,11-3.3,16.6-3.4c2.6-0.1,5.3,0.2,8,0.7"/>
						<path class="st13" d="M282.3,179.9c2.7-4.3,10.9-6.7,16.3-5c0.8,0.2,1.5,0.6,2.2,1"/>
						<path class="st13" d="M298.6,174.8c3.2-3.5,10.4-7.1,14.7-4.8"/>
						<path class="st13" d="M313.3,170c-4.6,0.8-9,5.1-9.6,9.4"/>
						<path class="st13" d="M295.4,184.1c4.5-2.5,10.2-3.4,15.3-2.3"/>
						<path class="st13" d="M303.7,179.4c4.2-1,9.2-1.7,13.9-1.7c2,0,4,0.2,5.9,0.6"/>
						<path class="st13" d="M317.6,177.7c5.2-4.1,13.3-8.2,19.9-6.5c0,0,0,0,0,0"/>
						<path class="st13" d="M335.1,173.6c0.7-0.9,1.5-1.6,2.4-2.4c5.2-4.3,13-6,19.8-4"/>
						<path class="st13" d="M340.8,177.7c2.8-1.3,5.3-2.7,7.8-4.2c3-1.9,5.9-3.9,8.7-6.2"/>
						<path class="st13" d="M305.1,190.3c5.1,1.6,10.9,1.1,15.6-1.2c4.7-2.4,8.3-6.6,9.5-11.4"/>
						<path class="st13" d="M348.5,173.5c6.3-1,10.9,4.3,12.6,6.8"/>
						<path class="st13" d="M329.3,190.6L329.3,190.6c1.6-3.6,7-6.4,11.1-5.6c0,0,0,0,0,0"/>
						<path class="st13" d="M331.4,180.8c1.8-0.2,3.6,0,5.2,0.6c2.5,0.8,4.6,2.4,5.9,4.4c-0.7-0.2-1.4-0.5-2.2-0.7
							c-0.1,0-0.2-0.1-0.3-0.1"/>
						<path class="st13" d="M336.6,181.3c8.4-3.6,16.7-3.6,24.5-1.1"/>
						<path class="st13" d="M250.9,194.5c-4.2-1.3-8.8-1.6-11.7,1.4"/>
						<path class="st13" d="M282.3,198.9c5.5-4.9,14.2-6.4,21.3-3.7"/>
						<path class="st13" d="M264.8,200.3c3.9,4.8,11,7.4,17.4,6.3c6.5-1.1,12.1-5.7,14-11.5"/>
						<path class="st13" d="M293.7,200.3c3.7,2.3,8.7,2.7,12.8,1.1c4.1-1.6,7.2-5.3,7.9-9.3"/>
						<path class="st13" d="M297.9,207.9c6.3-0.2,12.7-1.5,17.8-4.9c5.1-3.4,8.6-9.1,7.8-14.9"/>
						<path class="st13" d="M324.4,193.9c1-1.7,2.9-2.9,4.9-3.2c0.5-0.1,1-0.1,1.5-0.1c2.6,0.1,5.4,1.4,6.5,3.5"/>
						<path class="st13" d="M337.3,194c5.1-4.2,11.9-6.7,18.8-6.8c6.7-0.1,13.5,1.9,18.8,5.8c0.1,0.1,0.2,0.2,0.3,0.2"/>
						<path class="st13" d="M346.9,197.1c1.3-0.7,2.6-1.3,3.9-1.9c7.8-3.5,15.8-5.1,24.2-2.2"/>
						<path class="st13" d="M350.8,195.2c-1.3,3.4-3.4,7-6.5,9.1c-3.2,2.2-6.8,3.8-10.3,5.3"/>
						<path class="st13" d="M330.5,211c1.1-0.4,2.3-0.8,3.5-1.1c9.5-2.5,20.1-0.7,29.4,2.7c2.3,0.8,4.7,1.8,6.3,3.6
							c1.6,1.7,2.3,4.4,1,6.4c-1.4,1.9-6.9,1.8-8.1-0.2"/>
						<path class="st13" d="M350.6,216.4c6-1.7,8.2-2.1,13.4,0.9c1.2,0.7,2.5,1.8,2.2,3.1c-0.1,0.8-0.8,1.4-1.6,1.7
							c-0.7,0.2-1.4,0.2-2.1,0.1c-0.1,0-0.2,0-0.3-0.1"/>
						<path class="st13" d="M320.4,219.9c0.9,0.5,1.7,0.9,2.5,1.2c4.1,1.3,7.7-0.3,11.5-2.1c1.6-0.8,3.2-1.6,4.9-2.2
							c1.9-0.7,3.7-1.6,5.7-2c1.9-0.5,4.5,0.3,5.6,1.7c0,0,0,0,0,0"/>
						<path class="st13" d="M308.7,219.8c5.1-0.5,6.9-1.5,11.7,0c0.9,0.3,1.8,0.7,2.5,1.2c3.1,1.9,4.8,5.1,4.6,8.8
							c-0.1,2.3-2.5,8.8-4.7,9.7"/>
						<path class="st13" d="M334.5,219.1c-2.2,6.7-2,14.3,0.5,20.9c2.5,6.5,7.7,12.3,14.4,15.5c10,4.7,22,3.5,33.1,2.2"/>
						<path class="st13" d="M387.1,260.4c-1.4,0-2.7-0.6-3.6-1.6c-0.2-0.2-0.4-0.4-0.6-0.7c-0.1-0.2-0.2-0.4-0.3-0.5
							c-0.7-1.2-0.9-2.6-0.9-3.9c-0.1-4.1,2-8.2,5.5-10.8c3.5-2.6,10.1-3.5,14.5-2.7"/>
						<path class="st13" d="M394,257.2c-2.1-3.1-3.2-7.2-1.5-10.5c1.7-3.4,5.2-5.9,9.2-6.5"/>
						<path class="st13" d="M394,257.2c3.2-2,6.4-4,9.8-5.5c3.5-1.5,7.3-2.5,11.1-2.4c1,0,2.1,0.2,3.1,0.4c2.7,0.6,5.3,1.8,7.2,3.7
							c2.6,2.6,3.7,6.6,2.2,9.8c-1.4,3.3-7.3,5.5-11,4.6"/>
						<path class="st13" d="M398,268.7c3.5-4.4,8.5-7.7,14.1-9.4c2.1-0.7,4.6-1.1,6.6-0.1c1.8,0.9,2.8,2.8,2.5,4.6
							c-0.3,1.8-2.2,3.6-4.1,3.9"/>
						<path class="st13" d="M418,249.7c-0.3-1.7-0.3-5.3,0.9-6.7c1.2-1.4,2.8-2.4,4.5-3.2c1.7-0.9,3.5-1.8,5.5-2.1
							c2-0.4,4.7,0.2,6.4,1.2"/>
						<path class="st13" d="M428.9,250.1c-1.7-0.5-2.6-4.2-2.2-5.9c0.3-1.7,1.7-3,3.3-3.8c1.6-0.8,3.4-1.2,5.2-1.6"/>
						<path class="st13" d="M426.6,252.1c0.8-0.7,1.5-1.3,2.3-1.9c5.5-4.3,11.8-7.3,19.2-8c6-0.6,12.8,0.5,16.1,5.1
							c1.7,2.4,2.2,5.6,1.2,8.4c-0.1,0.3-0.2,0.6-0.4,0.9c-1.5,2.9-4.6,5.1-8.1,5.5c0,0,0,0,0,0"/>
						<path class="st13" d="M434.4,260c5.5-5,14-7.1,21.5-5.4c1,0.2,2.1,0.6,2.7,1.4c0.8,1-0.6,5.5-1.7,6.2"/>
						<path class="st13" d="M465.5,255.7c4.5-0.5,10-1.6,13.9-3.8c-0.6,2.5-1.7,4.9-3.3,7c-2.1,2.7-5,4.9-8.3,6.3"/>
						<path class="st13" d="M467.8,265.3c2,0.7,3.2,2.8,3.3,4.8c0.1,2-0.6,3.9-1.3,5.8"/>
						<path class="st13" d="M465.5,273.5c1.8,2.5,5.6,3.3,8.8,2.7c3.2-0.6,6-2.4,8.6-4.1c-1.3,5.6-6.9,10.1-13.1,10.5
							c-6.2,0.5-12.5-3.1-14.8-8.4"/>
						<path class="st13" d="M475.9,258.9C476,258.9,476,258.9,475.9,258.9c2.9-1.7,7.1-2.9,10.4-3.5c3.4-0.6,7.4,0.1,10.4,1.7"/>
						<path class="st13" d="M484.4,265.1c3.7-3.2,7.9-5.8,12.4-7.9c6.4-2.9,13.4-4.7,20.5-5.1c3-0.2,6.4,0,8.6,1.9
							c1.2,1,1.9,2.5,2,4c0,0.4,0,0.8-0.1,1.2c-0.4,1.9-1.8,3.6-3.7,4.3"/>
						<path class="st13" d="M499.5,265c-2.1,0.2-4.2,1.2-5.4,2.8c-1.3,1.6-1.8,3.7-1.4,5.6"/>
						<path class="st13" d="M518,270.8c1.5-1.3,3.8-1.7,5.7-1"/>
						<path class="st13" d="M507.2,281.6c3.6-3,8.6-4.5,13.4-3.9"/>
						<path class="st13" d="M538.2,273.3c2.5-0.9,5.4-0.8,7.9,0.2"/>
						<path class="st13" d="M474.6,287.2c2.3-2,5.6-3,8.8-2.6"/>
						<path class="st13" d="M528,258c7.7-2.9,18.4-1.8,24.9,3c2.5,1.9,4.7,4.3,5.6,7.2c0.4,1.4,0.6,2.8,0.4,4.2
							c-0.2,1.6-0.8,3-1.9,4.3"/>
						<path class="st13" d="M558.9,272.4c4.3-1.7,10.8-1.2,13.9,2c3.1,3.2,4.2,7.8,3.9,12.1c-0.3,4.3-1.6,9.4-3.4,13.3"/>
						<path class="st13" d="M559.1,280.6c3.7-0.7,7.8,0.3,10.6,2.6c2.8,2.3,4.4,5.9,4,9.4c-0.2,2.4-1.3,4.7-1.9,7
							c-0.3,1.1-0.5,2.1-0.5,3.2c-0.1,4,2.6,7.8,6.6,9.4c4,1.6,8.9,0.7,11.9-2.1"/>
						<path class="st13" d="M573.3,299.8c5.5-1.7,11.7-1.2,16.9,1.1c3.2,1.4,6.1,3.5,8.2,6.1"/>
						<path class="st13" d="M590.2,300.9c4.2-0.8,9.2-2.9,13.4-2c4.2,0.9,9.3,3.5,9.8,7.5"/>
						<path class="st13" d="M613.4,306.4c7.1-1.4,15,1.3,19.2,6.7c0.4,0.4,0.7,0.9,1,1.4c1,1.4,1.9,2.9,3.2,4.1
							c1.8,1.5,4.6,2.4,6.6,1.3"/>
						<path class="st13" d="M633.6,314.5c2.6,0.8,6.2,0.6,9,0.7c2.8,0.1,5.7-0.6,7.6-2.5c1.8-1.7,2.6-4.5,1.4-6.6
							c-0.1-0.1-0.1-0.3-0.2-0.4"/>
						<path class="st13" d="M638,325.9c1,0.8,2.2,1.3,3.5,1.6c2.6,0.6,5.5,0.1,7.8-1.3c3.3-2.1,5.2-5.8,5.3-9.5
							c0.1-3.7-0.9-7.5-3-10.6"/>
						<path class="st13" d="M641.5,327.5c2.7,0.7,4.1,3.8,4.7,6.3c0.5,2.5,0.5,5.1,1.8,7.4c1.2,2.3,3.7,3.9,6.4,4.4
							c0.2,0,0.3,0.1,0.5,0.1"/>
						<path class="st13" d="M618.6,329.8c3.8,3.3,5.4,8.4,8.8,12c0.2,0.2,0.4,0.4,0.6,0.6c2.9,2.8,7,4.5,11.2,5.1
							c0.4,0.1,0.9,0.1,1.3,0.1c4.7,0.4,9.4-0.5,13.8-1.9"/>
						<path class="st13" d="M603,333C603,333,603,333,603,333c-0.6,2.9,0.1,5.9,1.8,8.4c0.6,0.9,1.4,1.8,2.2,2.5
							c1.9,1.7,4.3,2.8,6.8,3.4c1.7,0.4,3.4,0.6,5.2,0.6c1.8,0,3.7-0.3,5.2-1.2c1.5-0.9,3.1-3.1,3.2-4.8"/>
						<path class="st13" d="M579.2,327.1c0,3.3,1.8,6.6,4.5,8.8c1.4,1.2,3.1,2,5,2.5c5.4,1.3,11.5-1,14.4-5.4"/>
						<path class="st13" d="M538.2,294.5c3.1-0.6,6.4,0.3,8.7,2.3c2.3,2,3.5,5.2,3,8.1c-0.6,3.6-3.5,6.8-2.8,10.4
							c0.7,3.1,4.2,5.2,7.6,5.5c3.4,0.4,6.9-0.6,10.2-1.5c3.3-0.9,6.8-1.7,10.2-1c3.2,0.6,6.3,2.5,9.5,2.2c2.4-0.2,4.5-1.7,5.5-3.7
							c1-2,1-5.1-0.4-6.8"/>
						<path class="st13" d="M538,294.5c0.1,0,0.1,0,0.2,0"/>
						<path class="st13" d="M528.8,304.1c-1.8,0.9-2.4,3.2-1.6,5c0.8,1.7,2.8,2.9,4.8,3.2c2,0.3,4.1-0.2,6-0.9
							c1.2-0.4,2.3-1,3.3-1.7c1.4-0.9,2.6-2,3.5-3.4c1.5-2.3,2.1-5.4,0.6-7.8c-1.5-2.4-4.5-3.9-7.3-4c0,0,0,0,0,0"/>
						<path class="st13" d="M528.8,304.1c-3.3-1.1-7.8-1.6-11.1-0.3c-3.3,1.2-6,3.6-7.5,6.5c-0.8,1.5-1.3,3.2-1,4.8
							c0.2,1.6,3.1,3.8,4.7,4.5"/>
						<path class="st13" d="M493.6,295.8c2.7-0.2,6.7,0.1,9.1,1.2c2.4,1.1,4.4,3.4,4.1,5.9c-0.3,3-3.6,5.1-4.3,8
							c-0.6,2.6,0.9,5.3,3.3,6.8c2.3,1.5,5.3,2,8.1,2c0,0,0,0,0,0"/>
						<path class="st13" d="M425.7,297.7c1.5-0.9,3-1.7,4.6-2.4c2.3-1,4.8-1.9,7.3-2.5c6.9-1.7,14.2-2.1,21.3-1.5
							c3.8,0.3,7.6,0.9,11.1,2.3c3.5,1.4,6.6,3.8,8.3,6.9c1,1.8,1.4,3.9,1.2,5.9c-0.2,1.5-0.7,2.9-1.5,4.1c-2.1,2.9-6.5,4.4-10,2.9"
							/>
						<path class="st13" d="M422.9,315.6c5.8-5.3,12.5-9.9,20-12.7c7.6-2.8,16.1-3.8,24-1.8c1.8,0.4,3.6,1,5.1,2.1
							c1.4,1.1,2.5,2.8,2.3,4.5c-0.2,1.8-1.6,3.4-3.3,4.2c-1.7,0.8-3,1.7-3,1.7"/>
						<path class="st13" d="M481.1,306.5c1.5,0.7,3.4,0.7,5,0.3c1.7-0.4,3.1-1.3,4.5-2.3c1.7-1.3,3.3-2.8,3.8-4.8
							c0.4-1.3,0-2.8-0.8-3.9c-0.4-0.5-1-0.9-1.6-1.2"/>
						<path class="st13" d="M420.9,323.9c3.7-5.1,10.2-7.8,16.8-8.8c1-0.1,1.9-0.3,2.9-0.3c3.9-0.3,8-0.2,11.2,1.8
							c4.2,2.5,5.9,8.1,3.8,12.3c-2.2,4.2-7.9,6.5-12.7,5.1"/>
						<path class="st13" d="M413.6,341C413.6,340.9,413.6,340.9,413.6,341c2.5-4.8,7-8.8,12.2-11.1c5.2-2.2,11.4-2.7,16.9-1.3
							c1.8,0.5,3.9,1.6,3.8,3.3c-0.2,1.8-1.7,1.7-3.6,1.9"/>
						<path class="st13" d="M398,343c2.6,4.9,1.2,11.3-3.2,14.9c9.1-1,17-7.9,18.7-16.1c0.1-0.3,0.1-0.6,0.2-0.8
							c0.3-1.7,0.2-3.5-0.5-5.2c-0.8-1.9-5.8-3.4-8-3.6"/>
						<path class="st13" d="M395.9,307.8c0.3-4,5.1-7,9.5-6.8c4.4,0.2,8.3,2.7,11.3,5.7c0.1,0.1,0.3,0.3,0.4,0.4"/>
						<path class="st13" d="M395.9,307.8c0,0.1,0,0.3,0,0.4C395.9,308.1,395.9,308,395.9,307.8z"/>
						<path class="st13" d="M395.9,307.8C395.9,307.8,395.9,307.8,395.9,307.8"/>
						<path class="st13" d="M377.1,299.7c4-0.9,8.2-1.4,12.1,0c3.7,1.3,6.8,4.5,6.7,8.1"/>
						<path class="st13" d="M417.1,306.7c-0.1,0-0.3-0.1-0.4-0.1c-3.8-0.7-8-0.2-11.4,1.5c-3.6,1.8-6.4,4.8-7.8,8.2c0,0,0,0,0,0"/>
						<path class="st13" d="M394.4,326.2c4.4,0.7,8.2,4.1,9.1,8.2c0.6-0.7,1.2-1.4,1.6-2.2c1.4-2.6,1.8-5.7,0.8-8.4
							c-1.2-3.5-4.5-6.4-8.4-7.4c-0.1,0-0.1,0-0.2,0c-8.3-1.9-17,4.6-25.2,2.5c-3.6-0.9-6.5-3.3-9.7-5c-6.6-3.4-14.9-3.9-21.8-1.2"
							/>
						<path class="st13" d="M338.9,323.3c7.2-4.6,17.1-5.6,25.2-2.4"/>
						<path class="st13" d="M348.6,345c-1.8-4.5,1.2-9.7,5.7-12.1c4.5-2.4,9.9-2.7,15.1-2.5c5.2,0.2,10.5,0.8,15.6-0.1
							c5.1-0.9,10.2-3.8,11.8-8.3"/>
						<path class="st13" d="M336.4,355.5c6.2-0.5,13.4-2.8,18.2-6.4c4.8-3.5,9-7.8,14.3-10.7c5.3-2.9,12.2-4.1,17.5-1.3
							c1.7,0.9,3.2,2.2,3.8,3.9s0.1,3.8-1.4,4.9c-1.6,1.1-4.1,0.7-5-0.9"/>
						<path class="st13" d="M383.8,345.1c1.4,2.8,6.5,4.9,9.6,3.7c3.1-1.2,5.7-2.9,4.6-5.8"/>
						<path class="st13" d="M319.3,357.7c6.6,0.2,13-4.1,14.6-10"/>
						<path class="st13" d="M333.9,347.8c-0.1,2.9,0.7,5.6,2.5,7.7c0.2,0.3,0.5,0.6,0.8,0.8c2.3,2.3,5,4.4,4.7,7.5"/>
						<path class="st13" d="M319.2,360.2c2.3-0.9,4.9-0.3,7.1,0.7c2.2,1,4.3,2.3,6.7,2.9c2.9,0.8,6,0.7,8.9,0.1
							c0.9-0.2,1.8-0.4,2.6-0.6c3.8-1,7.4-2.4,11.3-2.8c3.9-0.4,8.2,0.3,10.9,2.9"/>
						<path class="st13" d="M320.4,372c1.5,1.8,3.7,2.9,6.1,3.5c3.2,0.8,6.9,0.5,10.1-0.5c5.6-1.7,10.2-5.2,15.3-7.9
							c5-2.6,9.4-5.1,14.8-3.5c0.1,0,0.3,0.1,0.4,0.1"/>
						<path class="st13" d="M298.8,367.2c-2.2,2.9-1.5,7.1,1,9.8c0.2,0.3,0.5,0.5,0.8,0.7c3.1,2.6,7.7,3.4,11.8,2.6
							c4.1-0.8,10.7-2.5,14.1-4.9"/>
						<path class="st13" d="M274.5,350.2c6.7-3.6,15-4.6,22.6-2.7s14.2,6.5,18.1,12.7c0.9,1.4,1.7,2.9,2.9,4.1
							c1.3,1.2,3.2,1.9,4.8,1.3"/>
						<path class="st13" d="M238.2,352.9c0.3-0.2,0.7-0.4,1-0.6c6.3-3.4,16.8-2.8,23.5-1.6c7,1.3,14.2,3,21.2,1.8"/>
						<path class="st13" d="M238,265.7c0.4-0.4,0.8-0.7,1.2-1.1c10.8-9.3,25.9-13.7,40.6-13.6c15.3,0.2,30.3,5.1,43.4,12.4
							c8.7,4.8,16.6,10.7,25.3,15.5c0.4,0.2,0.8,0.4,1.2,0.7c8.4,4.5,17.6,7.9,27.3,8c10.1,0.1,20.7-4.1,25.7-12.2"/>
						<path class="st13" d="M239.8,240c0.9-1.5,9.2-14.9,21.1-15.2c4.5-0.1,10.3,1.7,11.2,2c5.2,1.7,7.7,3.5,10.4,4.8
							c4.2,1.9,11.1,3.4,22.4,0.6"/>
						<path class="st13" d="M284.6,225.2c4.7,5.5,12.8,8.3,20.3,7.1c0,0,0,0,0,0c0,0,0.1,0,0.1,0"/>
						<path class="st13" d="M284.6,225.2c5.5,2.3,16.8,3.8,21.2,3.1s9.2-1,13.2,0.9c3.9,2,6.3,6.9,3.8,10.3c0,0,0,0.1-0.1,0.1"/>
						<path class="st13" d="M252,214.7c4.2,1.3,9.4-0.6,11.5-4.2"/>
						<path class="st13" d="M262.9,213.4c1.4,2.2,4.1,3.7,7,3.8"/>
						<path class="st13" d="M267.6,210.1c2.6,4.1,7.3,6.9,12.4,7.4c5.1,0.5,10.4-1.4,13.8-4.9"/>
						<path class="st13" d="M293.4,210.5c4.3,4,11.8,4.5,16.7,1.2"/>
						<path class="st13" d="M305,208.8c2.3,2.5,6.7,3,9.6,1.2"/>
						<path class="st13" d="M243.2,222.2c0,4.2-1.4,8.3-3.9,11.8c-0.6,0.8-1.3,1.6-2,2.3"/>
						<path class="st13" d="M258.6,215.9c-3.7,5-9.3,8.9-15.6,10.9"/>
						<path class="st13" d="M243.6,258.8c-1.7-1.1-3.1-2.4-4.4-3.9c-2.5-3-4-6.6-4.4-10.3"/>
						<path class="st13" d="M606.4,385.7c7.7-3.9,13.2-11.1,17.7-18.1c4.5-7,8.7-14.6,15.1-20.1"/>
						<path class="st13" d="M648,341.3c8.4-4.9,19.1-7.8,29.3-8.1c2.5-0.1,4.9,0,7.2,0.3"/>
						<path class="st13" d="M666.7,339.6c6.4,0.4,12-3.4,17.9-6c2.2-1,4.5-1.8,6.8-2.2c4.9-0.8,10,0.5,15,0.7c1.9,0.1,3.9,0,5.9-0.4
							c3.1-0.6,5.8-2,7.4-4.4c0,0,0,0,0,0"/>
						<path class="st13" d="M719.7,327.4c-0.7,3.7-3.2,7.4-6.4,9.7c-0.1,0-0.1,0.1-0.2,0.1"/>
						<path class="st13" d="M713.1,337.2c0,0,0.1-0.1,0.1-0.1c1.6-1.2,4.4-1.4,6.1-0.4c0.8,0.5,1.6,1.3,2,2.2c0.5,1.1,0.6,2.2-0.2,3
							c-1.6,1.4-2.3,1.5-4.2,2.6c0,0-0.1,0-0.1,0.1"/>
						<path class="st13" d="M717,344.5c3-1.6,7.2-0.3,8.6,2.7c1.4,2.9-0.6,7.3-3.9,8.4"/>
						<path class="st13" d="M694.2,353.9L694.2,353.9c0.9-3.3,4.9-5.3,8.7-5.3s7.2,1.6,10.5,3.2c2.7,1.4,5.4,2.9,8.4,3.7
							c0.6,0.2,1.2,0.3,1.8,0.4c3.7,0.6,4.9,0.7,7.7-1.5"/>
						<path class="st13" d="M700.6,358.2c3.1-1.5,6.9-0.5,9.7,1.4c0.3,0.2,0.5,0.4,0.8,0.6c2.8,2.3,4.5,5.5,6.4,8.6
							c1.9,3,4.1,6.1,7.5,7.6c2.2,1,4.9,1.2,7.1,0.4c1.3-0.4,2.4-1.2,3.1-2.2"/>
						<path class="st13" d="M710.3,359.5c3.1,0.7,6.4,0.7,9.5,0.2c4.2-0.8,8.2-2.6,11.3-5.2c0,0,0.1-0.1,0.1-0.1"/>
						<path class="st13" d="M697.5,365.6c4.5-0.3,8.6,2.2,12,4.9c0.8,0.7,1.6,1.3,2.4,2c2.5,2.2,5,4.4,8.1,5.7
							c3,1.4,8.4,0.4,12.1-1.5c1.3-0.7,2.4-1.4,3.1-2.2"/>
						<path class="st13" d="M692.5,370c3.2-0.4,6.3,1.1,9.2,2.3c2.9,1.2,7.3,1.4,10.2,0.2"/>
						<path class="st13" d="M692.5,370c2.9,0.1,5.9,3.2,7.5,5.4s2.7,4.8,4.6,6.8c1.9,2,5,3.5,7.7,2.6"/>
						<path class="st13" d="M678.2,370.9c-1.4,1.5-1.2,3.9,0,5.4c1.3,1.6,3.4,2.4,5.5,2.7c2.1,0.3,4.3,0.1,6.4,0
							c1.2-0.1,2.5-0.1,3.4,0.6c0.8,0.6,1.1,1.6,1.5,2.4c0.3,0.6,0.6,1.2,1,1.7c1.4,1.9,3.6,3.3,6.1,3.9c3.1,0.8,7.7-1.1,10.3-2.9"
							/>
						<path class="st13" d="M672.9,368.9c-1,0.8-1.8,1.9-2.4,3c-1.4,2.8-1.3,6.2,0.4,8.9c2.4,3.7,7.9,5.5,12.3,4
							c1.2-0.4,2.4-1,3.7-0.8c1,0.2,1.8,0.9,2.7,1.4c1.9,1,4.5-0.5,6.3-1.6"/>
						<path class="st13" d="M670,363.7c-7.5,4.1-16.8,3.7-25.4,3.2c4.3,2.9,10,4.7,15.7,5.2c3.5,0.3,6.9,0.2,10.1-0.3"/>
						<path class="st13" d="M675.9,359.2c3.8,2.5,8.8,3.3,13.3,2.3c-1.2,2.1-3.2,3.8-5.6,4.8"/>
						<path class="st13" d="M666.2,352.7c1.1-1.1,2.4-2,3.7-2.9c4.2-2.5,9.4-3.7,14.4-3c2.2,0.3,4.3,0.9,6,2.1
							c1.7,1.2,3.6,2.9,3.8,5"/>
						<path class="st13" d="M669.8,349.8c-7.9-3.6-21.7,0.8-23.4,5.6"/>
						<path class="st13" d="M654.3,353.9c-2.7-0.1-5.4,0.5-7.8,1.6c-3.7,1.7-6.8,4.6-8.7,8c-3,5.7-2.9,12.5-0.5,18.4
							c1.1,2.9,3.6,7.1,6.9,11.1c3.4,4.2,7.5,8.1,11.8,10.3"/>
						<path class="st13" d="M660.2,372.5c1.3,2.6,1.4,7.2,0.3,9.9c-1,2.7-3.2,5.1-6,6.4c4.1,1.5,8.6,7.2,1.4,14.4"/>
						<path class="st13" d="M721.5,338.8c1.8-2.1,6-3,9.1-2.8c0.4,0,0.8,0.1,1.1,0.1c1,0.2,2,0.4,3,0.7c1,0.3,1.9,0.7,2.9,1.1
							c1.1,0.5,2.1,1,3.1,1.5c2.9,1.4,5.9,2.7,9.1,2.8c3.2,0.1,6.4-0.8,7.8-3.5c0,0,0,0,0,0"/>
						<path class="st13" d="M755.1,347.1c-1,0.7-2.2,1.2-3.5,1.4"/>
						<path class="st13" d="M757.7,338.7L757.7,338.7c0.9,2.1,1,3.9-0.2,5.9c-0.6,1-1.4,1.8-2.4,2.5"/>
						<path class="st13" d="M755.1,347.1L755.1,347.1c2.7,1.4,5.8,5.3,4,7.6c-0.9,1.1-2.1,1.8-3.1,2.7c-1,0.9-1.7,2.4-1.2,3.6
							c0.8,1.6,3.2,1.7,5.1,1.6c0,0,0,0,0.1,0"/>
						<path class="st13" d="M719.7,359.6c0.1,0,0.1,0.1,0.2,0.1c4.6,2.5,11.6,5.6,16.8,4.9c2.7-0.4,5.4-1.4,7.5-3.1
							c1.9-1.5,3.4-3.5,4-5.7"/>
						<path class="st13" d="M744.2,361.5c1.8,2.1,5.5,4.8,8.4,4.6c2.9-0.2,5.7-1.3,7.2-3.5"/>
						<path class="st13" d="M767.4,313.8c-1,3.2-0.3,6.9,1.7,9.7c0.1,0.2,0.3,0.4,0.4,0.5c1.8,2.1,4.4,3.6,7.2,4.2c0,0,0,0,0.1,0
							c0.9,0.2,1.9,0.3,2.9,0.3"/>
						<path class="st13" d="M768.6,307.3c2.4,1.4,5.4,1.9,8.2,1.6c0,0,0,0,0.1,0c0.8-0.1,1.5-0.3,2.3-0.5"/>
						<path class="st13" d="M729.5,299.4c2.3-2.1,5.2-3.6,8.3-4.3c2.5-0.6,5.2-0.7,7.7-0.2c2,0.4,3.9,1,5.9,1.4c2,0.4,4.2,0.4,6-0.6
							"/>
						<path class="st13" d="M745.5,294.8c1.8-0.3,3.4-1.1,4.8-2.1c2.2-1.5,4.1-3.5,6.1-5.5c2.7-2.7,5.5-5.3,9.1-6.2
							c3.7-0.9,7.5-0.3,11.3-0.5"/>
						<path class="st13" d="M756.3,287.2c-7.7-1.4-18.8-1.9-26.6,2.1c-5,2.6-8.7,7-13.4,10.1c-5.6,3.7-12.4,5.4-18.4,8.4
							c-10,5.1-17.7,15.2-20.6,25.3"/>
						<path class="st13" d="M688.2,324.6c6.7-8,16.1-14.2,26.6-17.3c3.1-0.9,6.6-1.7,8.8-3.9"/>
						<path class="st13" d="M737.7,295c2.5-4.1,8-4.4,12.5-2.3"/>
						<path class="st13" d="M738.6,319.1c2.7,0.9,5.6,1.2,8.3,0.5c3.2-0.8,6-3.2,6.7-6.1"/>
						<path class="st13" d="M729.5,313c2.3,2.2,4.8,4.3,7.8,5.6c0.4,0.2,0.9,0.4,1.4,0.5"/>
						<path class="st13" d="M706.8,327.7c3.3-5.6,10.5-9.1,17.4-8.4c4.7,0.4,10.2,1.7,14.5-0.1h0"/>
						<path class="st13" d="M744.2,320.1c-0.8,1.3-1.2,2.7-1.3,4.2c-0.1,1.9,0.3,3.8,1.3,5.4c1.7,2.8,5.1,4.7,8.6,4.9
							c-1.4-3.4,0.7-7.4,4.1-9.4c3.4-1.9,8.2-2.3,12.1-1.7"/>
						<path class="st13" d="M644.2,392.9C644.2,392.9,644.2,392.9,644.2,392.9c-9.5,2.4-20,2-28.9-1.7c-3.2-1.4-6.3-3.2-8.9-5.5
							c-4.6-3.9-8.1-8.9-9.5-14.6c-0.8-3-1-6.2,0-9.2c1-3.1,3.1-5.8,5.5-8.2c3.3-3.2,6.6-6.3,11.4-6.5"/>
						<path class="st13" d="M245.9,300.6c6.3-6,15.1-9.7,24.1-10.2c9-0.5,18.2,2.3,25.2,7.7c4.8,3.7,8.9,8.7,15,10.2
							c5.5,1.3,11.1-0.6,16.7-1.4c5.6-0.8,12.5,0.4,14.6,5.2"/>
						<path class="st13" d="M311.9,325.3c4.4-3.4,9-6.9,14.3-8.9c5.3-2.1,11.7-2.5,16.7,0"/>
						<path class="st13" d="M276,319.2c5.9-6.5,16-9.4,24.9-7.3"/>
						<path class="st13" d="M245.1,286.3c4-4.4,10.4-6.7,16.5-6.1"/>
						<path class="st13" d="M262.8,285.3c2.5-1.9,5.8-2.7,9-2.3"/>
						<path class="st13" d="M244.7,310.6c-2,0.5-3.8,1.3-5.4,2.4c-1.2,0.8-2.3,1.8-3.2,2.9"/>
						<path class="st13" d="M255.5,314.6c-6,1.4-11.7,4.1-16.3,7.8c-0.6,0.4-1.1,0.9-1.6,1.4"/>
						<path class="st13" d="M252.6,322c-5.1,1.3-9.8,3.9-13.4,7.4c-0.4,0.4-0.8,0.8-1.2,1.3"/>
						<path class="st13" d="M299.8,377c-3.7-1-9.9-1.1-12.1,1.8c-2.2,2.8-2.6,6.7-1.5,10c1.1,3.3,9.4,12.4,21.8,23.3
							c0.3,0.3,0.6,0.5,0.9,0.8"/>
						<path class="st13" d="M410.8,288.1c0.5-0.2,1-0.4,1.5-0.6c2.8-1,5.8-1.2,8.6-2c4.1-1.1,7.8-3.3,10.5-6.2c1-1,1.9-2.2,2.7-3.4
							c0,0,0-0.1,0.1-0.1c2.9-4.6,1.6-10.7,0.2-15.9"/>
						<path class="st13" d="M406.2,293c0.5-2.2,2.4-3.8,4.6-4.9"/>
						<path class="st13" d="M410.8,288.1C410.8,288.1,410.8,288.1,410.8,288.1c6.3-0.8,13.3,1.1,17.4,4.8c0.8,0.7,1.5,1.5,2,2.3"/>
						<path class="st13" d="M442.8,289.4c-0.2-7.2,4.6-13.5,12.2-15.3"/>
						<path class="st13" d="M471.2,314.4c0.8,3.6,1,6-1.3,9s-5.4,7.6-9.3,8.2"/>
						<path class="st13" d="M460.5,331.6c4.2,0.2,8.2,2.8,9.8,6.4c1.3,3,1,6.6-0.8,9.4c-0.4,0.5-0.8,1.1-1.2,1.5"/>
						<path class="st13" d="M469.5,347.4c4.7,3.2,7.8,9.4,7.4,14.7c-0.5,5.4-1.6,11,0.8,15.9"/>
						<path class="st13" d="M476.6,370.1c9.1,12.8,24.5,23.3,40.5,27.5"/>
						<path class="st13" d="M436.1,329.3c2.4,31.6,25.8,61.1,57.8,73"/>
						<path class="st13" d="M437.6,314.4c0.8-3.6,2.8-8.7,5.3-11.6"/>
						<path class="st13" d="M247.8,235.7c-3.4,6.3-2.1,14.4,3,19.6"/>
						<path class="st13" d="M260.7,227.1c-3.6,2.7-6.1,6.6-7,10.8c-0.9,4.2-0.1,8.7,2.1,12.4"/>
						<path class="st13" d="M265.7,226.9c-4.9,4.1-6.8,10.9-4.9,16.8"/>
						<path class="st13" d="M274,229.9c-1.2,5.5,0.3,11.5,4.1,15.9"/>
						<path class="st13" d="M282,234c-0.1,2.3,0.9,4.7,2.6,6.4"/>
						<path class="st13" d="M288.1,234.9c2.2,6.6,7.5,12.3,14.3,15.3"/>
						<path class="st13" d="M303.6,235.5c1.5,7.9,5.5,15.4,11.3,21.3"/>
						<path class="st13" d="M313.3,229.3c-0.7,6.4,1.5,13,6.1,17.9"/>
						<path class="st13" d="M349.7,279.6C349.7,279.6,349.7,279.6,349.7,279.6"/>
						<path class="st13" d="M351.4,280.3c-0.4-0.1-0.9-0.3-1.3-0.4"/>
						<path class="st13" d="M383.5,258.8c-4,2.1-8.6,6.9-11.4,10.2c-2.9,3.3-5.8,6.6-9.7,8.8c-3.3,1.9-7.3,3.3-10.9,2.4"/>
						<path class="st13" d="M349.8,279.6C349.8,279.6,349.7,279.6,349.8,279.6"/>
						<path class="st13" d="M382.9,269.5c-3.3,5-8.6,8.9-14.6,10.7c-5.5,1.6-11.4,1.8-16.8,0.1h0c-0.5-0.2-1.1-0.4-1.6-0.6"/>
						<path class="st13" d="M388.9,271.5c-4.2,5.2-10.6,8.9-17.5,10.2c-6.2,1.2-13.8,1.1-19.8-1.3c-0.6-0.2-1.2-0.5-1.8-0.8
							c0,0,0,0,0,0c0,0-0.1,0-0.1,0"/>
						<path class="st13" d="M390,274c-12.7,14.6-26.9,11.6-38.4,6.5c-0.5-0.2-1-0.4-1.4-0.7c-0.1,0-0.2-0.1-0.3-0.2c0,0,0,0,0,0
							c0,0-0.1,0-0.1-0.1"/>
						<path class="st13" d="M405.5,271c1.2-1.3,2-2.8,3-4.2c0.9-1.4,2.1-2.9,3.7-3.6c1.6-0.8,3.8-0.7,5.1,0.5c1.2,1.2,0.8,3.7-1,4.1
							"/>
						<path class="st13" d="M333,250.2c9.4,10.9,25.2,16.9,40.3,15.3"/>
						<path class="st13" d="M339.3,260.6c9,6,20,9.3,31.1,9.3"/>
						<path class="st13" d="M343.9,267.2c7.2,3.2,15,5.2,23,5.9"/>
						<path class="st13" d="M255.8,329.1c6.2-4.5,15-5.8,22.5-3.3c0.8,0.3,1.7,0.7,2.1,1.4c0.6,1.1-0.3,2.5-1.3,3.4
							c-3.4,3.1-8.4,4.5-13,3.8"/>
						<path class="st13" d="M273.1,333.9c1.5,0.1,2,1.4,1.8,2.4c-0.2,1.1-1.2,1.8-2.2,2.4c-2.8,1.6-6.2,2.4-9.5,2.3"/>
						<path class="st13" d="M281.4,341c1,0.1,2.1,0.4,3,0.7"/>
						<path class="st13" d="M266.8,340.9c1.1,0.3,1.9,1.3,1.9,2.4c0.1,1.1-0.5,2.1-1.3,2.8c-0.8,0.8-1.8,1.3-2.9,1.7
							c-2.2,0.9-5.3,2.1-7.7,2.1"/>
						<path class="st13" d="M290.9,268.7c-2.4-0.4-5-0.2-7.3,0.5c-1,0.3-2,0.9-2,1.8c0,0.5,0.4,1,0.8,1.3c0.5,0.3,1,0.5,1.6,0.6
							c1.4,0.3,2.9,0.3,4.3,0.2c0.9-0.1,1.7-0.2,2.5-0.7c0.8-0.4,1.4-1.1,1.5-1.9C292.4,269.8,291.8,268.9,290.9,268.7"/>
						<path class="st13" d="M302.5,281.3c-0.1-0.1-0.2-0.1-0.3-0.2"/>
						<path class="st13" d="M302.5,281.3c-1.6-1-3.5-1.6-5.5-1.5c-1.2,0-2.6,0.5-3,1.6c-0.2,0.7,0,1.5,0.5,2.1
							c0.5,0.6,1.2,1,1.9,1.3c1.5,0.7,3.1,1.4,4.8,1.9c1.1,0.3,2.5,0.6,3.4-0.1c1-0.7,1-2.2,0.4-3.2
							C304.4,282.4,303.5,281.8,302.5,281.3z"/>
						<path class="st13" d="M302.7,281.4c-0.1-0.1-0.2-0.1-0.3-0.2"/>
						<path class="st13" d="M356.1,302c-1-0.4-2.1-0.7-3.2-0.7c-1.1,0.1-2.2,0.6-2.6,1.6c-0.3,0.7-0.1,1.5,0.4,2.1
							c0.4,0.6,1.1,1,1.8,1.4c0.8,0.4,1.6,0.6,2.5,0.6c1.2-0.1,2.2-1,2.5-2.1C357.7,303.7,357.1,302.5,356.1,302"/>
						<path class="st13" d="M375.9,304.9c2.2-1,4.8-1.1,7-0.3s4.1,2.4,5.1,4.5c0.4,0.8,0.5,1.8-0.1,2.4c-0.5,0.4-1.3,0.5-2,0.2
							c-0.7-0.2-1.2-0.7-1.8-1c-2.3-1.6-5.2-2.7-8.1-2.9c-0.8-0.1-1.7-0.2-2-0.9c-0.2-0.4,0-0.9,0.4-1.2
							C374.6,305.3,375.9,304.9,375.9,304.9z"/>
						<path class="st13" d="M494.7,287.4c1-0.1,2.1-0.8,2.1-1.8c0-0.5-0.3-1-0.6-1.5c-1-1.5-2.6-2.7-4.3-3.4c0,0-2.2-1.1-3.1-0.7
							c-0.6,0.2-1,0.7-1.1,1.3c-0.2,0.5-0.1,1.1,0,1.7c0.4,1.7,1.8,3.1,3.5,3.7C491.2,286.8,493.7,287.5,494.7,287.4z"/>
						<path class="st13" d="M440.7,271.9c2.5-3.2,7.4-4.6,11.5-3.3c4,1.3,6.9,5.3,6.7,9.2"/>
						<path class="st13" d="M441.3,266c1.8-2.6,4.8-4.1,7.9-5.3c1.2-0.4,2.5-0.9,3.7-0.6c1.2,0.3,2.3,1.5,1.8,2.6"/>
						<path class="st13" d="M434.2,276c3.6,4.2,4.2,11.5,3.4,16.7"/>
						<path class="st13" d="M431.5,279.4c1.5,3.1,0.7,10.4-3.3,13.5c0,0-0.1,0-0.1,0.1"/>
						<path class="st13" d="M549.4,279.4c3.3,0.2,5.7,4.1,5.7,7.4c0,0.6-0.2,1.4-0.8,1.6c-0.5,0.1-1-0.1-1.3-0.3
							c-1.7-1.1-2.5-3.1-4.1-4.3c-1-0.7-2.3-1.2-2.6-2.3c-0.2-0.6,0.1-1.4,0.6-1.8C547.6,279.3,549.4,279.4,549.4,279.4z"/>
						<path class="st13" d="M773.1,327.8c-3.9,3.2-6.2,8-6.2,12.8"/>
						<path class="st13" d="M769.5,325.6c-3.1,2.7-5.1,6.4-5.7,10.3"/>
						<path class="st13" d="M762.1,325.3c-2.4,1.3-4.1,3.6-4.5,6.1"/>
						<path class="st13" d="M736.6,326.2c-1.4,3.9-1.1,8.1,1,11.7"/>
						<path class="st13" d="M732.7,325.9c-0.5,3.7,0.1,7.6,2.1,10.9"/>
						<path class="st13" d="M728.2,325.2c-0.5,3.4,0.2,8.1,2.5,10.8c0,0,0,0,0,0"/>
						<path class="st13" d="M712.2,331.7c-0.1-2.7,2-5.5,4.8-6.6c2.7-1.1,5.9-1,8.8-0.5c0.8,0.1,1.6,0.3,2.5,0.4
							c1.5,0.3,3,0.6,4.5,0.8c0.6,0.1,1.2,0.2,1.9,0.2c0.7,0.1,1.4,0.1,2.1,0.1c2.3-0.1,4.5-0.5,6.3-1.8"/>
						<path class="st13" d="M768.6,349.1c0.3,7.5,3.2,14.9,8.2,20.9c0,0,0.1,0.1,0.1,0.1c0.8,1,1.6,1.9,2.6,2.7"/>
						<path class="st13" d="M763.1,357.9c0.5,2.5,1.4,5,2.7,7.3"/>
						<path class="st13" d="M760.7,369.7c3.3,8.7,8.9,16.7,16,23.1c0.1,0,0.1,0.1,0.1,0.1c0.6,0.6,1.2,1.1,1.9,1.6"/>
						<path class="st13" d="M768.4,371.1c2.3,3.8,5.1,7.4,8.3,10.6c0,0,0.1,0.1,0.1,0.1c0.5,0.5,1,1,1.6,1.5"/>
						<path class="st13" d="M754.4,373.8c3.6,9.1,9.6,17.4,17.4,24"/>
						<path class="st13" d="M746.1,366.1c-0.7,4.6,0.7,9.4,3.6,13.2"/>
						<path class="st13" d="M750,384.3c2.7,5.9,7.3,11.1,13.1,14.7"/>
						<path class="st13" d="M738.9,371.7c0.8,10.2,5.5,20.1,13,27.6"/>
						<path class="st13" d="M732.8,382.8c1,4.1,3.6,11.6,10.2,20.3"/>
						<path class="st13" d="M716.4,381.4c2.4,6.2,8.5,16.5,27,25.2"/>
						<path class="st13" d="M664.4,389.3c2.4,2.3,13.8,13.5,16.3,15.8"/>
						<path class="st13" d="M666.9,380.8c4.8,7.3,18.3,21.2,32.3,27"/>
						<path class="st13" d="M689,391.4c1.2,1.2,13.1,12.2,14.3,13.4"/>
						<path class="st13" d="M699.2,391.1c2.7,3.1,13.9,13.4,23.5,15.1"/>
						<path class="st13" d="M716.5,392.2c2.1,2,10.5,9.7,12.7,11.6"/>
						<path class="st13" d="M292.5,382.2c-1.1,2.7-0.8,5.9,0.8,8.3c1.6,2.5,4.5,4.2,7.6,4.6"/>
						<path class="st13" d="M306,381.8c2.6,4.3,6.1,8.2,10.3,11.3"/>
						<path class="st13" d="M312.4,381.4c2,3.6,5.2,6.6,9,8.6"/>
						<path class="st13" d="M319.3,380.2c1.3,2.4,3.4,4.5,6,5.9"/>
						<path class="st13" d="M330.6,377.2c4.8,7.1,11.3,13.3,18.9,17.9"/>
						<path class="st13" d="M329.1,391.2c4.8,7.1,11.3,13.3,18.9,17.9"/>
						<path class="st13" d="M342.6,374c3.2,5.2,7.3,10,12,14.1"/>
						<path class="st13" d="M351.8,368.9c2.6,5.7,6.4,10.9,11.3,15.2"/>
						<path class="st13" d="M361.4,372.4c6.2,9.3,13.5,18,21.7,25.8"/>
						<path class="st13" d="M356.4,383.9c6.2,9.3,13.5,18,21.7,25.8"/>
						<path class="st13" d="M362.2,364.9c2.9,6,7.1,11.5,12.3,16"/>
						<path class="st13" d="M378.8,378.7c7,9.2,15.5,17.4,25.2,24.2"/>
						<path class="st13" d="M364.7,343c2.3,11.4,7.5,22.4,15,31.7"/>
						<path class="st13" d="M358.8,348.1c1,2.3,2,4.7,3,7"/>
						<path class="st13" d="M353.7,354c0.7,1.6,1.4,3.1,2.1,4.7"/>
						<path class="st13" d="M348.2,356.3c0.7,1.4,1.4,2.9,2.1,4.3"/>
						<path class="st13" d="M370.7,339.9c1.9,11.8,7.4,23,15.7,32.1"/>
						<path class="st13" d="M379.3,337.2c-2.9,6.6-0.1,14.2,3.3,20.6c6.4,12.2,14.9,23.6,25,33.5"/>
						<path class="st13" d="M388.7,354.4c3.2,8.7,8.4,16.8,15.2,23.5"/>
						<path class="st13" d="M400.5,356.7c1.7,4.7,4.6,9.1,8.6,12.5"/>
						<path class="st13" d="M409.9,382.6c5.4,7.2,11.9,13.6,19.2,19.1"/>
						<path class="st13" d="M409.2,396.6c4.2,5.6,9.2,10.8,14.7,15.5c1.5,1.3,3,2.5,4.6,3.6"/>
						<path class="st13" d="M415,376.7c6.1,8.2,13.9,15.3,23,20.8"/>
						<path class="st13" d="M445.8,393.8c7,6.1,14.5,13,22.7,18.3c0.7,0.5,1.4,0.9,2.1,1.3"/>
						<path class="st13" d="M460.5,390.7c7.4,7.4,17.2,14.2,26.3,19.6"/>
						<path class="st13" d="M415.5,347.5c-0.4,17.7,11.4,34.3,27.7,43.7"/>
						<path class="st13" d="M419.3,336.8c5.1,20.3,17.2,39.2,34,53.1"/>
						<path class="st13" d="M541.4,309.6c-1.7,2.6-1.5,7.8-0.3,10.6c0.9,2.1,2.6,4,4.7,5.1c0.7,0.4,1.6,0.8,2.4,1"/>
						<path class="st13" d="M545.9,325.3c-0.1,0.1-0.1,0.1-0.2,0.2c-1.8,1.9-0.7,5.3,1.7,6.6c2.5,1.4,5.6,1.1,8.4,0.4
							c2.8-0.7,5.5-1.8,8.4-1.9c2.9-0.1,6.1,1,7.2,3.5c0.9,2.1,0,4.6-1.5,6.3"/>
						<path class="st13" d="M569.9,340.3c3.1-2.5,9.6-4.7,13.7-4.4"/>
						<path class="st13" d="M534.3,313.7c-5.2,7-7.6,15.7-6.5,24.1c1.1,8.4,5.5,16.4,12.4,22.1"/>
						<path class="st13" d="M549.7,364.7c10.4,13.8,40.3,33.4,57.4,39.4"/>
						<path class="st13" d="M604.9,341.3c0,0-0.1,0-0.1,0c-7.2,1.7-14.4,5.8-18.4,11.6c-4.1,5.8-5.1,13.5-1.9,19.7"/>
						<path class="st13" d="M594.2,340c-6.1,2.2-11.2,6.5-14.2,11.8c-2.9,5.4-3.6,11.7-1.9,17.5"/>
						<path class="st13" d="M584.7,338.1c-9,5.5-13.8,16.3-11.6,26"/>
						<path class="st13" d="M569.4,334.2c-8.7,6.5-11.7,18.6-6.8,27.8"/>
						<path class="st13" d="M558.3,332.4c-5.8,7.2-6.7,17.5-2.1,25.4"/>
						<path class="st13" d="M548.9,332.8c-3.7,7.7-3.5,16.9,0.6,24.4"/>
						<path class="st13" d="M541.6,324c-4,8.4-4.2,18.3-0.5,26.8"/>
						<path class="st13" d="M565,369c6.9,8.9,15.8,16.6,25.8,22.5"/>
						<path class="st13" d="M590.6,360.9c-2.3,3.6-1.5,8.3,0,12.2c4,10.6,19.3,24.6,47.2,33.1"/>
						<path class="st13" d="M580.4,373.6c7.3,10.2,17.6,18.6,29.6,24.1"/>
						<path class="st13" d="M528.8,312.6c-8.2,6.5-11,18.1-6.7,27.2"/>
						<path class="st13" d="M504.7,300c-8.6,4.9-15.2,12.7-18.3,21.6c-3.1,8.9-2.6,18.8,1.3,27.4"/>
						<path class="st13" d="M484.6,307.5c-6.6,11.1-8.1,24.6-4.3,36.7c3.8,12.1,13,22.8,25,28.9"/>
						<path class="st13" d="M501.8,312c-8.6,8.2-10.6,21.6-4.9,31.7"/>
						<path class="st13" d="M526.1,310.4c-10.9,7.5-14.2,21.9-10.6,34s13,22,23.4,30.1"/>
						<path class="st13" d="M508.8,345.9c10.3,22.5,28.8,44.4,76,62.9"/>
						<path class="st13" d="M539.8,367.4c10.1,13.5,29.2,32.2,56.5,40.4"/>
						<path class="st13" d="M486.5,369.3c11.4,13.1,35.8,28.6,53.6,34.7"/>
						<path class="st13" d="M512.9,384.1c7.1,5.9,27.4,17.2,36.1,20.9"/>
						<path class="st13" d="M500,329c3.5,28.4,13.2,51.7,69.7,80.3"/>
						<path class="st13" d="M492.4,341.9c9.2,22.8,29.9,48.4,60.6,62.2"/>
						<path class="st13" d="M764.7,292c-0.5,0.3-1.1,0.6-1.2,1.2c-0.2,0.7,0.4,1.4,1.1,1.7c0.7,0.3,1.5,0.2,2.3,0.1
							c0.7-0.1,1.4-0.3,2-0.7c0.6-0.4,1-1.1,0.9-1.7c-0.1-0.7-0.7-1.3-1.4-1.2C768.3,291.2,765.7,291.5,764.7,292z"/>
					</g>
				</g>
				<g>
					<g>
						<path class="st14" d="M736.8,322.3c-5.9,10.9-95.7,23.7-88.7,12.6C655.5,323.2,739.7,317,736.8,322.3z"/>
						<line class="st15" x1="647.8" y1="335.8" x2="736.9" y2="322"/>
					</g>
					<g>
						<g>
							<path class="st16" d="M695.4,317.7c0,0.2-0.3,0.4-0.5,0.4c-0.1,0-0.2,0-0.3,0c-0.1-0.3-0.2-0.6-0.3-0.9c0.2,0,0.5,0,0.7,0.1
								c0.2,0,0.3,0.1,0.3,0.2C695.5,317.5,695.5,317.6,695.4,317.7z"/>
							<path class="st16" d="M688.8,320.2c1.7-1.6,4-2.4,5.9-2.1c0.3,0.8,0.7,1.6,1.2,2.3c0.8,1.3,1.4,2.4,1,3.7
								c-0.7,2.2-4.1,3-5.5,3.4c-1,0.3-2.2,0.5-3.3,0c-1-0.6-1.5-1.6-1.6-2.2C686.3,323.4,687.2,321.6,688.8,320.2z"/>
							<path class="st16" d="M695.3,310.6c-0.2,0.2-0.4,0.2-0.6,0.1c-0.1,0-0.1-0.1-0.2-0.1l0-0.2c0-0.2,0.2-0.4,0.4-0.5
								c0.1,0,0.1,0,0.2,0c0.1,0,0.1,0.1,0.2,0.1C695.5,310.1,695.5,310.4,695.3,310.6z"/>
							<path class="st16" d="M685.5,325.4c0-0.3,0-0.6,0-0.9c0.2,0.1,0.5,0.3,0.7,0.5c0.1,0.1,0.1,0.1,0.2,0.2c0,0,0,0,0,0
								c0,0,0,0.1,0,0.1c0,0.3-0.2,0.5-0.4,0.5c0,0-0.1,0-0.1,0c-0.1,0-0.2-0.1-0.3-0.2C685.5,325.5,685.5,325.5,685.5,325.4z"/>
							<path class="st16" d="M685.6,325.6L685.6,325.6c0.1,0.1,0.2,0.2,0.3,0.2c0,0,0.1,0,0.1,0c0.3,0,0.4-0.2,0.4-0.5
								c0,0,0-0.1,0-0.1c0.2,0.6,0.6,1.6,1.6,2.2c1.1,0.6,2.3,0.3,3.3,0c1.4-0.4,4.7-1.2,5.5-3.4c0.4-1.3-0.2-2.4-1-3.7
								c-0.4-0.7-0.9-1.5-1.2-2.3c0.1,0,0.2,0,0.3,0c0.2,0,0.5-0.1,0.5-0.4c0-0.1,0-0.2,0-0.3l0,0c0.3,0.9,0.7,1.7,1.2,2.4
								c0.8,1.4,1.7,2.8,1.1,4.5c-0.9,2.7-4.6,3.6-6.1,4c-1.1,0.3-2.6,0.7-4-0.1C686.4,327.5,685.8,326.4,685.6,325.6z"/>
							<path class="st16" d="M685.5,324.5c0.1-1.8,1.1-3.6,2.6-5c1.8-1.6,4.1-2.5,6.3-2.4c0.1,0.3,0.2,0.6,0.3,0.9
								c-2-0.2-4.2,0.6-5.9,2.1c-1.6,1.4-2.4,3.3-2.3,5.1c0,0,0,0,0,0c0-0.1-0.1-0.2-0.2-0.2C686,324.8,685.8,324.7,685.5,324.5z"/>
							<path class="st3" d="M694.4,317.1c-2.1-0.1-4.5,0.7-6.3,2.4c-1.6,1.4-2.5,3.2-2.6,5c-0.5-0.3-1-0.5-1.6-0.6
								c-1.5-0.2-2.7,0.3-3.8,0.9c-0.5,0.2-1,0.5-1.4,0.8c-0.6-2.3-6.8-5.1-12.2-4.3c-0.1-3.7,1.3-6.9,2.5-9.2
								c7.1-7.7,17.1-8.3,25.5-1.6l0,0.1c0.1,2.3-0.1,4-0.2,4.7l0,0.2C694.3,316.1,694.3,316.6,694.4,317.1z"/>
							<path class="st16" d="M675.3,302.8l13.1-2.2l0,0c1.9,0,3.7-0.1,5.4-0.4c1.5-0.2,3.1-0.6,3.2-0.6c0.7-0.2,1.3-0.3,1.8-0.4
								c1.3-0.3,1.9-0.4,2.7-0.3c0.4,0.1,1.4,0.2,2.4,1c1,0.8,1.5,1.6,1.6,2.5c0.2,1.5-1,2.7-1.7,3.6c-1.1,1.2-2.3,1.7-3.8,2.3
								c-1.6,0.7-3.2,1.2-5,1.5c-8.8-7.1-19.2-6.4-26.7,1.7c-0.3,0.2-1.6,1.1-2.2,1.4c-0.1,0-0.1,0.1-0.3,0.1
								c-0.8,0.4-3.1,1.8-5.6,0.6c-0.8-0.4-2-0.9-2.4-2c-0.6-1.5,0-2.4,0.2-2.8c1.1-1.8,2.1-2.4,4.7-3.3c0.1,0,5.5-2.2,12.3-2.7
								L675.3,302.8C675.3,302.8,675.3,302.8,675.3,302.8C675.3,302.8,675.3,302.8,675.3,302.8z"/>
							<path class="st16" d="M678.1,326.4c0.1,0.6,0.1,1.4-0.3,2.1c-0.7,1.1-2.2,1.3-3.4,1.5c-1.1,0.1-3,0.4-4.7-0.7
								c-1.9-1.2-2.5-3.5-2.8-5c-0.2-0.9-0.3-1.7-0.3-2.5c5.8,1.4,10.2,2.2,11.6,4.4C678.1,326.2,678.1,326.3,678.1,326.4z"/>
							<path class="st16" d="M678.5,326.8c-0.1-0.2-0.2-0.5-0.3-0.7c0-0.1,0.1-0.1,0.1-0.1c0.1-0.1,0.3-0.2,0.4-0.3
								C678.8,326,678.8,326.4,678.5,326.8z"/>
							<path class="st16" d="M678.7,325.6c-0.1,0.1-0.3,0.2-0.4,0.3c-0.1,0-0.1,0.1-0.1,0.1c-1.4-2.2-5.8-3-11.6-4.4
								c0-0.1,0-0.3,0-0.4C672,320.6,678.1,323.4,678.7,325.6z"/>
							<path class="st16" d="M688.8,300.1c0,0.2-0.1,0.5-0.4,0.5l0,0c0,0,0,0-0.1,0c-0.2,0-0.4-0.2-0.4-0.4c0-0.2,0.1-0.4,0.3-0.5
								l0,0C688.6,299.7,688.8,299.8,688.8,300.1z"/>
							<path class="st3" d="M693,287c0.7,0.7,1.1,1.1,1.5,2.1c1.2,3.3-0.9,6.7-1,6.9c-1.6,2.6-4.2,3.5-5.2,3.8l0,0l-13,2.2l-0.1,0
								c-2.9,0.1-7.9-0.2-9.7-3.2c-0.2-0.4-0.5-1.1-1-4.4c-0.4-2.4-0.6-4.8-0.8-7.2c1.4-2.4,3-4.3,5.1-5.8c0,0,0,0,0,0
								c1.9-1,3.8-1.7,5.9-2.3c1.7-0.5,3.5-0.8,5.3-1c1.7-0.2,6.5,0.5,9.1,2c0.4,1.5,1,2.9,1.8,4.2C691.6,285.6,692.4,286.4,693,287
								z"/>
							<path class="st16" d="M677.8,328.5c0.4-0.7,0.4-1.5,0.3-2.1c0-0.1,0-0.2,0-0.3c0.1,0.2,0.2,0.4,0.3,0.7
								c0.3-0.3,0.3-0.7,0.2-1.1c0.5-0.3,0.9-0.6,1.4-0.8c1.1-0.5,2.3-1.1,3.8-0.9c0.5,0.1,1.1,0.3,1.6,0.6c0,0.3,0,0.6,0,0.9
								c0,0.1,0,0.2,0.1,0.2l0,0c-0.6-0.4-1.1-0.6-1.8-0.8c-1.2-0.2-2.3,0.3-3.3,0.8c-0.5,0.2-1,0.5-1.5,0.9c0.1,0.7,0,1.6-0.5,2.4
								c-0.9,1.5-2.7,1.7-4,1.9c-0.7,0.1-1.8,0.2-3.1,0c-0.7-0.1-1.5-0.4-2.2-0.8c-2.3-1.4-2.8-3.9-3.2-5.6c-0.2-1-0.3-2-0.4-3
								c0.3,0.1,0.6,0.1,0.9,0.2c0,0.8,0.1,1.7,0.3,2.5c0.3,1.5,0.9,3.8,2.8,5c1.7,1.1,3.7,0.8,4.7,0.7
								C675.6,329.8,677.1,329.6,677.8,328.5z"/>
							<path class="st16" d="M688.3,299.7c1-0.3,3.6-1.1,5.2-3.8c0.1-0.1,2.2-3.6,1-6.9c-0.4-1-0.8-1.4-1.5-2.1
								c-0.6-0.6-1.4-1.4-2.2-2.8c-0.8-1.3-1.4-2.7-1.8-4.2c0.1,0,0.1,0.1,0.1,0.1c0,0,0.1,0.1,0.2,0.1c0.2,0,0.4,0,0.5-0.2
								c0-0.1,0.1-0.1,0.1-0.2l0,0c0.4,1.4,1,2.7,1.7,4c0.8,1.3,1.5,2,2.1,2.6c0.7,0.7,1.3,1.3,1.7,2.4c1.4,3.7-1,7.5-1,7.7
								c-1,1.6-2.3,2.6-3.4,3.2c1-0.1,1.9-0.2,2.8-0.3c0.7-0.1,1.5-0.3,2.1-0.4c0.6-0.1,1-0.2,1-0.2c0.7-0.2,1.3-0.3,1.8-0.4
								c1.4-0.3,2-0.5,3.1-0.3c0.4,0.1,1.6,0.2,2.8,1.1c1.2,0.9,1.9,2,2,3.1c0.2,2-1.2,3.4-2,4.3c-1.3,1.3-2.6,1.9-4.1,2.6
								c-1.6,0.7-3.2,1.2-5,1.5c0.1,2.3-0.1,4.1-0.2,4.7l0,0.2c-0.1,0.7,0,1.3,0.2,1.8l0,0c-0.1-0.1-0.2-0.2-0.3-0.2
								c-0.2,0-0.5-0.1-0.7-0.1c-0.1-0.5-0.1-1-0.1-1.6l0-0.2c0.1-0.7,0.3-2.4,0.2-4.7l0-0.1c0.1,0,0.1,0.1,0.2,0.1
								c0.2,0.2,0.5,0.1,0.6-0.1c0.2-0.2,0.1-0.5-0.1-0.6c-0.1,0-0.1-0.1-0.2-0.1c1.7-0.3,3.4-0.8,5-1.5c1.5-0.6,2.7-1.2,3.8-2.3
								c0.8-0.8,1.9-2,1.7-3.6c-0.1-0.9-0.7-1.8-1.6-2.5c-1-0.8-2-0.9-2.4-1c-0.9-0.1-1.4,0-2.7,0.3c-0.5,0.1-1.1,0.3-1.8,0.4
								c0,0-1.6,0.3-3.2,0.6c-1.7,0.3-3.5,0.4-5.4,0.4c0.3,0,0.4-0.3,0.4-0.5C688.8,299.8,688.6,299.7,688.3,299.7z"/>
							<path class="st16" d="M689.3,280.1c-0.1,0-0.1,0-0.2-0.1c0,0-0.1-0.1-0.1-0.1c0-0.1-0.1-0.1-0.1-0.2c0-0.1,0-0.2,0-0.3
								c0-0.1,0.1-0.2,0.2-0.4c0.1,0.1,0.3,0.2,0.4,0.2c0.2,0.1,0.2,0.3,0.2,0.4c0,0.1,0,0.1-0.1,0.2
								C689.6,280.1,689.5,280.2,689.3,280.1z"/>
							<path class="st16" d="M666.5,321.3c0,0.1,0,0.3,0,0.4c-0.3-0.1-0.6-0.1-0.9-0.2C665.9,321.4,666.2,321.4,666.5,321.3z"/>
							<path class="st16" d="M688.5,300.6l-13.1,2.2c0.2-0.1,0.4-0.2,0.4-0.5c0-0.2-0.2-0.4-0.5-0.4l13-2.2
								c-0.2,0.1-0.4,0.3-0.3,0.5C688,300.4,688.2,300.6,688.5,300.6C688.4,300.6,688.4,300.6,688.5,300.6z"/>
							<path class="st16" d="M675.7,302.3c0,0.2-0.2,0.4-0.4,0.5c0,0,0,0,0,0c0,0-0.1,0-0.1,0c-0.2,0-0.3-0.2-0.4-0.4
								c0-0.2,0.1-0.5,0.4-0.5l0.1,0C675.5,301.9,675.7,302.1,675.7,302.3z"/>
							<path class="st16" d="M694.5,310.5c-8.4-6.7-18.4-6.1-25.5,1.6c0,0,0,0,0,0c0.1-0.2,0.1-0.4-0.1-0.6
								c-0.1-0.1-0.1-0.1-0.2-0.1c-0.1,0-0.3,0-0.4,0.1c7.5-8.1,17.9-8.7,26.7-1.7c-0.1,0-0.1,0-0.2,0c-0.2,0-0.4,0.2-0.4,0.5
								L694.5,310.5z"/>
							<path class="st16" d="M669.1,312.1C669.1,312.1,669.1,312.1,669.1,312.1C669,312.1,669,312.1,669.1,312.1
								c-0.2,0.2-0.3,0.2-0.5,0.2c-0.1,0-0.2-0.1-0.2-0.1c-0.2-0.2-0.2-0.5,0-0.6c0,0,0,0,0-0.1c0.1-0.1,0.2-0.1,0.4-0.1
								c0.1,0,0.2,0,0.2,0.1C669.1,311.6,669.2,311.9,669.1,312.1z"/>
							<path class="st16" d="M689,279.5c-0.1,0.1-0.1,0.2,0,0.3c0,0.1,0,0.1,0.1,0.2c-2.6-1.5-7.4-2.1-9.1-2c0.2,0,0.4-0.2,0.4-0.5
								c0,0,0,0,0,0C682.3,277.5,686.4,278.1,689,279.5z"/>
							<path class="st16" d="M680.4,277.1c2.1,0,6.2,0.6,8.8,2c-0.1,0.2-0.1,0.3-0.2,0.4c-2.6-1.4-6.7-2-8.6-1.9
								C680.3,277.4,680.3,277.3,680.4,277.1z"/>
							<path class="st16" d="M680.4,277.1c0.1-0.7,0.3-1.7,1.1-2.6c1.6-1.7,4-1.2,4.7-1c1.6,0.4,2.7,1.3,3.2,2.5
								c0.5,1.3,0.2,2.4-0.1,3.1C686.6,277.7,682.4,277.1,680.4,277.1z"/>
							<path class="st16" d="M680.3,277.6c0,0.2-0.2,0.4-0.4,0.5c-0.3,0-0.5-0.2-0.5-0.4c0-0.1,0-0.2,0.1-0.3
								c0.1-0.1,0.2-0.1,0.3-0.1c0.2,0,0.3,0,0.5,0C680.3,277.3,680.3,277.4,680.3,277.6C680.3,277.5,680.3,277.6,680.3,277.6z"/>
							<path class="st16" d="M690.1,275.6c0.7,1.8,0,3.4-0.3,4.1l0,0c0-0.2-0.1-0.3-0.2-0.4c-0.1-0.1-0.3-0.2-0.4-0.2
								c0.3-0.7,0.6-1.8,0.1-3.1c-0.5-1.2-1.5-2.1-3.2-2.5c-0.7-0.2-3.1-0.7-4.7,1c-0.8,0.9-1.1,1.9-1.1,2.6c-0.2,0-0.4,0-0.5,0
								c-0.1,0-0.2,0.1-0.3,0.1l-0.1-0.1c0-0.8,0.3-2.2,1.4-3.3c1.9-2,4.7-1.5,5.6-1.3C688.7,273.2,689.7,274.6,690.1,275.6z"/>
							<path class="st16" d="M668.2,280.5c0.1-0.1,0.2-0.1,0.4-0.1c0.1,0,0.2,0.1,0.3,0.2c0.1,0.2,0.1,0.5-0.1,0.6c0,0,0,0,0,0
								c-0.2,0.1-0.5,0-0.6-0.2c-0.1-0.1-0.1-0.2-0.2-0.3C668,280.7,668.1,280.6,668.2,280.5z"/>
							<path class="st16" d="M679.5,277.3c-0.1,0.1-0.1,0.2-0.1,0.3c0,0.3,0.2,0.4,0.5,0.4c-1.8,0.2-3.6,0.5-5.3,1
								c-2,0.6-4,1.3-5.9,2.3c0.2-0.1,0.2-0.4,0.1-0.6c-0.1-0.1-0.2-0.2-0.3-0.2l0.1-0.1c1.8-0.9,3.7-1.7,5.7-2.2
								c1.6-0.4,3.3-0.8,5.1-0.9L679.5,277.3z"/>
							<path class="st16" d="M664.8,278.8c1.6,0.3,2.7,1.4,3.1,2c-2,1.5-3.6,3.3-5,5.7c-2.2-0.3-3.6-2-3.7-3.4
								c-0.1-1.1,0.5-2.5,1.5-3.3l0.1-0.1C662.4,278.3,664.6,278.7,664.8,278.8z"/>
							<path class="st16" d="M663.6,286.9c0-0.2-0.1-0.4-0.4-0.4c-0.1,0-0.2,0-0.3,0c1.3-2.3,2.9-4.2,5-5.7c0.1,0.1,0.2,0.3,0.2,0.3
								c0.1,0.2,0.4,0.3,0.6,0.2c-2.1,1.5-3.7,3.3-5.1,5.8C663.6,287,663.6,287,663.6,286.9z"/>
							<path class="st16" d="M675.3,302.8l-0.2,0c-6.7,0.5-12.2,2.7-12.3,2.7c-2.6,0.9-3.6,1.5-4.7,3.3c-0.3,0.4-0.8,1.3-0.2,2.8
								c0.4,1.1,1.6,1.7,2.4,2c2.5,1.1,4.8-0.2,5.6-0.6c0.1-0.1,0.2-0.1,0.3-0.1c0.6-0.3,1.9-1.2,2.2-1.4c0,0,0,0,0,0.1
								c-0.2,0.2-0.2,0.5,0,0.6c0.1,0.1,0.1,0.1,0.2,0.1c0.2,0,0.3,0,0.4-0.1c0,0,0,0,0-0.1c-1.3,2.3-2.6,5.6-2.5,9.2
								c-0.3,0-0.6,0.1-0.9,0.2c-0.1-3.2,0.8-6,1.9-8.3c-0.4,0.2-0.7,0.4-0.9,0.5c0,0-0.1,0.1-0.2,0.1c-0.9,0.5-3.5,2-6.4,0.7
								c-0.9-0.4-2.3-1.1-2.9-2.5c-0.7-1.9,0-3.1,0.3-3.5c1.3-2.1,2.4-2.7,5.1-3.7c0,0,3.3-1.3,8-2.2c-2.3-0.4-4.6-1.4-5.8-3.3
								c-0.3-0.5-0.6-1.3-1.2-4.8c-0.4-2.3-0.6-4.7-0.8-7.1l0.1-0.1c0,0,0.1,0.1,0.1,0.1c0,0,0.1,0,0.1,0.1c0.2,0,0.4,0,0.5-0.2
								c0,0,0-0.1,0.1-0.1c0.2,2.4,0.5,4.8,0.8,7.2c0.5,3.3,0.8,4,1,4.4c1.8,3,6.8,3.3,9.7,3.2c-0.3,0-0.4,0.3-0.4,0.5
								C674.8,302.6,675,302.8,675.3,302.8C675.2,302.8,675.3,302.8,675.3,302.8C675.3,302.8,675.3,302.8,675.3,302.8z"/>
							<path class="st16" d="M662.8,286.7c0-0.1,0.1-0.2,0.2-0.3c0.1,0,0.2,0,0.3,0c0.3,0.1,0.4,0.2,0.4,0.4c0,0,0,0.1,0,0.1
								c0,0,0,0.1-0.1,0.1c-0.1,0.2-0.3,0.3-0.5,0.2c-0.1,0-0.1,0-0.1-0.1c-0.1,0-0.1-0.1-0.1-0.1
								C662.7,287.1,662.7,286.9,662.8,286.7z"/>
							<path class="st16" d="M658.3,283.1c-0.1-1.4,0.6-3.1,1.8-4.1l0.1-0.1c1.9-1.6,4.5-1.1,4.7-1.1c2,0.4,3.2,1.7,3.7,2.4
								l-0.1,0.1c-0.1,0-0.2,0-0.4,0.1c-0.1,0.1-0.2,0.2-0.4,0.3c-0.5-0.6-1.5-1.7-3.1-2c-0.1,0-2.4-0.4-4,0.9l-0.1,0.1
								c-0.9,0.8-1.5,2.2-1.5,3.3c0.1,1.4,1.5,3,3.7,3.4c-0.1,0.1-0.1,0.2-0.2,0.3c-0.1,0.2-0.1,0.4,0,0.5l-0.1,0.1
								C660.3,286.9,658.5,285.2,658.3,283.1z"/>
						</g>
						<path class="st16" d="M683.2,289.4c-0.4-0.6-1.3-0.9-2-0.7c-0.7,0.2-1.5,0.9-1.4,1.6c0,0,0.1,0.5,0.4,0.8
							c0.4,0.3,0.8,0.2,1.6,0c0.8-0.2,1.3-0.3,1.5-0.8C683.4,289.9,683.2,289.5,683.2,289.4z"/>
						<path class="st17" d="M680.1,293.7c0.9,0.4,2.1,0.3,2.9-0.4"/>
						<path class="st16" d="M676.4,287.5c-0.2,1.2-1,1.1-2.3,3.3c-1.2,2-1.1,2.9-2.2,3.5c-0.8,0.4-1.8,0.6-2.6,0.3
							c-2.3-0.8-3.8-5-2.2-8c1.3-2.7,5-4.4,7.3-3C675.8,284.3,676.7,286,676.4,287.5z"/>
						<path class="st16" d="M691.2,288.1c-0.5,0.9-2.5-0.1-3.1-0.4c-1.6-0.6-3.8-0.7-4.9-2.3c-0.2-0.3-0.9-2.4-0.1-3.8
							c0.8-1.4,2.8-1.3,3-1.3C690.2,280,692,286.4,691.2,288.1z"/>
						<circle class="st3" cx="672.4" cy="287.4" r="1.1"/>
						<circle class="st3" cx="685.8" cy="284.3" r="1.1"/>
					</g>
					<path class="st18" d="M693.6,331.7c0.6-2.2,3.4-18.5,11.3-35.4c0,0,2.5-2.4,4.5-3.1c0,0,1.4,4,5.3,4.7c0,0,1.6-5.3-4-5.3
						c0,0,1.6-0.9,7.2-1.9c0,0,1.7-1.1-0.2-1.1c0,0-6.4,0.6-11.6,4.4c0,0,7.8-15.6,11.3-19.9c1.3-1.6,4.1-5.6,4.7-6.8
						c0.2-0.4,0-1.4-1.1-0.4c-0.8,0.8-2.6,3.4-2.6,3.4s0.6-3.6-0.9-5.8c0,0-0.8-1.6-1.3,0.3c-0.5,1.9-0.6,5.6,0.7,7.5
						c0,0-7.4,10.2-8.7,13.3c0,0-0.2-5.9-0.6-7.5c0,0,4.2-0.3,4.8-4.2c0,0,0.2-1-0.7-1.1c-0.9-0.1-3.2,1.5-4.5,3.7
						c0,0-1.2-3.5-2.2-2.9c0,0-0.8,0.4,0.2,1.5c0,0,2.1,2.8,1.8,12.5c0,0-12.4,21.8-15.4,43.6C691.4,333,692.9,333.6,693.6,331.7z"
						/>
					
						<ellipse transform="matrix(0.115 -0.9934 0.9934 0.115 321.1391 966.5154)" class="st16" cx="703" cy="303" rx="4.4" ry="2.5"/>
				</g>
				<g>
					<g>
						<path class="st11" d="M732.1,376.8c1.3-0.7,2.4-1.4,3.1-2.2C734.5,375.6,733.4,376.4,732.1,376.8z"/>
						<path class="st12" d="M723.5,356c3.7,0.6,4.9,0.7,7.7-1.5l0,0c-3.1,2.6-7.1,4.4-11.3,5.2c-3.2,0.6-6.4,0.5-9.5-0.2l0,0
							c0.3,0.2,0.5,0.4,0.8,0.6c2.8,2.3,4.5,5.5,6.4,8.6c1.9,3,4.1,6.1,7.5,7.6c2.2,1,4.9,1.2,7.1,0.4c-3.7,1.9-9.1,2.8-12.1,1.5
							c-3.1-1.4-5.6-3.6-8.1-5.7h0c-2.9,1.2-7.2,1-10.2-0.2c-2.9-1.2-6-2.6-9.2-2.3c2.9,0.1,5.9,3.2,7.5,5.4
							c1.6,2.2,2.7,4.8,4.6,6.8c1.9,2,5,3.5,7.7,2.6c-2.6,1.8-7.2,3.6-10.3,2.9c-2.4-0.6-4.6-2-6.1-3.9c-1.8,1.2-4.4,2.7-6.3,1.6
							c-0.9-0.5-1.7-1.2-2.7-1.4c-1.3-0.2-2.5,0.4-3.7,0.8c-4.4,1.5-9.9-0.3-12.3-4c-1.7-2.7-1.8-6.1-0.4-8.9l-0.1-0.1
							c-3.2,0.5-6.7,0.6-10.1,0.3l0,0.3c1.3,2.7,1.4,7.2,0.3,9.9c-1,2.7-3.2,5.1-6,6.4c4.1,1.5,8.6,7.2,1.4,14.4
							c-8.4-4.3-16.4-15.4-18.7-21.4s-2.5-12.8,0.5-18.4c0.5-1,1.2-2,2-2.9c1.8-2.1,4.1-3.9,6.7-5.1l0,0c1.7-4.8,15.4-9.2,23.4-5.6
							l0,0.1c4.2-2.5,9.4-3.7,14.4-3c2.2,0.3,4.3,0.9,6,2.1c1.7,1.2,3.6,2.9,3.8,5l0,0c0.9-3.3,4.9-5.3,8.6-5.3
							c3.7,0,7.2,1.6,10.5,3.2c2.7,1.4,5.4,2.9,8.4,3.7C722.3,355.8,722.9,355.9,723.5,356z"/>
						<path class="st12" d="M725.6,347.2c-1.4-2.9-5.6-4.3-8.6-2.7l0,0c1.9-1.1,2.6-1.2,4.2-2.6c0.8-0.8,0.8-1.9,0.2-3l0.1,0
							c2-2.3,7-3.2,10.2-2.7c3.2,0.5,6.1,1.9,9,3.3c2.9,1.4,5.9,2.7,9.1,2.8c3.2,0.1,6.4-0.8,7.8-3.5c0.9,2.1,1,3.9-0.2,5.9
							c-0.6,1-1.4,1.8-2.4,2.5c2.7,1.4,5.8,5.3,4,7.6c-0.9,1.1-2.1,1.8-3.1,2.7c-1,0.9-1.7,2.4-1.2,3.6c0.8,1.6,3.2,1.7,5.1,1.6v0
							c-1.5,2.3-4.4,3.4-7.2,3.5c-2.9,0.2-6.6-2.5-8.4-4.6l0,0c-2.1,1.6-4.8,2.7-7.5,3.1c-5.2,0.7-12.2-2.4-16.8-4.9
							c4.2-0.8,8.2-2.6,11.3-5.2l0,0c-2.8,2.2-4,2.1-7.7,1.5c-0.6-0.1-1.2-0.2-1.8-0.4l0-0.1C725,354.5,727,350.1,725.6,347.2z"/>
						<path class="st12" d="M713.3,337.1c1.6-1.2,4.3-1.4,6.1-0.4c0.8,0.5,1.6,1.3,2,2.2c0.5,1.1,0.6,2.2-0.2,3
							c-1.6,1.4-2.3,1.5-4.2,2.6l0,0c3-1.6,7.2-0.3,8.6,2.7c1.4,2.9-0.6,7.3-3.9,8.4l0,0.1c-2.9-0.8-5.7-2.3-8.4-3.7
							c-3.3-1.7-6.7-3.2-10.5-3.2c-3.7,0-7.7,1.9-8.6,5.3l0,0c-0.2-2-2.1-3.7-3.8-5c-1.7-1.2-3.9-1.8-6-2.1c-5-0.6-10.2,0.5-14.4,3
							l0-0.1c-7.9-3.6-21.7,0.8-23.4,5.6l0,0c-2.6,1.2-4.9,2.9-6.7,5.1l-1.4-0.6c8.1-7.5,14.9-13.7,16.6-14.2l0.2-0.2
							c-1.5-1.3-4-2.8-6.7-4.4c10.4-5.8,24-8.9,36.1-7.5l0.1,0.1c2.2-1,4.5-1.8,6.8-2.2c4.9-0.8,10,0.5,15,0.7
							c5,0.3,10.7-0.8,13.3-4.8l0,0C719,331.1,716.5,334.7,713.3,337.1z"/>
					</g>
					<g>
						<path class="st13" d="M648,341.3c0.2-0.1,0.3-0.2,0.5-0.3c10.4-5.8,24-8.9,36.1-7.5"/>
						<path class="st13" d="M666.7,339.6c6.4,0.4,12-3.4,17.9-6c2.2-1,4.5-1.8,6.8-2.2c4.9-0.8,10,0.5,15,0.7
							c5,0.3,10.7-0.8,13.3-4.8c0,0,0,0,0,0"/>
						<path class="st13" d="M719.7,327.4c-0.7,3.7-3.2,7.3-6.3,9.7c-0.1,0.1-0.1,0.1-0.2,0.2"/>
						<path class="st13" d="M713.2,337.2c0.1,0,0.1-0.1,0.2-0.1c1.6-1.2,4.3-1.4,6.1-0.4c0.8,0.5,1.6,1.3,2,2.2
							c0.5,1.1,0.6,2.2-0.2,3c-1.6,1.4-2.3,1.5-4.2,2.6c0,0-0.1,0-0.1,0.1"/>
						<path class="st13" d="M717,344.5c3-1.6,7.2-0.3,8.6,2.7c1.4,2.9-0.6,7.3-3.9,8.4"/>
						<path class="st13" d="M694.2,354L694.2,354c0.9-3.3,4.9-5.3,8.6-5.3c3.7,0,7.2,1.6,10.5,3.2c2.7,1.4,5.4,2.9,8.4,3.7
							c0.6,0.2,1.2,0.3,1.8,0.4c3.7,0.6,4.9,0.7,7.7-1.5"/>
						<path class="st13" d="M700.6,358.2c3.1-1.5,6.9-0.5,9.7,1.4c0.3,0.2,0.5,0.4,0.8,0.6c2.8,2.3,4.5,5.5,6.4,8.6
							c1.9,3,4.1,6.1,7.5,7.6c2.2,1,4.9,1.2,7.1,0.4c1.3-0.4,2.4-1.2,3.1-2.2"/>
						<path class="st13" d="M710.3,359.6c3.1,0.7,6.4,0.7,9.5,0.2c4.2-0.8,8.2-2.6,11.3-5.2c0,0,0.1-0.1,0.1-0.1"/>
						<path class="st13" d="M711.9,372.5c2.5,2.2,5,4.4,8.1,5.7c3,1.4,8.4,0.4,12.1-1.5c1.3-0.7,2.4-1.4,3.1-2.2"/>
						<path class="st13" d="M697.5,365.6c4.5-0.3,8.6,2.1,12,4.9c0.8,0.7,1.6,1.3,2.4,2"/>
						<path class="st13" d="M692.5,370.1c3.2-0.4,6.3,1.1,9.2,2.3c2.9,1.2,7.2,1.4,10.2,0.2h0"/>
						<path class="st13" d="M692.5,370.1c2.9,0.1,5.9,3.2,7.5,5.4c1.6,2.2,2.7,4.8,4.6,6.8c1.9,2,5,3.5,7.7,2.6"/>
						<path class="st13" d="M678.2,370.9c-1.4,1.5-1.2,3.9,0,5.4c1.3,1.6,3.4,2.4,5.5,2.7c2.1,0.3,4.2,0.1,6.4,0
							c1.2-0.1,2.5-0.1,3.4,0.6c0.8,0.6,1.1,1.6,1.5,2.4c0.3,0.6,0.6,1.2,1,1.7c1.4,1.9,3.6,3.3,6.1,3.9c3.1,0.8,7.7-1.1,10.3-2.9"
							/>
						<path class="st13" d="M672.9,369c-1,0.8-1.8,1.9-2.4,3c-1.4,2.8-1.3,6.2,0.4,8.9c2.4,3.7,7.9,5.5,12.3,4
							c1.2-0.4,2.4-1,3.7-0.8c1,0.2,1.8,0.9,2.7,1.4c1.9,1,4.5-0.5,6.3-1.6"/>
						<path class="st13" d="M670,363.7c-7.5,4.1-16.8,3.7-25.4,3.2c4.3,2.9,10,4.7,15.7,5.2c3.5,0.3,6.9,0.2,10.1-0.3"/>
						<path class="st13" d="M675.9,359.2c3.8,2.5,8.8,3.3,13.3,2.3c-1.2,2.1-3.2,3.8-5.6,4.8"/>
						<path class="st13" d="M666.2,352.7c1.1-1.1,2.4-2,3.7-2.9c4.2-2.5,9.4-3.7,14.4-3c2.2,0.3,4.3,0.9,6,2.1
							c1.7,1.2,3.6,2.9,3.8,5"/>
						<path class="st13" d="M669.8,349.8c-7.9-3.6-21.7,0.8-23.4,5.6"/>
						<path class="st13" d="M654.3,353.9c-2.7-0.1-5.4,0.5-7.8,1.6c-2.6,1.2-4.9,2.9-6.7,5.1c-0.8,0.9-1.4,1.9-2,2.9
							c-3,5.7-2.9,12.5-0.5,18.4s10.3,17.1,18.7,21.4"/>
						<path class="st13" d="M660.2,372.5c1.3,2.7,1.4,7.2,0.3,9.9c-1,2.7-3.2,5.1-6,6.4c4.1,1.5,8.6,7.2,1.4,14.4"/>
						<path class="st13" d="M721.5,338.9c2-2.3,7-3.2,10.2-2.7c3.2,0.5,6.1,1.9,9,3.3c2.9,1.4,5.9,2.7,9.1,2.8
							c3.2,0.1,6.4-0.8,7.8-3.5c0,0,0,0,0,0"/>
						<path class="st13" d="M755.1,347.1c-1,0.7-2.2,1.2-3.5,1.4"/>
						<path class="st13" d="M757.7,338.7L757.7,338.7c0.9,2.1,1,3.9-0.2,5.9c-0.6,1-1.4,1.8-2.4,2.5"/>
						<path class="st13" d="M755.1,347.1L755.1,347.1c2.7,1.4,5.8,5.3,4,7.6c-0.9,1.1-2.1,1.8-3.1,2.7c-1,0.9-1.7,2.4-1.2,3.6
							c0.8,1.6,3.2,1.7,5.1,1.6c0,0,0,0,0.1,0"/>
						<path class="st13" d="M719.7,359.6c0.1,0,0.1,0.1,0.2,0.1c4.6,2.5,11.6,5.6,16.8,4.9c2.7-0.4,5.4-1.4,7.5-3.1
							c1.9-1.5,3.4-3.4,4-5.7"/>
						<path class="st13" d="M744.2,361.6c1.8,2.1,5.5,4.8,8.4,4.6c2.9-0.2,5.7-1.3,7.2-3.5"/>
					</g>
				</g>
				<g id="dark_H_Logo_ABC_full_1_">
					<path class="st3" d="M434.6,117.3l30.8,57.3h-10.6c-0.3-0.4-0.5-0.9-0.7-1.3c-0.4-0.8-1-1.9-1.7-3.2l-2.1-4
						c-0.7-1.3-1.3-2.5-1.9-3.5c-0.6-1-0.9-1.6-1-1.9h-36.3c-0.1,0.2-0.5,0.8-1,1.9c-0.6,1-1.2,2.2-1.9,3.5c-0.7,1.3-1.4,2.6-2.1,4
						s-1.3,2.4-1.7,3.2c-0.4,0.8-0.7,1.3-0.8,1.3h-10.5l30.9-57.3H434.6z M426.9,129.2c-0.7,1.3-1.5,2.8-2.3,4.4s-1.8,3.4-2.8,5.3
						c-1,1.9-2,3.7-2.9,5.3l-2.4,4.3c-0.7,1.2-1.1,2.1-1.4,2.5h26.5c-0.2-0.4-0.7-1.2-1.4-2.5c-0.7-1.2-1.5-2.7-2.4-4.3
						c-0.9-1.7-1.9-3.4-2.9-5.3c-1-1.9-2-3.7-2.9-5.3c-0.9-1.6-1.7-3.1-2.4-4.4s-1.1-2.2-1.4-2.6
						C428.1,127.1,427.6,127.9,426.9,129.2z"/>
					<path class="st3" d="M524.4,117.3c2.2,0,4.4,0.4,6.5,1.2c1.9,0.8,3.7,1.9,5.3,3.3c1.5,1.4,2.7,3,3.6,4.9
						c0.9,1.9,1.3,3.9,1.3,5.9v2.8c0,2-0.4,3.9-1.3,5.7c-0.9,1.9-2.1,3.6-3.6,5c1.5,1.4,2.7,3,3.6,4.9c0.8,1.8,1.3,3.8,1.3,5.8v2.8
						c0,2-0.4,4.1-1.3,5.9c-0.9,1.8-2.1,3.5-3.6,4.8c-1.5,1.4-3.3,2.5-5.3,3.3c-2.1,0.8-4.3,1.2-6.5,1.2h-47.6v-57.3H524.4z
						 M485.6,126.5v15.4h38.3c0.3,0,0.6,0,0.9,0c0.3,0,0.6,0.1,0.9,0.1c1.5-0.3,2.9-1.1,4-2.3c1-1.1,1.5-2.5,1.5-4V133
						c0-1.8-0.8-3.5-2.1-4.6c-1.4-1.3-3.3-2-5.2-1.9L485.6,126.5z M485.6,151v15.5h38.3c1.9,0.1,3.8-0.6,5.2-1.9
						c1.4-1.1,2.1-2.8,2.1-4.6v-2.8c0-1.5-0.5-2.9-1.5-4c-1.1-1.2-2.5-2-4-2.4c-0.3,0.1-0.6,0.1-0.9,0.1c-0.3,0-0.6,0-0.9,0
						L485.6,151z"/>
					<path class="st3" d="M603.3,116.8c1.9,0,3.8,0.3,5.5,1c3.4,1.3,6.3,3.8,8.1,7.1c0.9,1.6,1.5,3.4,1.7,5.3l0.2,1.3h-9.6l-0.2-0.9
						c-0.4-1.2-1.2-2.3-2.2-3c-1-0.8-2.3-1.2-3.5-1.2h-35.2c-1.6,0-3.2,0.6-4.3,1.8c-1.1,1.1-1.7,2.6-1.7,4.2v27
						c-0.1,3.3,2.5,5.9,5.8,6c0.1,0,0.1,0,0.2,0h35.2c1.3,0,2.5-0.4,3.5-1.2c1-0.8,1.8-1.8,2.2-3l0.2-0.8h9.6l-0.2,1.3
						c-0.2,1.9-0.8,3.7-1.7,5.3c-0.9,1.6-2.1,3-3.5,4.2c-1.4,1.2-3,2.1-4.7,2.8c-1.8,0.7-3.6,1-5.5,1h-35.2c-2.1,0-4.2-0.4-6.1-1.2
						c-1.8-0.8-3.5-1.9-4.9-3.3c-1.4-1.4-2.6-3.1-3.4-4.9c-0.8-1.9-1.3-4-1.3-6.1v-27c0-2.1,0.4-4.1,1.3-6c0.8-1.8,1.9-3.5,3.4-4.9
						c1.4-1.4,3.1-2.6,4.9-3.3c1.9-0.8,4-1.3,6.1-1.2H603.3z"/>
					<g class="st19">
						<path class="st2" d="M406,201.2h-4.4l-0.8,2.5h-2.7l4.6-12.2h2.3l4.6,12.2h-2.7L406,201.2z M402.3,199.1h3.1l-1.5-4.6
							L402.3,199.1z"/>
						<path class="st2" d="M420.5,200.5c0-0.5-0.2-0.8-0.5-1.1c-0.3-0.3-0.9-0.5-1.8-0.8c-0.9-0.3-1.6-0.6-2.1-0.8
							c-1.4-0.8-2.1-1.8-2.1-3c0-0.7,0.2-1.3,0.6-1.8c0.4-0.5,0.9-0.9,1.6-1.2c0.7-0.3,1.5-0.4,2.3-0.4c0.9,0,1.7,0.2,2.3,0.5
							c0.7,0.3,1.2,0.8,1.6,1.3c0.4,0.6,0.6,1.2,0.6,2h-2.5c0-0.6-0.2-1-0.5-1.3c-0.4-0.3-0.8-0.5-1.5-0.5c-0.6,0-1.1,0.1-1.4,0.4
							s-0.5,0.6-0.5,1c0,0.4,0.2,0.7,0.6,1c0.4,0.3,1,0.5,1.8,0.8c1.4,0.4,2.5,1,3.1,1.6c0.7,0.6,1,1.4,1,2.4c0,1.1-0.4,1.9-1.2,2.5
							c-0.8,0.6-1.9,0.9-3.2,0.9c-0.9,0-1.8-0.2-2.6-0.5c-0.8-0.3-1.4-0.8-1.8-1.4s-0.6-1.3-0.6-2.1h2.5c0,1.4,0.8,2,2.4,2
							c0.6,0,1.1-0.1,1.4-0.4C420.3,201.3,420.5,200.9,420.5,200.5z"/>
					</g>
					<g class="st19">
						<path class="st2" d="M430.9,203.7h-2.5v-12.2h2.5V203.7z"/>
					</g>
					<g class="st19">
						<path class="st2" d="M443.7,201.2h-4.4l-0.8,2.5h-2.7l4.6-12.2h2.3l4.6,12.2h-2.7L443.7,201.2z M440,199.1h3.1l-1.5-4.6
							L440,199.1z"/>
						<path class="st2" d="M461.8,203.7h-2.5l-4.9-8.1v8.1h-2.5v-12.2h2.5l4.9,8.1v-8.1h2.5V203.7z"/>
						<path class="st2" d="M475.1,203.7v-12.2h4.3c1.5,0,2.6,0.3,3.4,0.9s1.2,1.4,1.2,2.5c0,0.6-0.2,1.1-0.5,1.6s-0.7,0.8-1.3,1
							c0.6,0.2,1.1,0.5,1.5,0.9c0.4,0.5,0.5,1.1,0.5,1.7c0,1.2-0.4,2.1-1.1,2.7c-0.8,0.6-1.8,0.9-3.2,0.9H475.1z M477.7,196.6h1.9
							c1.3,0,1.9-0.5,1.9-1.5c0-0.6-0.2-1-0.5-1.2c-0.3-0.2-0.8-0.4-1.5-0.4h-1.8V196.6z M477.7,198.4v3.3h2.2
							c0.6,0,1.1-0.1,1.4-0.4c0.3-0.3,0.5-0.7,0.5-1.2c0-1.1-0.6-1.7-1.7-1.7H477.7z"/>
						<path class="st2" d="M499.6,197.9c0,1.2-0.2,2.3-0.6,3.2c-0.4,0.9-1,1.6-1.8,2.1c-0.8,0.5-1.7,0.7-2.7,0.7
							c-1,0-1.9-0.2-2.7-0.7c-0.8-0.5-1.4-1.2-1.8-2.1c-0.4-0.9-0.7-1.9-0.7-3.1v-0.6c0-1.2,0.2-2.3,0.7-3.2c0.4-0.9,1-1.6,1.8-2.1
							s1.7-0.7,2.7-0.7c1,0,1.9,0.2,2.7,0.7s1.4,1.2,1.8,2.1c0.4,0.9,0.7,2,0.7,3.2V197.9z M497.1,197.3c0-1.3-0.2-2.3-0.7-2.9
							c-0.5-0.7-1.1-1-2-1c-0.8,0-1.5,0.3-2,1c-0.5,0.7-0.7,1.6-0.7,2.9v0.6c0,1.2,0.2,2.2,0.7,2.9c0.5,0.7,1.1,1,2,1
							c0.8,0,1.5-0.3,1.9-1c0.5-0.7,0.7-1.6,0.7-2.9V197.3z"/>
						<path class="st2" d="M509.4,199.2h-2v4.5h-2.5v-12.2h4.5c1.4,0,2.6,0.3,3.3,1c0.8,0.6,1.2,1.6,1.2,2.7c0,0.8-0.2,1.5-0.5,2.1
							c-0.4,0.6-0.9,1-1.6,1.3l2.6,5v0.1h-2.7L509.4,199.2z M507.4,197.2h2c0.6,0,1.1-0.2,1.5-0.5c0.3-0.3,0.5-0.8,0.5-1.3
							c0-0.6-0.2-1-0.5-1.4c-0.3-0.3-0.8-0.5-1.5-0.5h-2V197.2z"/>
						<path class="st2" d="M523.9,199.2h-2v4.5h-2.5v-12.2h4.5c1.4,0,2.6,0.3,3.3,1c0.8,0.6,1.2,1.6,1.2,2.7c0,0.8-0.2,1.5-0.5,2.1
							c-0.4,0.6-0.9,1-1.6,1.3l2.6,5v0.1h-2.7L523.9,199.2z M521.8,197.2h2c0.6,0,1.1-0.2,1.5-0.5c0.3-0.3,0.5-0.8,0.5-1.3
							c0-0.6-0.2-1-0.5-1.4c-0.3-0.3-0.8-0.5-1.5-0.5h-2V197.2z"/>
						<path class="st2" d="M541.1,198.4h-4.8v3.3h5.7v2h-8.2v-12.2h8.2v2h-5.7v2.9h4.8V198.4z"/>
						<path class="st2" d="M549.4,201.7h5.4v2h-7.9v-12.2h2.5V201.7z"/>
						<path class="st2" d="M577,199.6c-0.1,1.3-0.6,2.4-1.5,3.1c-0.9,0.8-2,1.1-3.5,1.1c-1.6,0-2.8-0.5-3.7-1.6
							c-0.9-1.1-1.3-2.5-1.3-4.3v-0.7c0-1.2,0.2-2.2,0.6-3.1c0.4-0.9,1-1.6,1.8-2.1c0.8-0.5,1.7-0.7,2.7-0.7c1.4,0,2.5,0.4,3.4,1.1
							c0.9,0.8,1.4,1.8,1.5,3.2h-2.5c-0.1-0.8-0.3-1.4-0.7-1.7c-0.4-0.4-1-0.5-1.7-0.5c-0.8,0-1.5,0.3-1.9,0.9
							c-0.4,0.6-0.6,1.5-0.6,2.8v0.9c0,1.3,0.2,2.3,0.6,2.9s1,0.9,1.9,0.9c0.8,0,1.4-0.2,1.7-0.5s0.6-0.9,0.7-1.7H577z"/>
					</g>
					<g class="st19">
						<path class="st2" d="M584.6,201.7h5.4v2h-7.9v-12.2h2.5V201.7z"/>
					</g>
					<g class="st19">
						<path class="st2" d="M603.9,191.5v8.1c0,1.3-0.4,2.4-1.3,3.2s-2,1.2-3.4,1.2c-1.4,0-2.6-0.4-3.4-1.1c-0.8-0.8-1.3-1.8-1.3-3.1
							v-8.2h2.5v8.1c0,0.8,0.2,1.4,0.6,1.8c0.4,0.4,0.9,0.6,1.6,0.6c1.4,0,2.1-0.7,2.2-2.2v-8.1H603.9z"/>
						<path class="st2" d="M609.4,203.7v-12.2h4.3c1.5,0,2.6,0.3,3.4,0.9s1.2,1.4,1.2,2.5c0,0.6-0.2,1.1-0.5,1.6s-0.7,0.8-1.3,1
							c0.6,0.2,1.1,0.5,1.5,0.9c0.4,0.5,0.5,1.1,0.5,1.7c0,1.2-0.4,2.1-1.1,2.7c-0.8,0.6-1.8,0.9-3.2,0.9H609.4z M611.9,196.6h1.9
							c1.3,0,1.9-0.5,1.9-1.5c0-0.6-0.2-1-0.5-1.2c-0.3-0.2-0.8-0.4-1.5-0.4h-1.8V196.6z M611.9,198.4v3.3h2.2
							c0.6,0,1.1-0.1,1.4-0.4c0.3-0.3,0.5-0.7,0.5-1.2c0-1.1-0.6-1.7-1.7-1.7H611.9z"/>
					</g>
				</g>
				<g>
					<text transform="matrix(1 0 0 1 434.2791 226.7493)" class="st2 st20 st8 st21">MEMBERSHIP CARD</text>
				</g>
			</g>
		</g>
		<g>
			<defs>
				<path id="SVGID_11_" d="M750.4,394.4H265.5c-4.9,0-8.9-4-8.9-8.9V86.7c0-4.9,4-8.9,8.9-8.9h484.8c4.9,0,8.9,4,8.9,8.9v298.8
					C759.3,390.5,755.3,394.4,750.4,394.4z"/>
			</defs>
			<clipPath id="SVGID_12_">
				<use xlink:href="#SVGID_11_"  style="overflow:visible;"/>
			</clipPath>
		</g>
	</g>
</g>
</svg>
